<svg width="178" height="47" viewBox="0 0 178 47" fill="none" xmlns="http://www.w3.org/2000/svg">
<path d="M10.5253 29.1595H0V8.77047H9.84983V10.9977H10.1875C11.7635 8.30523 14.8029 6.51025 19.1368 6.51025C27.3544 6.51025 30.9003 12.4 30.9003 21.4871C30.9003 30.5742 27.467 36.4639 19.2494 36.4639C15.0843 36.4639 12.2701 34.725 11.0318 32.0887H10.5253V29.1595ZM10.5253 22.5529C10.5253 26.4794 12.1012 27.3208 15.422 27.3208C19.8685 27.3208 20.3751 25.3575 20.3751 21.4871C20.3751 17.6167 19.8122 15.7095 15.422 15.7095C12.1012 15.7095 10.5253 16.4948 10.5253 20.4774V22.5529Z" fill="#8D5FFF"/>
<rect y="30.2996" width="9.7709" height="14.0191" fill="#8D5FFF"/>
<path d="M170.821 38.4503C162.998 38.4503 159.339 35.3091 159.339 28.3535V17.6959H155.512V9.05755H159.677L161.534 3.11169H169.921V9.05755H177.576V17.6959H169.921V26.7829C169.921 28.5218 170.54 28.9706 172.96 28.9706H177.576V37.7772C176.112 38.1137 173.467 38.4503 170.821 38.4503Z" fill="#8D5FFF"/>
<path d="M112.002 -0.000292812L122.527 -0.000293732L122.527 37.8064L112.677 37.8064L112.677 33.8799L112.339 33.8799C110.763 36.5723 107.724 38.3673 103.39 38.3673C95.1725 38.3673 91.6265 32.4775 91.6265 23.3905C91.6265 14.3034 95.0599 8.41365 103.277 8.41365C107.443 8.41365 110.257 10.1525 111.495 12.7889L112.002 12.7889L112.002 -0.000292812ZM112.002 22.3247C112.002 18.3982 110.426 17.5568 107.105 17.5568C102.658 17.5568 102.152 19.5201 102.152 23.3905C102.152 27.2609 102.715 29.1681 107.105 29.1681C110.426 29.1681 112.002 28.3828 112.002 24.4002L112.002 22.3247Z" fill="#8D5FFF"/>
<path d="M69.1441 47.0002C66.6675 47.0002 63.797 46.5514 62.4462 46.2149V37.4644H68.3561C70.1009 37.4644 70.72 37.24 71.2266 36.1742L59.6882 8.63257H71.4517L75.2791 20.4682L76.5737 26.0214H77.3054L78.4873 20.4682L81.6956 8.63257H93.3465L81.977 38.1936C79.4442 44.8125 74.7725 47.0002 69.1441 47.0002Z" fill="#8D5FFF"/>
<path d="M41.4101 38.4501C36.457 38.4501 32.6296 35.8137 32.6296 30.541C32.6296 26.0536 35.5564 23.3611 41.6915 22.3514L50.9222 20.893V19.8833C50.9222 18.0884 50.3031 17.4713 47.2074 17.4713C44.1117 17.4713 43.38 18.0323 43.38 19.7712V20.6686H33.3051V19.9955C33.3051 12.8717 38.9335 8.49646 47.6014 8.49646C56.5507 8.49646 60.9972 12.4791 60.9972 20.6125V37.8892H51.091V34.4114H50.5845C49.3462 36.2064 46.8134 38.4501 41.4101 38.4501ZM42.3106 29.5874C42.3106 30.5971 42.9298 30.8215 44.8997 30.8215C49.0085 30.8215 50.7533 29.7557 50.9222 27.0632L43.8866 28.2412C42.7609 28.4095 42.3106 28.8021 42.3106 29.5874Z" fill="#8D5FFF"/>
<path d="M133.678 38.4501C128.725 38.4501 124.897 35.8137 124.897 30.541C124.897 26.0536 127.824 23.3611 133.959 22.3514L143.19 20.893V19.8833C143.19 18.0884 142.571 17.4713 139.475 17.4713C136.38 17.4713 135.648 18.0323 135.648 19.7712V20.6686H125.573V19.9955C125.573 12.8717 131.201 8.49646 139.869 8.49646C148.818 8.49646 153.265 12.4791 153.265 20.6125V37.8892H143.359V34.4114H142.852C141.614 36.2064 139.081 38.4501 133.678 38.4501ZM134.578 29.5874C134.578 30.5971 135.198 30.8215 137.168 30.8215C141.276 30.8215 143.021 29.7557 143.19 27.0632L136.154 28.2412C135.029 28.4095 134.578 28.8021 134.578 29.5874Z" fill="#8D5FFF"/>
</svg>
