<svg width="393" height="437" viewBox="0 0 393 437" fill="none" xmlns="http://www.w3.org/2000/svg">
<rect x="5" y="5" width="383" height="921" rx="35" fill="white"/>
<rect x="5" y="5" width="383" height="921" rx="35" stroke="#333333" stroke-width="10"/>
<path d="M25.6768 89.6455C25.6768 89.9092 25.791 90.1729 25.9932 90.3662L31.7939 96.1582C32.0049 96.3604 32.2334 96.457 32.4883 96.457C33.042 96.457 33.4463 96.0615 33.4463 95.5254C33.4463 95.2441 33.3408 95.0068 33.1562 94.8311L31.1787 92.8271L28.6299 90.498L30.6777 90.6211H41.3301C41.9102 90.6211 42.3145 90.2168 42.3145 89.6455C42.3145 89.0654 41.9102 88.6611 41.3301 88.6611H30.6777L28.6387 88.7842L31.1787 86.4551L33.1562 84.4512C33.3408 84.2754 33.4463 84.0381 33.4463 83.7568C33.4463 83.2207 33.042 82.8252 32.4883 82.8252C32.2334 82.8252 31.9961 82.9219 31.7676 83.1416L25.9932 88.916C25.791 89.1094 25.6768 89.373 25.6768 89.6455Z" fill="#333333"/>
<path d="M277.584 95.16C276.037 95.16 274.816 94.664 273.92 93.672C273.024 92.6693 272.576 91.3253 272.576 89.64C272.576 87.9547 273.024 86.616 273.92 85.624C274.816 84.6213 276.037 84.12 277.584 84.12C279.024 84.12 280.155 84.4933 280.976 85.24C281.797 85.9867 282.208 87.0053 282.208 88.296V88.392H280.368V88.296C280.368 87.4107 280.144 86.7707 279.696 86.376C279.259 85.9813 278.539 85.784 277.536 85.784C276.416 85.784 275.616 86.0827 275.136 86.68C274.656 87.2667 274.416 88.2533 274.416 89.64C274.416 91.0267 274.656 92.0187 275.136 92.616C275.616 93.2027 276.416 93.496 277.536 93.496C278.539 93.496 279.259 93.2987 279.696 92.904C280.144 92.5093 280.368 91.8693 280.368 90.984V90.888H282.208V90.984C282.208 92.2747 281.797 93.2933 280.976 94.04C280.155 94.7867 279.024 95.16 277.584 95.16ZM285.357 95H283.629V87H285.213V88.264H285.293C285.464 87.8587 285.736 87.528 286.109 87.272C286.493 87.016 286.963 86.888 287.517 86.888C288.307 86.888 288.888 87.1387 289.261 87.64C289.635 88.1413 289.821 88.792 289.821 89.592V90.12H288.093V89.8C288.093 89.2667 287.997 88.8933 287.805 88.68C287.624 88.4667 287.283 88.36 286.781 88.36C286.259 88.36 285.891 88.472 285.677 88.696C285.464 88.9093 285.357 89.2827 285.357 89.816V95ZM294.462 95.16C293.193 95.16 292.233 94.792 291.582 94.056C290.931 93.3093 290.606 92.296 290.606 91.016C290.606 89.7787 290.953 88.7813 291.646 88.024C292.339 87.2667 293.273 86.888 294.446 86.888C295.534 86.888 296.414 87.1973 297.086 87.816C297.758 88.4347 298.094 89.2773 298.094 90.344C298.094 90.7493 298.062 91.112 297.998 91.432H292.222C292.254 92.1893 292.435 92.744 292.766 93.096C293.107 93.448 293.678 93.624 294.478 93.624C295.705 93.624 296.318 93.2347 296.318 92.456V92.328H298.03V92.472C298.03 93.2827 297.705 93.9333 297.054 94.424C296.403 94.9147 295.539 95.16 294.462 95.16ZM294.414 88.344C293.689 88.344 293.155 88.5093 292.814 88.84C292.483 89.16 292.291 89.64 292.238 90.28H296.446C296.478 89.6187 296.318 89.1333 295.966 88.824C295.625 88.504 295.107 88.344 294.414 88.344ZM301.712 95.16C300.976 95.16 300.368 94.9733 299.888 94.6C299.418 94.2267 299.184 93.704 299.184 93.032C299.184 91.784 300.069 91.0373 301.84 90.792L304.624 90.376V89.944C304.624 89.368 304.485 88.968 304.208 88.744C303.93 88.52 303.472 88.408 302.832 88.408C302.202 88.408 301.749 88.52 301.472 88.744C301.205 88.968 301.072 89.3413 301.072 89.864V90.104H299.408V89.944C299.408 89.048 299.728 88.3173 300.368 87.752C301.018 87.176 301.872 86.888 302.928 86.888C304.005 86.888 304.832 87.1867 305.408 87.784C305.984 88.3707 306.272 89.1653 306.272 90.168V95H304.672V93.752H304.592C304.016 94.6907 303.056 95.16 301.712 95.16ZM300.864 92.904C300.864 93.2133 300.97 93.4373 301.184 93.576C301.408 93.7147 301.77 93.784 302.272 93.784C302.933 93.784 303.488 93.6293 303.936 93.32C304.394 93 304.624 92.472 304.624 91.736V91.592L302.096 91.976C301.637 92.04 301.317 92.1413 301.136 92.28C300.954 92.408 300.864 92.616 300.864 92.904ZM311.16 95C310.243 95 309.56 94.8133 309.112 94.44C308.675 94.056 308.456 93.4267 308.456 92.552V88.488H307.128V87.048H308.488L308.856 85.08H310.184V87.048H312.584V88.488H310.184V92.472C310.184 92.8773 310.28 93.144 310.472 93.272C310.675 93.3893 311.054 93.448 311.608 93.448H312.584V94.856C312.179 94.952 311.704 95 311.16 95ZM317.009 95.16C315.74 95.16 314.78 94.792 314.129 94.056C313.478 93.3093 313.153 92.296 313.153 91.016C313.153 89.7787 313.5 88.7813 314.193 88.024C314.886 87.2667 315.82 86.888 316.993 86.888C318.081 86.888 318.961 87.1973 319.633 87.816C320.305 88.4347 320.641 89.2773 320.641 90.344C320.641 90.7493 320.609 91.112 320.545 91.432H314.769C314.801 92.1893 314.982 92.744 315.313 93.096C315.654 93.448 316.225 93.624 317.025 93.624C318.252 93.624 318.865 93.2347 318.865 92.456V92.328H320.577V92.472C320.577 93.2827 320.252 93.9333 319.601 94.424C318.95 94.9147 318.086 95.16 317.009 95.16ZM316.961 88.344C316.236 88.344 315.702 88.5093 315.361 88.84C315.03 89.16 314.838 89.64 314.785 90.28H318.993C319.025 89.6187 318.865 89.1333 318.513 88.824C318.172 88.504 317.654 88.344 316.961 88.344ZM326.89 95H325.162V84.28H326.89V95ZM330.404 95H328.676V87.048H330.26V88.536H330.324C330.804 87.4373 331.727 86.888 333.092 86.888C334.084 86.888 334.831 87.1707 335.332 87.736C335.833 88.3013 336.084 89.0587 336.084 90.008V95H334.356V90.392C334.356 89.6667 334.217 89.1493 333.94 88.84C333.663 88.5307 333.167 88.376 332.452 88.376C331.737 88.376 331.215 88.5307 330.884 88.84C330.564 89.1493 330.404 89.672 330.404 90.408V95ZM342.05 95H339.874L336.69 87.048H338.61L340.93 93.352H341.042L343.378 87.048H345.25L342.05 95ZM349.402 95.16C348.186 95.16 347.221 94.7813 346.506 94.024C345.792 93.2667 345.434 92.264 345.434 91.016C345.434 89.7787 345.792 88.7813 346.506 88.024C347.221 87.2667 348.186 86.888 349.402 86.888C350.608 86.888 351.557 87.2667 352.25 88.024C352.954 88.7707 353.306 89.768 353.306 91.016C353.306 92.264 352.954 93.2667 352.25 94.024C351.557 94.7813 350.608 95.16 349.402 95.16ZM347.642 93.016C347.994 93.4213 348.581 93.624 349.402 93.624C350.224 93.624 350.8 93.4213 351.13 93.016C351.472 92.6 351.642 91.9333 351.642 91.016C351.642 90.1093 351.472 89.4533 351.13 89.048C350.789 88.632 350.213 88.424 349.402 88.424C348.581 88.424 347.994 88.632 347.642 89.048C347.301 89.4533 347.13 90.1093 347.13 91.016C347.13 91.9333 347.301 92.6 347.642 93.016ZM356.214 86.04H354.502L354.486 84.28H356.214V86.04ZM356.23 95H354.502V87H356.23V95ZM361.307 95.176C360.091 95.176 359.136 94.8027 358.443 94.056C357.76 93.2987 357.419 92.2907 357.419 91.032C357.419 89.7733 357.765 88.7707 358.459 88.024C359.163 87.2667 360.133 86.888 361.371 86.888C362.416 86.888 363.264 87.1867 363.915 87.784C364.576 88.3707 364.907 89.1387 364.907 90.088V90.232H363.195V90.136C363.195 89.5493 363.035 89.1227 362.715 88.856C362.405 88.5787 361.92 88.44 361.259 88.44C360.501 88.44 359.957 88.6533 359.627 89.08C359.296 89.496 359.131 90.1467 359.131 91.032C359.131 91.9173 359.296 92.568 359.627 92.984C359.957 93.4 360.501 93.608 361.259 93.608C361.92 93.608 362.405 93.4747 362.715 93.208C363.035 92.9413 363.195 92.5147 363.195 91.928V91.832H364.907V91.976C364.907 92.9253 364.571 93.6987 363.899 94.296C363.237 94.8827 362.373 95.176 361.307 95.176ZM369.822 95.16C368.552 95.16 367.592 94.792 366.942 94.056C366.291 93.3093 365.965 92.296 365.965 91.016C365.965 89.7787 366.312 88.7813 367.006 88.024C367.699 87.2667 368.632 86.888 369.806 86.888C370.894 86.888 371.774 87.1973 372.446 87.816C373.118 88.4347 373.454 89.2773 373.454 90.344C373.454 90.7493 373.422 91.112 373.358 91.432H367.582C367.614 92.1893 367.795 92.744 368.126 93.096C368.467 93.448 369.038 93.624 369.838 93.624C371.064 93.624 371.678 93.2347 371.678 92.456V92.328H373.39V92.472C373.39 93.2827 373.064 93.9333 372.414 94.424C371.763 94.9147 370.899 95.16 369.822 95.16ZM369.774 88.344C369.048 88.344 368.515 88.5093 368.174 88.84C367.843 89.16 367.651 89.64 367.598 90.28H371.806C371.838 89.6187 371.678 89.1333 371.326 88.824C370.984 88.504 370.467 88.344 369.774 88.344Z" fill="#333333"/>
<rect x="20.5" y="145.5" width="351" height="49" rx="21.5" stroke="#1E1E1E" stroke-opacity="0.15"/>
<path d="M41.8318 173.16C38.7918 173.16 36.9518 170.984 36.9518 167.64C36.9518 164.296 38.7918 162.12 41.8318 162.12C44.4558 162.12 46.2318 163.672 46.2318 166.104V166.232H45.0158V166.104C45.0158 164.216 44.0078 163.224 41.7678 163.224C39.2558 163.224 38.1518 164.664 38.1518 167.64C38.1518 170.616 39.2558 172.056 41.7678 172.056C44.0078 172.056 45.0158 171.064 45.0158 169.176V169.048H46.2318V169.176C46.2318 171.608 44.4558 173.16 41.8318 173.16ZM48.9386 173H47.7866V162.28H48.9386V173ZM51.8121 164.04H50.6761V162.28H51.8121V164.04ZM51.8121 173H50.6761V165H51.8121V173ZM56.8501 173.16C54.4181 173.16 53.1541 171.448 53.1541 169.048C53.1541 166.648 54.5781 164.936 56.8341 164.936C58.7381 164.936 60.3061 166.088 60.3061 168.424C60.3061 168.792 60.2741 169.144 60.2261 169.368H54.2421C54.2901 171.112 54.9781 172.136 56.8661 172.136C58.4661 172.136 59.1061 171.416 59.1061 170.456V170.36H60.2421V170.472C60.2421 171.992 58.8661 173.16 56.8501 173.16ZM56.8021 165.928C55.0421 165.928 54.3381 166.936 54.2421 168.536H59.2181C59.2821 166.664 58.3541 165.928 56.8021 165.928ZM62.9386 173H61.7866V165.096H62.8266V166.728H62.8746C63.1786 165.896 64.0746 164.936 65.7066 164.936C67.7386 164.936 68.6666 166.248 68.6666 168.152V173H67.5306V168.408C67.5306 166.696 66.9706 165.944 65.3546 165.944C63.7866 165.944 62.9386 166.68 62.9386 168.44V173ZM73.2466 173.016C71.7906 173.016 70.9426 172.44 70.9426 170.76V166.088H69.6146V165.096H70.9586L71.2306 163.08H72.0946V165.096H74.5906V166.088H72.0946V170.824C72.0946 171.752 72.5266 171.96 73.5506 171.96H74.5906V172.888C74.3186 172.936 73.8226 173.016 73.2466 173.016ZM79.9409 173H78.8049V162.28H80.0369L84.8529 169.416L85.9889 171.096H86.0849V162.28H87.2369V173H85.9889L81.1409 165.864L80.0209 164.216H79.9409V173ZM91.2904 173.16C89.8504 173.16 88.7624 172.424 88.7624 171.096C88.7624 169.72 89.7864 169.112 91.5144 168.872L94.2984 168.488V167.912C94.2984 166.52 93.7064 165.96 92.2184 165.96C90.7784 165.96 90.1064 166.52 90.1064 167.784V168.024H89.0024V167.896C89.0024 166.248 90.2664 164.936 92.3144 164.936C94.4264 164.936 95.3864 166.296 95.3864 168.056V173H94.3464V171.544L94.2664 171.528C93.8024 172.44 92.7944 173.16 91.2904 173.16ZM89.8824 171.016C89.8824 171.832 90.3944 172.2 91.6104 172.2C92.9704 172.2 94.2984 171.496 94.2984 169.624V169.352L91.6104 169.736C90.3464 169.912 89.8824 170.168 89.8824 171.016ZM98.298 173H97.146V165.096H98.186V166.728H98.234C98.538 165.896 99.37 164.936 101.002 164.936C102.442 164.936 103.306 165.624 103.658 166.744H103.706C104.026 165.896 104.842 164.936 106.474 164.936C108.506 164.936 109.434 166.248 109.434 168.136V173H108.298V168.408C108.298 166.696 107.722 165.944 106.122 165.944C104.618 165.944 103.866 166.68 103.866 168.44V173H102.73V168.408C102.73 166.696 102.17 165.944 100.57 165.944C99.066 165.944 98.298 166.68 98.298 168.44V173ZM114.538 173.16C112.106 173.16 110.842 171.448 110.842 169.048C110.842 166.648 112.266 164.936 114.522 164.936C116.426 164.936 117.994 166.088 117.994 168.424C117.994 168.792 117.962 169.144 117.914 169.368H111.93C111.978 171.112 112.666 172.136 114.554 172.136C116.154 172.136 116.794 171.416 116.794 170.456V170.36H117.93V170.472C117.93 171.992 116.554 173.16 114.538 173.16ZM114.49 165.928C112.73 165.928 112.026 166.936 111.93 168.536H116.906C116.97 166.664 116.042 165.928 114.49 165.928Z" fill="#333333" fill-opacity="0.6"/>
<rect x="20.5" y="218.5" width="351" height="49" rx="21.5" stroke="#1E1E1E" stroke-opacity="0.15"/>
<path d="M41.9333 246.16C38.8933 246.16 37.0533 243.984 37.0533 240.64C37.0533 237.296 38.8933 235.12 41.9333 235.12C44.5573 235.12 46.3333 236.672 46.3333 239.104V239.232H45.1173V239.104C45.1173 237.216 44.1093 236.224 41.8693 236.224C39.3573 236.224 38.2533 237.664 38.2533 240.64C38.2533 243.616 39.3573 245.056 41.8693 245.056C44.1093 245.056 45.1173 244.064 45.1173 242.176V242.048H46.3333V242.176C46.3333 244.608 44.5573 246.16 41.9333 246.16ZM49.0402 246H47.8882V235.28H49.0402V246ZM51.9137 237.04H50.7777V235.28H51.9137V237.04ZM51.9137 246H50.7777V238H51.9137V246ZM56.9517 246.16C54.5197 246.16 53.2557 244.448 53.2557 242.048C53.2557 239.648 54.6797 237.936 56.9357 237.936C58.8397 237.936 60.4077 239.088 60.4077 241.424C60.4077 241.792 60.3757 242.144 60.3277 242.368H54.3437C54.3917 244.112 55.0797 245.136 56.9677 245.136C58.5677 245.136 59.2077 244.416 59.2077 243.456V243.36H60.3437V243.472C60.3437 244.992 58.9677 246.16 56.9517 246.16ZM56.9037 238.928C55.1437 238.928 54.4397 239.936 54.3437 241.536H59.3197C59.3837 239.664 58.4557 238.928 56.9037 238.928ZM63.0402 246H61.8882V238.096H62.9282V239.728H62.9762C63.2802 238.896 64.1762 237.936 65.8082 237.936C67.8402 237.936 68.7682 239.248 68.7682 241.152V246H67.6322V241.408C67.6322 239.696 67.0722 238.944 65.4562 238.944C63.8882 238.944 63.0402 239.68 63.0402 241.44V246ZM73.3482 246.016C71.8922 246.016 71.0442 245.44 71.0442 243.76V239.088H69.7162V238.096H71.0602L71.3322 236.08H72.1962V238.096H74.6922V239.088H72.1962V243.824C72.1962 244.752 72.6282 244.96 73.6522 244.96H74.6922V245.888C74.4202 245.936 73.9242 246.016 73.3482 246.016ZM86.1224 246H78.9064V235.28H86.1224V236.32H80.0424V240.08H85.8824V241.136H80.0424V244.96H86.1224V246ZM88.8058 246H87.6538V238.096H88.6938V239.728H88.7418C89.0458 238.896 89.8778 237.936 91.5098 237.936C92.9498 237.936 93.8138 238.624 94.1658 239.744H94.2138C94.5338 238.896 95.3498 237.936 96.9818 237.936C99.0138 237.936 99.9418 239.248 99.9418 241.136V246H98.8058V241.408C98.8058 239.696 98.2298 238.944 96.6298 238.944C95.1258 238.944 94.3738 239.68 94.3738 241.44V246H93.2378V241.408C93.2378 239.696 92.6778 238.944 91.0778 238.944C89.5738 238.944 88.8058 239.68 88.8058 241.44V246ZM103.829 246.16C102.389 246.16 101.301 245.424 101.301 244.096C101.301 242.72 102.325 242.112 104.053 241.872L106.837 241.488V240.912C106.837 239.52 106.245 238.96 104.757 238.96C103.317 238.96 102.645 239.52 102.645 240.784V241.024H101.541V240.896C101.541 239.248 102.805 237.936 104.853 237.936C106.965 237.936 107.925 239.296 107.925 241.056V246H106.885V244.544L106.805 244.528C106.341 245.44 105.333 246.16 103.829 246.16ZM102.421 244.016C102.421 244.832 102.933 245.2 104.149 245.2C105.509 245.2 106.837 244.496 106.837 242.624V242.352L104.149 242.736C102.885 242.912 102.421 243.168 102.421 244.016ZM110.773 237.04H109.637V235.28H110.773V237.04ZM110.773 246H109.637V238H110.773V246ZM113.665 246H112.513V235.28H113.665V246Z" fill="#333333" fill-opacity="0.6"/>
<rect x="20.5" y="291.5" width="351" height="49" rx="21.5" stroke="#1E1E1E" stroke-opacity="0.15"/>
<path d="M44.25 307.75H51.75V324.25H44.25V307.75Z" fill="#E6E7E8"/>
<path d="M39.75 307.75C37.2649 307.75 36 309.597 36 311.875V320.125C36 322.403 37.2649 324.25 39.75 324.25H44.25V307.75H39.75ZM56.25 307.75H51.75V324.25H56.25C58.7351 324.25 60 322.403 60 320.125V311.875C60 309.597 58.7351 307.75 56.25 307.75Z" fill="#128807"/>
<path d="M73.458 318.76H72.434V316.12H69.826V315.16H72.434V312.52H73.458V315.16H76.082V316.12H73.458V318.76ZM85.1969 321H77.7089V320.28C77.7089 318.28 78.9569 317.304 80.4449 316.472L82.1089 315.544C83.3889 314.84 83.9649 314.28 83.9649 313.192C83.9649 312.024 83.4849 311.176 81.4849 311.176C79.2609 311.176 78.7009 312.024 78.7009 313.736V313.928H77.5489V313.672C77.5489 311.736 78.7489 310.12 81.5489 310.12C84.0289 310.12 85.1169 311.48 85.1169 313.112C85.1169 314.792 83.9809 315.688 82.6049 316.456L80.9889 317.352C79.7569 318.04 78.8929 318.712 78.9089 319.96H85.1969V321ZM90.5634 321.16C87.6354 321.16 86.4994 319.656 86.4994 317.72V317.464H87.6354V317.672C87.6354 319.32 88.2434 320.104 90.5634 320.104C92.5474 320.104 93.2834 319.496 93.2834 318.024C93.2834 316.504 92.4994 315.896 90.7234 315.896H88.7874V314.92H90.4834C92.2274 314.92 92.9634 314.376 92.9634 313.064C92.9634 311.752 92.3074 311.176 90.4514 311.176C88.3074 311.176 87.6354 311.96 87.6354 313.608V313.752H86.4994V313.56C86.4994 311.624 87.7794 310.12 90.4674 310.12C92.7554 310.12 94.1154 311.112 94.1154 312.92C94.1154 314.136 93.4594 315.08 92.1154 315.32V315.384C93.6034 315.64 94.4354 316.632 94.4354 318.12C94.4354 320.104 92.9154 321.16 90.5634 321.16ZM102.663 321H101.511V318.616H95.2873V317.784L101.319 310.28H102.663V317.576H104.423V318.616H102.663V321ZM96.7593 317.576H101.511V311.72H101.431L96.7593 317.496V317.576Z" fill="#172A30" fill-opacity="0.6"/>
<path d="M123.512 321.16C120.84 321.16 119.08 319.08 119.08 315.64C119.08 312.2 120.84 310.12 123.512 310.12C126.2 310.12 127.944 312.2 127.944 315.64C127.944 319.08 126.2 321.16 123.512 321.16ZM123.512 320.056C125.624 320.056 126.744 318.712 126.744 315.64C126.744 312.568 125.624 311.224 123.512 311.224C121.416 311.224 120.296 312.568 120.296 315.64C120.296 318.712 121.416 320.056 123.512 320.056ZM133.821 321.16C131.565 321.16 130.045 319.88 130.045 317.816V317.72H131.245V317.816C131.245 319.032 131.773 320.056 133.885 320.056C136.285 320.056 136.765 318.712 136.765 315.848V314.952H136.685C136.269 316.04 135.197 316.92 133.277 316.92C130.909 316.92 129.597 315.592 129.597 313.56C129.597 311.464 131.053 310.12 133.629 310.12C136.765 310.12 137.933 311.816 137.933 315.64C137.933 318.904 136.925 321.16 133.821 321.16ZM133.597 315.928C135.613 315.928 136.525 315.096 136.525 313.576C136.525 312.008 135.597 311.224 133.597 311.224C131.517 311.224 130.717 311.992 130.717 313.592C130.717 315.144 131.485 315.928 133.597 315.928ZM143.981 321.16C141.309 321.16 139.549 319.08 139.549 315.64C139.549 312.2 141.309 310.12 143.981 310.12C146.669 310.12 148.413 312.2 148.413 315.64C148.413 319.08 146.669 321.16 143.981 321.16ZM143.981 320.056C146.093 320.056 147.213 318.712 147.213 315.64C147.213 312.568 146.093 311.224 143.981 311.224C141.885 311.224 140.765 312.568 140.765 315.64C140.765 318.712 141.885 320.056 143.981 320.056ZM154.59 321.16C151.918 321.16 150.158 319.08 150.158 315.64C150.158 312.2 151.918 310.12 154.59 310.12C157.278 310.12 159.022 312.2 159.022 315.64C159.022 319.08 157.278 321.16 154.59 321.16ZM154.59 320.056C156.702 320.056 157.822 318.712 157.822 315.64C157.822 312.568 156.702 311.224 154.59 311.224C152.494 311.224 151.374 312.568 151.374 315.64C151.374 318.712 152.494 320.056 154.59 320.056ZM165.2 321.16C162.528 321.16 160.768 319.08 160.768 315.64C160.768 312.2 162.528 310.12 165.2 310.12C167.888 310.12 169.632 312.2 169.632 315.64C169.632 319.08 167.888 321.16 165.2 321.16ZM165.2 320.056C167.312 320.056 168.432 318.712 168.432 315.64C168.432 312.568 167.312 311.224 165.2 311.224C163.104 311.224 161.984 312.568 161.984 315.64C161.984 318.712 163.104 320.056 165.2 320.056ZM175.809 321.16C173.137 321.16 171.377 319.08 171.377 315.64C171.377 312.2 173.137 310.12 175.809 310.12C178.497 310.12 180.241 312.2 180.241 315.64C180.241 319.08 178.497 321.16 175.809 321.16ZM175.809 320.056C177.921 320.056 179.041 318.712 179.041 315.64C179.041 312.568 177.921 311.224 175.809 311.224C173.713 311.224 172.593 312.568 172.593 315.64C172.593 318.712 173.713 320.056 175.809 320.056ZM186.418 321.16C183.746 321.16 181.986 319.08 181.986 315.64C181.986 312.2 183.746 310.12 186.418 310.12C189.106 310.12 190.85 312.2 190.85 315.64C190.85 319.08 189.106 321.16 186.418 321.16ZM186.418 320.056C188.53 320.056 189.65 318.712 189.65 315.64C189.65 312.568 188.53 311.224 186.418 311.224C184.322 311.224 183.202 312.568 183.202 315.64C183.202 318.712 184.322 320.056 186.418 320.056ZM197.028 321.16C194.356 321.16 192.596 319.08 192.596 315.64C192.596 312.2 194.356 310.12 197.028 310.12C199.716 310.12 201.46 312.2 201.46 315.64C201.46 319.08 199.716 321.16 197.028 321.16ZM197.028 320.056C199.14 320.056 200.26 318.712 200.26 315.64C200.26 312.568 199.14 311.224 197.028 311.224C194.932 311.224 193.812 312.568 193.812 315.64C193.812 318.712 194.932 320.056 197.028 320.056ZM207.637 321.16C204.965 321.16 203.205 319.08 203.205 315.64C203.205 312.2 204.965 310.12 207.637 310.12C210.325 310.12 212.069 312.2 212.069 315.64C212.069 319.08 210.325 321.16 207.637 321.16ZM207.637 320.056C209.749 320.056 210.869 318.712 210.869 315.64C210.869 312.568 209.749 311.224 207.637 311.224C205.541 311.224 204.421 312.568 204.421 315.64C204.421 318.712 205.541 320.056 207.637 320.056ZM218.247 321.16C215.575 321.16 213.815 319.08 213.815 315.64C213.815 312.2 215.575 310.12 218.247 310.12C220.935 310.12 222.679 312.2 222.679 315.64C222.679 319.08 220.935 321.16 218.247 321.16ZM218.247 320.056C220.359 320.056 221.479 318.712 221.479 315.64C221.479 312.568 220.359 311.224 218.247 311.224C216.151 311.224 215.031 312.568 215.031 315.64C215.031 318.712 216.151 320.056 218.247 320.056ZM228.856 321.16C226.184 321.16 224.424 319.08 224.424 315.64C224.424 312.2 226.184 310.12 228.856 310.12C231.544 310.12 233.288 312.2 233.288 315.64C233.288 319.08 231.544 321.16 228.856 321.16ZM228.856 320.056C230.968 320.056 232.088 318.712 232.088 315.64C232.088 312.568 230.968 311.224 228.856 311.224C226.76 311.224 225.64 312.568 225.64 315.64C225.64 318.712 226.76 320.056 228.856 320.056ZM239.465 321.16C236.793 321.16 235.033 319.08 235.033 315.64C235.033 312.2 236.793 310.12 239.465 310.12C242.153 310.12 243.897 312.2 243.897 315.64C243.897 319.08 242.153 321.16 239.465 321.16ZM239.465 320.056C241.577 320.056 242.697 318.712 242.697 315.64C242.697 312.568 241.577 311.224 239.465 311.224C237.369 311.224 236.249 312.568 236.249 315.64C236.249 318.712 237.369 320.056 239.465 320.056Z" fill="#333333" fill-opacity="0.6"/>
<rect x="20.5" y="364.5" width="351" height="49" rx="21.5" stroke="#1E1E1E" stroke-opacity="0.15"/>
<path d="M42.2184 392H40.6984L36.4904 381.28H37.7704L41.4504 390.72H41.5304L45.1784 381.28H46.4264L42.2184 392ZM49.9126 392.16C47.4806 392.16 46.2166 390.448 46.2166 388.048C46.2166 385.648 47.6406 383.936 49.8966 383.936C51.8006 383.936 53.3686 385.088 53.3686 387.424C53.3686 387.792 53.3366 388.144 53.2886 388.368H47.3046C47.3526 390.112 48.0406 391.136 49.9286 391.136C51.5286 391.136 52.1686 390.416 52.1686 389.456V389.36H53.3046V389.472C53.3046 390.992 51.9286 392.16 49.9126 392.16ZM49.8646 384.928C48.1046 384.928 47.4006 385.936 47.3046 387.536H52.2806C52.3446 385.664 51.4166 384.928 49.8646 384.928ZM56.0011 392H54.8491V384.096H55.8891V385.728H55.9371C56.2411 384.896 57.1371 383.936 58.7691 383.936C60.8011 383.936 61.7291 385.248 61.7291 387.152V392H60.5931V387.408C60.5931 385.696 60.0331 384.944 58.4171 384.944C56.8491 384.944 56.0011 385.68 56.0011 387.44V392ZM66.5949 392.16C64.3709 392.16 63.1229 390.544 63.1229 388.048C63.1229 385.552 64.3069 383.936 66.4669 383.936C67.9869 383.936 68.9629 384.736 69.2989 385.6V381.28H70.4509V392H69.4269V390.48H69.3629C69.0109 391.472 68.0829 392.16 66.5949 392.16ZM64.2749 388.048C64.2749 390.464 65.2189 391.168 66.7869 391.168C68.3549 391.168 69.2989 390.352 69.2989 388.736V387.376C69.2989 385.744 68.3549 384.928 66.7869 384.928C65.2349 384.928 64.2749 385.632 64.2749 388.048ZM75.6973 392.16C73.3773 392.16 71.8573 390.448 71.8573 388.048C71.8573 385.648 73.3773 383.936 75.6973 383.936C78.0013 383.936 79.4733 385.648 79.4733 388.048C79.4733 390.448 78.0013 392.16 75.6973 392.16ZM75.6973 391.136C77.6013 391.136 78.3533 390.016 78.3533 388.048C78.3533 386.08 77.6013 384.976 75.6973 384.976C73.7613 384.976 72.9933 386.08 72.9933 388.048C72.9933 390.016 73.7613 391.136 75.6973 391.136ZM82.0168 392H80.8648V384H81.9048V385.328H81.9848C82.2408 384.592 83.0088 383.936 84.1768 383.936C85.8088 383.936 86.4328 385.104 86.4328 386.464V386.912H85.2808V386.64C85.2808 385.408 84.8968 384.928 83.7608 384.928C82.5288 384.928 82.0168 385.488 82.0168 386.768V392ZM91.9409 392H90.8049V381.28H92.0369L96.8529 388.416L97.9889 390.096H98.0849V381.28H99.2369V392H97.9889L93.1409 384.864L92.0209 383.216H91.9409V392ZM103.29 392.16C101.85 392.16 100.762 391.424 100.762 390.096C100.762 388.72 101.786 388.112 103.514 387.872L106.298 387.488V386.912C106.298 385.52 105.706 384.96 104.218 384.96C102.778 384.96 102.106 385.52 102.106 386.784V387.024H101.002V386.896C101.002 385.248 102.266 383.936 104.314 383.936C106.426 383.936 107.386 385.296 107.386 387.056V392H106.346V390.544L106.266 390.528C105.802 391.44 104.794 392.16 103.29 392.16ZM101.882 390.016C101.882 390.832 102.394 391.2 103.61 391.2C104.97 391.2 106.298 390.496 106.298 388.624V388.352L103.61 388.736C102.346 388.912 101.882 389.168 101.882 390.016ZM110.298 392H109.146V384.096H110.186V385.728H110.234C110.538 384.896 111.37 383.936 113.002 383.936C114.442 383.936 115.306 384.624 115.658 385.744H115.706C116.026 384.896 116.842 383.936 118.474 383.936C120.506 383.936 121.434 385.248 121.434 387.136V392H120.298V387.408C120.298 385.696 119.722 384.944 118.122 384.944C116.618 384.944 115.866 385.68 115.866 387.44V392H114.73V387.408C114.73 385.696 114.17 384.944 112.57 384.944C111.066 384.944 110.298 385.68 110.298 387.44V392ZM126.538 392.16C124.106 392.16 122.842 390.448 122.842 388.048C122.842 385.648 124.266 383.936 126.522 383.936C128.426 383.936 129.994 385.088 129.994 387.424C129.994 387.792 129.962 388.144 129.914 388.368H123.93C123.978 390.112 124.666 391.136 126.554 391.136C128.154 391.136 128.794 390.416 128.794 389.456V389.36H129.93V389.472C129.93 390.992 128.554 392.16 126.538 392.16ZM126.49 384.928C124.73 384.928 124.026 385.936 123.93 387.536H128.906C128.97 385.664 128.042 384.928 126.49 384.928ZM138.041 392.56L137.449 393.152C136.041 391.808 134.409 389.76 134.409 386.64C134.409 383.52 136.041 381.472 137.449 380.128L138.041 380.72C136.665 382.256 135.641 383.728 135.641 386.64C135.641 389.552 136.665 391.024 138.041 392.56ZM146.707 392.16C143.763 392.16 141.811 389.984 141.811 386.64C141.811 383.296 143.763 381.12 146.707 381.12C149.635 381.12 151.587 383.296 151.587 386.64C151.587 389.984 149.635 392.16 146.707 392.16ZM146.707 391.056C149.219 391.056 150.387 389.616 150.387 386.64C150.387 383.664 149.219 382.224 146.707 382.224C144.195 382.224 143.011 383.664 143.011 386.64C143.011 389.616 144.195 391.056 146.707 391.056ZM154.236 394.784H153.084V384.096H154.124V385.632H154.172C154.524 384.624 155.468 383.936 156.956 383.936C159.18 383.936 160.411 385.552 160.411 388.064C160.411 390.544 159.244 392.16 157.084 392.16C155.564 392.16 154.588 391.36 154.236 390.496V394.784ZM154.236 388.736C154.236 390.352 155.196 391.168 156.764 391.168C158.3 391.168 159.26 390.464 159.26 388.064C159.26 385.632 158.316 384.928 156.764 384.928C155.196 384.928 154.236 385.744 154.236 387.376V388.736ZM164.684 392.016C163.228 392.016 162.38 391.44 162.38 389.76V385.088H161.052V384.096H162.396L162.668 382.08H163.532V384.096H166.028V385.088H163.532V389.824C163.532 390.752 163.964 390.96 164.988 390.96H166.028V391.888C165.756 391.936 165.26 392.016 164.684 392.016ZM168.172 383.04H167.036V381.28H168.172V383.04ZM168.172 392H167.036V384H168.172V392ZM173.354 392.16C171.034 392.16 169.514 390.448 169.514 388.048C169.514 385.648 171.034 383.936 173.354 383.936C175.658 383.936 177.13 385.648 177.13 388.048C177.13 390.448 175.658 392.16 173.354 392.16ZM173.354 391.136C175.258 391.136 176.01 390.016 176.01 388.048C176.01 386.08 175.258 384.976 173.354 384.976C171.418 384.976 170.65 386.08 170.65 388.048C170.65 390.016 171.418 391.136 173.354 391.136ZM179.673 392H178.521V384.096H179.561V385.728H179.609C179.913 384.896 180.809 383.936 182.441 383.936C184.473 383.936 185.401 385.248 185.401 387.152V392H184.265V387.408C184.265 385.696 183.705 384.944 182.089 384.944C180.521 384.944 179.673 385.68 179.673 387.44V392ZM189.275 392.16C187.835 392.16 186.747 391.424 186.747 390.096C186.747 388.72 187.771 388.112 189.499 387.872L192.283 387.488V386.912C192.283 385.52 191.691 384.96 190.203 384.96C188.763 384.96 188.091 385.52 188.091 386.784V387.024H186.987V386.896C186.987 385.248 188.251 383.936 190.299 383.936C192.411 383.936 193.371 385.296 193.371 387.056V392H192.331V390.544L192.251 390.528C191.787 391.44 190.779 392.16 189.275 392.16ZM187.867 390.016C187.867 390.832 188.379 391.2 189.595 391.2C190.955 391.2 192.283 390.496 192.283 388.624V388.352L189.595 388.736C188.331 388.912 187.867 389.168 187.867 390.016ZM196.282 392H195.13V381.28H196.282V392ZM200.285 380.72L200.877 380.128C202.285 381.472 203.917 383.52 203.917 386.64C203.917 389.76 202.285 391.808 200.877 393.152L200.285 392.56C201.661 391.024 202.685 389.552 202.685 386.64C202.685 383.728 201.661 382.256 200.285 380.72Z" fill="#333333" fill-opacity="0.6"/>
<path d="M28.7974 32.2563C27.8306 32.2563 27.0078 31.9951 26.3291 31.4727C25.6504 30.9453 25.2329 30.2471 25.0767 29.3779H26.959C27.0811 29.7783 27.3057 30.0957 27.6328 30.3301C27.9648 30.5596 28.3579 30.6743 28.812 30.6743C29.5835 30.6743 30.1865 30.335 30.6211 29.6562C31.0557 28.9727 31.2729 28.0254 31.2729 26.8145H31.207H31.1704H31.1484C30.8994 27.3174 30.5356 27.708 30.0571 27.9863C29.5786 28.2598 29.0293 28.3965 28.4092 28.3965C27.4033 28.3965 26.5708 28.0645 25.9116 27.4004C25.2573 26.7363 24.9302 25.8965 24.9302 24.8809C24.9302 23.7969 25.2964 22.9082 26.0288 22.2148C26.7661 21.5166 27.7085 21.1675 28.856 21.1675C29.6274 21.1675 30.311 21.3457 30.9067 21.7021C31.5024 22.0586 31.9785 22.5762 32.335 23.2549C32.833 24.1387 33.082 25.252 33.082 26.5947C33.082 28.3721 32.7036 29.7612 31.9468 30.7622C31.1899 31.7583 30.1401 32.2563 28.7974 32.2563ZM27.3691 26.3164C27.7598 26.7021 28.2578 26.895 28.8633 26.895C29.4688 26.895 29.9692 26.7021 30.3647 26.3164C30.7603 25.9307 30.958 25.4424 30.958 24.8516C30.958 24.2559 30.7578 23.7554 30.3574 23.3501C29.957 22.9448 29.4614 22.7422 28.8706 22.7422C28.2798 22.7422 27.7842 22.9424 27.3838 23.3428C26.9834 23.7383 26.7832 24.2314 26.7832 24.8223C26.7832 25.4277 26.9785 25.9258 27.3691 26.3164ZM36.0799 30.8794C35.7381 30.8794 35.4573 30.7695 35.2376 30.5498C35.0179 30.3301 34.908 30.0542 34.908 29.7222C34.908 29.3853 35.0179 29.1094 35.2376 28.8945C35.4573 28.6748 35.7381 28.5649 36.0799 28.5649C36.4266 28.5649 36.7073 28.6748 36.9222 28.8945C37.1419 29.1094 37.2518 29.3853 37.2518 29.7222C37.2518 30.0542 37.1419 30.3301 36.9222 30.5498C36.7073 30.7695 36.4266 30.8794 36.0799 30.8794ZM36.0799 25.3862C35.7381 25.3862 35.4573 25.2788 35.2376 25.064C35.0179 24.8442 34.908 24.5684 34.908 24.2363C34.908 23.8994 35.0179 23.6235 35.2376 23.4087C35.4573 23.189 35.7381 23.0791 36.0799 23.0791C36.4266 23.0791 36.7073 23.189 36.9222 23.4087C37.1419 23.6235 37.2518 23.8994 37.2518 24.2363C37.2518 24.5684 37.1419 24.8442 36.9222 25.064C36.7073 25.2788 36.4266 25.3862 36.0799 25.3862ZM44.234 32V30.0298H39.0704V28.3452C39.9298 26.7632 41.3654 24.4585 43.3771 21.4312H46.0431V28.4331H47.4713V30.0298H46.0431V32H44.234ZM40.8209 28.3672V28.4771H44.2633V22.9692H44.1608C43.0182 24.6587 41.9049 26.458 40.8209 28.3672ZM51.4799 32V23.3354H51.3554L48.726 25.1812V23.3647L51.4873 21.4312H53.3696V32H51.4799Z" fill="#333333"/>
<path fill-rule="evenodd" clip-rule="evenodd" d="M321 21.5H320C319.448 21.5 319 21.9477 319 22.5V31.1667C319 31.719 319.448 32.1667 320 32.1667H321C321.552 32.1667 322 31.719 322 31.1667V22.5C322 21.9477 321.552 21.5 321 21.5ZM315.333 23.8333H316.333C316.886 23.8333 317.333 24.281 317.333 24.8333V31.1667C317.333 31.719 316.886 32.1667 316.333 32.1667H315.333C314.781 32.1667 314.333 31.719 314.333 31.1667V24.8333C314.333 24.281 314.781 23.8333 315.333 23.8333ZM311.667 26.1667H310.667C310.114 26.1667 309.667 26.6144 309.667 27.1667V31.1667C309.667 31.719 310.114 32.1667 310.667 32.1667H311.667C312.219 32.1667 312.667 31.719 312.667 31.1667V27.1667C312.667 26.6144 312.219 26.1667 311.667 26.1667ZM307 28.1667H306C305.448 28.1667 305 28.6144 305 29.1667V31.1667C305 31.719 305.448 32.1667 306 32.1667H307C307.552 32.1667 308 31.719 308 31.1667V29.1667C308 28.6144 307.552 28.1667 307 28.1667Z" fill="#333333"/>
<path fill-rule="evenodd" clip-rule="evenodd" d="M339.94 26.1557C338.334 24.6289 336.203 23.7774 333.987 23.7773C331.771 23.7773 329.639 24.6288 328.033 26.1557C327.912 26.2737 327.719 26.2722 327.6 26.1523L326.443 24.9857C326.383 24.9249 326.35 24.8426 326.35 24.757C326.351 24.6715 326.385 24.5896 326.446 24.5297C330.661 20.4901 337.311 20.4901 341.526 24.5297C341.587 24.5897 341.622 24.6715 341.622 24.7571C341.623 24.8427 341.589 24.9249 341.529 24.9857L340.373 26.1523C340.254 26.272 340.061 26.2735 339.94 26.1557ZM333.987 27.573C335.204 27.5729 336.378 28.0254 337.281 28.8427C337.403 28.9586 337.595 28.9561 337.714 28.837L338.869 27.6703C338.93 27.6091 338.963 27.5261 338.962 27.4398C338.962 27.3536 338.926 27.2713 338.864 27.2113C336.116 24.6549 331.86 24.6549 329.112 27.2113C329.05 27.2713 329.014 27.3536 329.013 27.4399C329.013 27.5262 329.046 27.6092 329.107 27.6703L330.262 28.837C330.381 28.9561 330.573 28.9586 330.695 28.8427C331.597 28.026 332.77 27.5735 333.987 27.573ZM336.206 30.3573C336.267 30.2967 336.301 30.2133 336.3 30.1268C336.298 30.0403 336.261 29.9584 336.196 29.9003C334.921 28.8214 333.053 28.8214 331.777 29.9003C331.713 29.9583 331.675 30.0402 331.674 30.1267C331.672 30.2132 331.706 30.2967 331.767 30.3573L333.765 32.373C333.824 32.4322 333.903 32.4656 333.987 32.4656C334.07 32.4656 334.15 32.4322 334.208 32.373L336.206 30.3573Z" fill="#333333"/>
<g clip-path="url(#clip0_3824_1721)">
<path opacity="0.35" d="M345.5 23.1667C345.5 21.97 346.47 21 347.667 21H364.333C365.53 21 366.5 21.97 366.5 23.1667V29.1667C366.5 30.3633 365.53 31.3333 364.333 31.3333H347.667C346.47 31.3333 345.5 30.3633 345.5 29.1667V23.1667Z" stroke="#333333"/>
<path opacity="0.4" d="M368 24.1667V28.1667C368.805 27.8279 369.328 27.0398 369.328 26.1667C369.328 25.2936 368.805 24.5055 368 24.1667Z" fill="#333333"/>
<path d="M347 23.8333C347 23.097 347.597 22.5 348.333 22.5H363.667C364.403 22.5 365 23.097 365 23.8333V28.5C365 29.2364 364.403 29.8333 363.667 29.8333H348.333C347.597 29.8333 347 29.2364 347 28.5V23.8333Z" fill="#333333"/>
</g>
<defs>
<clipPath id="clip0_3824_1721">
<rect width="25" height="16" fill="white" transform="translate(344 18.5)"/>
</clipPath>
</defs>
</svg>
