<svg width="357" height="317" viewBox="0 0 357 317" fill="none" xmlns="http://www.w3.org/2000/svg">
<g clip-path="url(#clip0_3824_1658)">
<g clip-path="url(#clip1_3824_1658)">
<g clip-path="url(#clip2_3824_1658)">
<path d="M314.404 0.293457H42.1517C19.2309 0.293457 0.649902 16.2698 0.649902 35.9776V304.323C0.649902 324.03 19.2309 340.007 42.1517 340.007H314.404C337.324 340.007 355.906 324.03 355.906 304.323V35.9776C355.906 16.2698 337.324 0.293457 314.404 0.293457Z" fill="white"/>
<path d="M195.553 104.598C195.553 95.4293 188.12 87.9968 178.952 87.9968C169.783 87.9968 162.351 95.4293 162.351 104.598C162.351 113.766 169.783 121.198 178.952 121.198C188.12 121.198 195.553 113.766 195.553 104.598Z" fill="#EEEBF4"/>
<path d="M185.402 111.861V110.247C185.402 109.39 185.061 108.569 184.456 107.964C183.851 107.358 183.03 107.019 182.174 107.019H175.719C174.862 107.019 174.042 107.358 173.435 107.964C172.83 108.569 172.491 109.39 172.491 110.247V111.861M182.174 100.563C182.174 102.346 180.729 103.791 178.945 103.791C177.164 103.791 175.719 102.346 175.719 100.563C175.719 98.78 177.164 97.3348 178.945 97.3348C180.729 97.3348 182.174 98.78 182.174 100.563Z" stroke="#7436F5" stroke-width="2.15691" stroke-linecap="round" stroke-linejoin="round"/>
<path d="M137.201 129.395V128.141H144.675V129.395H141.662V137.8H140.21V129.395H137.201ZM147.624 133.498V137.8H146.214V128.141H147.606V131.734H147.695C147.866 131.344 148.124 131.034 148.474 130.805C148.822 130.575 149.278 130.461 149.84 130.461C150.337 130.461 150.771 130.563 151.142 130.767C151.516 130.972 151.806 131.277 152.01 131.683C152.218 132.085 152.322 132.589 152.322 133.191V137.8H150.911V133.361C150.911 132.83 150.774 132.418 150.501 132.126C150.227 131.83 149.848 131.683 149.36 131.683C149.026 131.683 148.727 131.753 148.464 131.894C148.203 132.036 147.997 132.243 147.846 132.516C147.698 132.787 147.624 133.115 147.624 133.498ZM157.255 137.945C156.575 137.945 155.983 137.79 155.476 137.478C154.97 137.168 154.578 136.732 154.298 136.172C154.017 135.613 153.878 134.959 153.878 134.211C153.878 133.459 154.017 132.801 154.298 132.239C154.578 131.676 154.97 131.239 155.476 130.928C155.983 130.617 156.575 130.461 157.255 130.461C157.934 130.461 158.526 130.617 159.033 130.928C159.539 131.239 159.931 131.676 160.212 132.239C160.492 132.801 160.631 133.459 160.631 134.211C160.631 134.959 160.492 135.613 160.212 136.172C159.931 136.732 159.539 137.168 159.033 137.478C158.526 137.79 157.934 137.945 157.255 137.945ZM157.26 136.761C157.7 136.761 158.063 136.646 158.353 136.413C158.643 136.18 158.856 135.87 158.995 135.483C159.136 135.097 159.207 134.671 159.207 134.205C159.207 133.744 159.136 133.319 158.995 132.931C158.856 132.542 158.643 132.229 158.353 131.994C158.063 131.758 157.7 131.641 157.26 131.641C156.817 131.641 156.448 131.758 156.156 131.994C155.867 132.229 155.651 132.542 155.51 132.931C155.372 133.319 155.303 133.744 155.303 134.205C155.303 134.671 155.372 135.097 155.51 135.483C155.651 135.87 155.867 136.18 156.156 136.413C156.448 136.646 156.817 136.761 157.26 136.761ZM162.206 137.8V130.556H163.559V131.734H163.649C163.8 131.334 164.046 131.024 164.389 130.8C164.731 130.574 165.141 130.461 165.62 130.461C166.104 130.461 166.51 130.574 166.837 130.8C167.167 131.027 167.41 131.339 167.568 131.734H167.643C167.816 131.347 168.091 131.04 168.468 130.81C168.846 130.577 169.295 130.461 169.817 130.461C170.474 130.461 171.01 130.667 171.425 131.079C171.843 131.491 172.052 132.112 172.052 132.942V137.8H170.642V133.074C170.642 132.583 170.509 132.228 170.241 132.008C169.974 131.788 169.656 131.677 169.285 131.677C168.825 131.677 168.468 131.819 168.214 132.102C167.958 132.381 167.832 132.742 167.832 133.183V137.8H166.427V132.984C166.427 132.591 166.304 132.276 166.059 132.036C165.813 131.797 165.494 131.677 165.101 131.677C164.834 131.677 164.587 131.748 164.36 131.89C164.137 132.028 163.956 132.221 163.818 132.47C163.683 132.719 163.615 133.006 163.615 133.333V137.8H162.206ZM176.051 137.959C175.592 137.959 175.176 137.875 174.805 137.705C174.434 137.532 174.141 137.282 173.923 136.955C173.71 136.628 173.603 136.227 173.603 135.753C173.603 135.344 173.682 135.006 173.839 134.743C173.996 134.479 174.208 134.27 174.475 134.116C174.743 133.961 175.042 133.846 175.372 133.767C175.702 133.687 176.038 133.628 176.381 133.587C176.814 133.538 177.167 133.497 177.437 133.464C177.707 133.431 177.904 133.375 178.027 133.3C178.15 133.225 178.21 133.102 178.21 132.931V132.899C178.21 132.487 178.095 132.168 177.862 131.941C177.632 131.715 177.289 131.602 176.834 131.602C176.358 131.602 175.984 131.707 175.711 131.919C175.441 132.126 175.254 132.357 175.15 132.611L173.825 132.309C173.982 131.869 174.211 131.514 174.513 131.244C174.818 130.971 175.169 130.772 175.566 130.649C175.961 130.524 176.378 130.461 176.814 130.461C177.105 130.461 177.411 130.495 177.734 130.564C178.061 130.631 178.366 130.753 178.65 130.932C178.935 131.111 179.17 131.368 179.352 131.701C179.534 132.031 179.626 132.46 179.626 132.989V137.8H178.249V136.809H178.192C178.101 136.992 177.964 137.17 177.782 137.347C177.599 137.522 177.364 137.669 177.079 137.785C176.793 137.901 176.45 137.959 176.051 137.959ZM176.357 136.828C176.748 136.828 177.08 136.75 177.357 136.596C177.637 136.443 177.85 136.241 177.994 135.993C178.142 135.742 178.215 135.472 178.215 135.187V134.253C178.165 134.303 178.068 134.351 177.923 134.394C177.782 134.435 177.619 134.472 177.437 134.503C177.256 134.531 177.078 134.558 176.904 134.583C176.731 134.605 176.587 134.624 176.47 134.639C176.197 134.674 175.947 134.733 175.721 134.813C175.497 134.895 175.318 135.014 175.183 135.168C175.05 135.318 174.985 135.52 174.985 135.771C174.985 136.12 175.114 136.384 175.372 136.564C175.629 136.74 175.958 136.828 176.357 136.828ZM186.931 132.323L185.655 132.55C185.601 132.387 185.515 132.232 185.399 132.084C185.286 131.936 185.133 131.814 184.937 131.72C184.742 131.625 184.498 131.579 184.206 131.579C183.806 131.579 183.474 131.669 183.206 131.848C182.939 132.023 182.805 132.251 182.805 132.531C182.805 132.773 182.895 132.968 183.075 133.116C183.254 133.264 183.543 133.386 183.942 133.479L185.093 133.744C185.759 133.897 186.256 134.135 186.583 134.455C186.91 134.776 187.074 135.193 187.074 135.705C187.074 136.139 186.948 136.526 186.696 136.866C186.448 137.201 186.1 137.465 185.655 137.658C185.21 137.85 184.697 137.945 184.112 137.945C183.3 137.945 182.639 137.773 182.127 137.426C181.614 137.078 181.299 136.582 181.183 135.94L182.545 135.733C182.632 136.088 182.805 136.358 183.07 136.54C183.334 136.719 183.678 136.809 184.102 136.809C184.564 136.809 184.934 136.713 185.21 136.521C185.487 136.325 185.625 136.088 185.625 135.809C185.625 135.583 185.54 135.393 185.371 135.238C185.205 135.084 184.948 134.968 184.602 134.889L183.376 134.62C182.701 134.466 182.2 134.221 181.876 133.885C181.555 133.548 181.396 133.122 181.396 132.607C181.396 132.179 181.514 131.805 181.754 131.484C181.993 131.164 182.322 130.914 182.744 130.735C183.166 130.552 183.648 130.461 184.192 130.461C184.974 130.461 185.591 130.631 186.041 130.971C186.49 131.306 186.787 131.758 186.931 132.323ZM192.251 137.8V128.141H193.708V132.752H193.827L197.878 128.141H199.712L195.817 132.488L199.726 137.8H197.972L194.851 133.484L193.708 134.795V137.8H192.251ZM203.548 137.945C202.834 137.945 202.22 137.792 201.704 137.488C201.192 137.18 200.795 136.747 200.516 136.191C200.239 135.631 200.1 134.975 200.1 134.225C200.1 133.483 200.239 132.828 200.516 132.263C200.795 131.697 201.185 131.256 201.685 130.937C202.188 130.619 202.776 130.461 203.449 130.461C203.858 130.461 204.254 130.529 204.638 130.664C205.02 130.798 205.365 131.011 205.671 131.3C205.975 131.59 206.216 131.965 206.392 132.427C206.568 132.886 206.656 133.445 206.656 134.102V134.602H200.897V133.545H205.274C205.274 133.174 205.198 132.845 205.048 132.56C204.897 132.27 204.685 132.042 204.411 131.876C204.14 131.71 203.823 131.625 203.459 131.625C203.063 131.625 202.717 131.724 202.421 131.919C202.129 132.11 201.903 132.362 201.742 132.673C201.584 132.981 201.507 133.315 201.507 133.677V134.503C201.507 134.987 201.591 135.399 201.76 135.739C201.934 136.077 202.173 136.337 202.483 136.516C202.79 136.693 203.15 136.78 203.562 136.78C203.83 136.78 204.072 136.743 204.294 136.667C204.514 136.589 204.703 136.473 204.864 136.319C205.024 136.164 205.147 135.974 205.232 135.747L206.566 135.988C206.459 136.381 206.267 136.725 205.991 137.021C205.717 137.313 205.373 137.541 204.959 137.705C204.546 137.865 204.076 137.945 203.548 137.945ZM209.631 128.141V137.8H208.22V128.141H209.631ZM212.937 128.141V137.8H211.528V128.141H212.937ZM220.263 132.323L218.985 132.55C218.931 132.387 218.846 132.232 218.731 132.084C218.618 131.936 218.463 131.814 218.268 131.72C218.073 131.625 217.83 131.579 217.537 131.579C217.138 131.579 216.805 131.669 216.537 131.848C216.27 132.023 216.136 132.251 216.136 132.531C216.136 132.773 216.227 132.968 216.406 133.116C216.585 133.264 216.874 133.386 217.273 133.479L218.425 133.744C219.091 133.897 219.587 134.135 219.914 134.455C220.241 134.776 220.405 135.193 220.405 135.705C220.405 136.139 220.279 136.526 220.027 136.866C219.779 137.201 219.432 137.465 218.985 137.658C218.542 137.85 218.028 137.945 217.443 137.945C216.632 137.945 215.97 137.773 215.458 137.426C214.944 137.078 214.63 136.582 214.514 135.94L215.877 135.733C215.962 136.088 216.136 136.358 216.4 136.54C216.664 136.719 217.008 136.809 217.433 136.809C217.895 136.809 218.265 136.713 218.542 136.521C218.818 136.325 218.957 136.088 218.957 135.809C218.957 135.583 218.871 135.393 218.702 135.238C218.536 135.084 218.279 134.968 217.934 134.889L216.707 134.62C216.031 134.466 215.531 134.221 215.207 133.885C214.886 133.548 214.726 133.122 214.726 132.607C214.726 132.179 214.846 131.805 215.085 131.484C215.324 131.164 215.654 130.914 216.076 130.735C216.497 130.552 216.979 130.461 217.523 130.461C218.306 130.461 218.922 130.631 219.372 130.971C219.821 131.306 220.119 131.758 220.263 132.323Z" fill="#344054"/>
<path d="M150.209 153.668C149.676 153.668 149.222 153.524 148.847 153.233C148.473 152.941 148.186 152.518 147.987 151.964C147.789 151.408 147.691 150.735 147.691 149.947C147.691 149.164 147.789 148.497 147.987 147.943C148.188 147.386 148.476 146.961 148.851 146.669C149.227 146.374 149.68 146.227 150.209 146.227C150.736 146.227 151.188 146.374 151.563 146.669C151.941 146.961 152.228 147.386 152.426 147.943C152.627 148.497 152.727 149.164 152.727 149.947C152.727 150.735 152.628 151.408 152.429 151.964C152.232 152.518 151.945 152.941 151.571 153.233C151.196 153.524 150.742 153.668 150.209 153.668ZM150.209 152.89C150.736 152.89 151.147 152.636 151.439 152.126C151.732 151.618 151.878 150.891 151.878 149.947C151.878 149.321 151.81 148.786 151.677 148.346C151.544 147.905 151.353 147.568 151.104 147.336C150.856 147.107 150.557 146.991 150.209 146.991C149.685 146.991 149.276 147.249 148.982 147.766C148.686 148.279 148.539 149.007 148.539 149.947C148.539 150.575 148.605 151.108 148.737 151.546C148.869 151.986 149.059 152.319 149.306 152.548C149.556 152.776 149.857 152.89 150.209 152.89ZM156.618 146.326V153.57H155.741V147.246H155.698L153.93 148.419V147.528L155.741 146.326H156.618ZM158.702 153.57V152.933L161.093 150.316C161.373 150.009 161.604 149.742 161.785 149.516C161.967 149.287 162.101 149.073 162.188 148.872C162.278 148.671 162.323 148.458 162.323 148.236C162.323 147.981 162.262 147.76 162.14 147.575C162.019 147.388 161.854 147.244 161.644 147.142C161.435 147.041 161.198 146.991 160.937 146.991C160.658 146.991 160.415 147.049 160.208 147.164C160.003 147.277 159.844 147.437 159.731 147.642C159.619 147.847 159.564 148.087 159.564 148.363H158.73C158.73 147.938 158.828 147.566 159.023 147.246C159.218 146.924 159.486 146.674 159.822 146.495C160.162 146.316 160.543 146.227 160.965 146.227C161.389 146.227 161.766 146.316 162.093 146.495C162.421 146.674 162.678 146.916 162.865 147.221C163.051 147.524 163.144 147.863 163.144 148.236C163.144 148.502 163.096 148.763 162.998 149.018C162.904 149.27 162.739 149.552 162.504 149.863C162.27 150.172 161.947 150.549 161.532 150.995L159.903 152.735V152.791H163.271V153.57H158.702ZM167.179 153.668C166.714 153.668 166.296 153.589 165.932 153.429C165.568 153.268 165.279 153.045 165.065 152.76C164.852 152.472 164.737 152.139 164.717 151.758H165.609C165.629 151.992 165.708 152.194 165.85 152.363C165.991 152.531 166.176 152.661 166.405 152.752C166.634 152.844 166.887 152.89 167.165 152.89C167.477 152.89 167.752 152.835 167.993 152.728C168.234 152.62 168.422 152.468 168.559 152.275C168.696 152.082 168.764 151.858 168.764 151.603C168.764 151.336 168.699 151.102 168.566 150.9C168.434 150.695 168.241 150.533 167.986 150.418C167.732 150.302 167.42 150.245 167.052 150.245H166.472V149.466H167.052C167.34 149.466 167.592 149.415 167.809 149.311C168.029 149.208 168.2 149.061 168.322 148.872C168.447 148.685 168.509 148.462 168.509 148.208C168.509 147.962 168.455 147.748 168.346 147.567C168.238 147.386 168.085 147.244 167.887 147.142C167.692 147.041 167.46 146.991 167.193 146.991C166.944 146.991 166.708 147.037 166.487 147.128C166.267 147.218 166.088 147.349 165.949 147.521C165.81 147.691 165.734 147.896 165.722 148.137H164.874C164.888 147.757 165.002 147.425 165.217 147.139C165.431 146.851 165.712 146.627 166.058 146.467C166.407 146.307 166.79 146.227 167.207 146.227C167.656 146.227 168.04 146.317 168.36 146.5C168.682 146.678 168.929 146.915 169.1 147.21C169.273 147.505 169.359 147.823 169.359 148.166C169.359 148.572 169.251 148.921 169.037 149.209C168.825 149.496 168.536 149.695 168.169 149.806V149.863C168.627 149.939 168.985 150.133 169.241 150.447C169.499 150.757 169.628 151.143 169.628 151.603C169.628 151.996 169.521 152.35 169.305 152.664C169.093 152.976 168.804 153.222 168.436 153.4C168.068 153.579 167.649 153.668 167.179 153.668ZM173.522 153.668C173.055 153.668 172.639 153.589 172.273 153.429C171.91 153.268 171.622 153.045 171.406 152.76C171.195 152.472 171.078 152.139 171.06 151.758H171.952C171.97 151.992 172.051 152.194 172.191 152.363C172.333 152.531 172.519 152.661 172.746 152.752C172.976 152.844 173.228 152.89 173.508 152.89C173.819 152.89 174.094 152.835 174.335 152.728C174.577 152.62 174.764 152.468 174.901 152.275C175.038 152.082 175.106 151.858 175.106 151.603C175.106 151.336 175.04 151.102 174.908 150.9C174.776 150.695 174.583 150.533 174.327 150.418C174.073 150.302 173.762 150.245 173.395 150.245H172.814V149.466H173.395C173.683 149.466 173.935 149.415 174.152 149.311C174.371 149.208 174.541 149.061 174.664 148.872C174.789 148.685 174.852 148.462 174.852 148.208C174.852 147.962 174.798 147.748 174.689 147.567C174.58 147.386 174.428 147.244 174.229 147.142C174.033 147.041 173.802 146.991 173.536 146.991C173.287 146.991 173.049 147.037 172.828 147.128C172.609 147.218 172.429 147.349 172.291 147.521C172.151 147.691 172.076 147.896 172.065 148.137H171.215C171.229 147.757 171.344 147.425 171.559 147.139C171.773 146.851 172.054 146.627 172.4 146.467C172.75 146.307 173.133 146.227 173.55 146.227C173.999 146.227 174.382 146.317 174.703 146.5C175.023 146.678 175.27 146.915 175.443 147.21C175.614 147.505 175.7 147.823 175.7 148.166C175.7 148.572 175.592 148.921 175.379 149.209C175.166 149.496 174.877 149.695 174.512 149.806V149.863C174.969 149.939 175.326 150.133 175.584 150.447C175.842 150.757 175.97 151.143 175.97 151.603C175.97 151.996 175.862 152.35 175.647 152.664C175.435 152.976 175.146 153.222 174.777 153.4C174.409 153.579 173.991 153.668 173.522 153.668ZM177.247 152.084V151.362L180.429 146.326H180.953V147.443H180.6L178.195 151.25V151.306H182.482V152.084H177.247ZM180.656 153.57V151.865V151.528V146.326H181.491V153.57H180.656ZM186.071 153.668C185.656 153.668 185.282 153.586 184.949 153.421C184.616 153.256 184.35 153.03 184.15 152.742C183.949 152.454 183.839 152.126 183.821 151.758H184.67C184.702 152.086 184.851 152.358 185.115 152.572C185.382 152.785 185.701 152.89 186.071 152.89C186.367 152.89 186.632 152.821 186.862 152.681C187.096 152.543 187.279 152.352 187.411 152.109C187.545 151.864 187.613 151.587 187.613 151.278C187.613 150.962 187.543 150.68 187.404 150.433C187.268 150.182 187.078 149.985 186.839 149.842C186.597 149.697 186.323 149.625 186.014 149.622C185.792 149.62 185.565 149.654 185.331 149.725C185.098 149.793 184.905 149.882 184.755 149.991L183.934 149.891L184.372 146.326H188.136V147.104H185.109L184.853 149.24H184.896C185.044 149.122 185.232 149.024 185.455 148.947C185.678 148.869 185.913 148.83 186.155 148.83C186.598 148.83 186.994 148.937 187.34 149.148C187.689 149.359 187.963 149.647 188.161 150.011C188.361 150.377 188.462 150.794 188.462 151.264C188.462 151.726 188.358 152.139 188.151 152.501C187.945 152.862 187.663 153.147 187.301 153.357C186.94 153.565 186.53 153.668 186.071 153.668ZM192.272 153.668C191.974 153.665 191.678 153.607 191.38 153.499C191.083 153.391 190.813 153.208 190.567 152.951C190.322 152.692 190.125 152.342 189.977 151.9C189.828 151.457 189.754 150.901 189.754 150.23C189.754 149.589 189.813 149.021 189.934 148.526C190.053 148.029 190.228 147.61 190.457 147.271C190.687 146.929 190.962 146.669 191.285 146.492C191.61 146.315 191.977 146.227 192.385 146.227C192.791 146.227 193.152 146.308 193.467 146.47C193.786 146.631 194.046 146.855 194.245 147.142C194.446 147.43 194.575 147.762 194.635 148.137H193.772C193.691 147.811 193.536 147.541 193.304 147.327C193.073 147.112 192.767 147.005 192.385 147.005C191.823 147.005 191.382 147.249 191.059 147.737C190.738 148.225 190.577 148.91 190.574 149.792H190.63C190.763 149.591 190.919 149.42 191.102 149.279C191.285 149.135 191.488 149.024 191.71 148.947C191.931 148.869 192.165 148.83 192.413 148.83C192.828 148.83 193.208 148.934 193.552 149.142C193.897 149.347 194.172 149.63 194.38 149.994C194.587 150.354 194.691 150.768 194.691 151.236C194.691 151.683 194.591 152.094 194.391 152.466C194.19 152.835 193.909 153.131 193.544 153.351C193.184 153.567 192.759 153.673 192.272 153.668ZM192.272 152.89C192.568 152.89 192.835 152.816 193.071 152.667C193.309 152.518 193.497 152.32 193.634 152.07C193.772 151.82 193.842 151.542 193.842 151.236C193.842 150.936 193.775 150.663 193.64 150.418C193.509 150.171 193.325 149.974 193.093 149.827C192.861 149.681 192.598 149.608 192.3 149.608C192.076 149.608 191.867 149.653 191.674 149.742C191.48 149.83 191.311 149.95 191.164 150.104C191.021 150.257 190.908 150.433 190.825 150.63C190.743 150.826 190.702 151.032 190.702 151.25C190.702 151.537 190.768 151.806 190.903 152.056C191.04 152.306 191.226 152.508 191.462 152.661C191.7 152.814 191.97 152.89 192.272 152.89ZM196.308 153.57L199.548 147.161V147.104H195.813V146.326H200.454V147.146L197.227 153.57H196.308ZM203.947 153.668C203.462 153.668 203.033 153.583 202.66 153.41C202.29 153.236 202.001 152.997 201.794 152.692C201.585 152.386 201.483 152.036 201.485 151.646C201.483 151.339 201.543 151.056 201.665 150.796C201.788 150.535 201.955 150.317 202.168 150.143C202.382 149.966 202.622 149.854 202.885 149.806V149.764C202.539 149.675 202.263 149.479 202.058 149.181C201.853 148.879 201.751 148.536 201.754 148.152C201.751 147.783 201.844 147.454 202.033 147.164C202.222 146.874 202.482 146.645 202.812 146.478C203.145 146.31 203.522 146.227 203.947 146.227C204.367 146.227 204.741 146.31 205.072 146.478C205.402 146.645 205.661 146.874 205.85 147.164C206.042 147.454 206.138 147.783 206.14 148.152C206.138 148.536 206.033 148.879 205.826 149.181C205.62 149.479 205.347 149.675 205.007 149.764V149.806C205.27 149.854 205.506 149.966 205.716 150.143C205.925 150.317 206.092 150.535 206.218 150.796C206.342 151.056 206.406 151.339 206.409 151.646C206.406 152.036 206.3 152.386 206.09 152.692C205.883 152.997 205.594 153.236 205.224 153.41C204.856 153.583 204.43 153.668 203.947 153.668ZM203.947 152.89C204.275 152.89 204.558 152.838 204.796 152.731C205.033 152.625 205.218 152.475 205.347 152.282C205.478 152.089 205.543 151.863 205.545 151.603C205.543 151.33 205.472 151.088 205.333 150.878C205.195 150.668 205.004 150.503 204.764 150.383C204.525 150.262 204.253 150.202 203.947 150.202C203.638 150.202 203.362 150.262 203.119 150.383C202.878 150.503 202.689 150.668 202.55 150.878C202.413 151.088 202.346 151.33 202.348 151.603C202.346 151.863 202.408 152.089 202.535 152.282C202.665 152.475 202.85 152.625 203.091 152.731C203.331 152.838 203.616 152.89 203.947 152.89ZM203.947 149.452C204.206 149.452 204.436 149.401 204.636 149.297C204.839 149.192 204.999 149.049 205.114 148.861C205.229 148.676 205.289 148.458 205.291 148.208C205.289 147.962 205.231 147.748 205.117 147.567C205.004 147.384 204.848 147.242 204.647 147.142C204.447 147.041 204.214 146.991 203.947 146.991C203.675 146.991 203.439 147.041 203.235 147.142C203.033 147.242 202.876 147.384 202.766 147.567C202.654 147.748 202.6 147.962 202.603 148.208C202.6 148.458 202.655 148.676 202.77 148.861C202.885 149.049 203.043 149.192 203.246 149.297C203.449 149.401 203.683 149.452 203.947 149.452ZM210.071 146.227C210.367 146.229 210.665 146.285 210.961 146.396C211.259 146.507 211.53 146.692 211.775 146.948C212.021 147.204 212.218 147.551 212.366 147.992C212.514 148.432 212.589 148.985 212.589 149.65C212.589 150.295 212.527 150.866 212.406 151.366C212.285 151.864 212.11 152.283 211.881 152.625C211.655 152.967 211.379 153.227 211.054 153.404C210.731 153.581 210.365 153.668 209.957 153.668C209.551 153.668 209.19 153.589 208.871 153.429C208.555 153.266 208.297 153.04 208.093 152.752C207.893 152.462 207.764 152.126 207.708 151.744H208.572C208.648 152.077 208.802 152.352 209.034 152.569C209.267 152.784 209.576 152.89 209.957 152.89C210.516 152.89 210.957 152.647 211.281 152.158C211.605 151.671 211.768 150.981 211.768 150.09H211.712C211.58 150.287 211.423 150.457 211.242 150.602C211.06 150.745 210.858 150.858 210.636 150.934C210.415 151.012 210.178 151.052 209.929 151.052C209.514 151.052 209.133 150.948 208.786 150.743C208.442 150.536 208.166 150.252 207.959 149.891C207.753 149.528 207.652 149.114 207.652 148.646C207.652 148.202 207.75 147.797 207.948 147.429C208.149 147.059 208.429 146.764 208.791 146.545C209.153 146.326 209.58 146.22 210.071 146.227ZM210.071 147.005C209.773 147.005 209.506 147.079 209.267 147.228C209.032 147.374 208.844 147.572 208.704 147.822C208.568 148.07 208.499 148.345 208.499 148.646C208.499 148.948 208.566 149.223 208.698 149.47C208.833 149.716 209.015 149.911 209.246 150.057C209.48 150.202 209.745 150.273 210.042 150.273C210.266 150.273 210.475 150.23 210.668 150.143C210.861 150.053 211.03 149.931 211.174 149.778C211.321 149.622 211.435 149.447 211.517 149.251C211.6 149.052 211.641 148.846 211.641 148.632C211.641 148.349 211.573 148.084 211.436 147.836C211.301 147.589 211.116 147.388 210.877 147.235C210.641 147.081 210.373 147.005 210.071 147.005Z" fill="#667085"/>
<path d="M87.4514 205.776V208.84H56.2007V205.776H87.4514ZM87.4514 212.393V215.457H56.2007V212.393H87.4514ZM84.7399 194.317V225.69H79.6847L64.8866 204.321H64.6414V225.69H58.9428V194.317H64.044L78.7961 215.703H79.0872V194.317H84.7399ZM103.785 194.317V225.69H98.1019V199.847H97.918L90.5802 204.536V199.327L98.3776 194.317H103.785ZM111.184 219.869V215.35L124.496 194.317H128.265V200.751H125.967L117.005 214.952V215.197H135.587V219.869H111.184ZM126.151 225.69V218.491L126.212 216.469V194.317H131.574V225.69H126.151ZM146.169 221.401L145.97 223.086C145.827 224.373 145.572 225.681 145.204 227.008C144.847 228.346 144.468 229.576 144.07 230.7C143.672 231.824 143.35 232.707 143.105 233.35H139.367C139.511 232.727 139.705 231.88 139.95 230.807C140.205 229.735 140.45 228.53 140.685 227.192C140.919 225.854 141.078 224.496 141.16 223.117L141.266 221.401H146.169ZM152.319 225.69V221.585L163.211 210.908C164.253 209.856 165.121 208.922 165.815 208.104C166.51 207.288 167.031 206.496 167.378 205.729C167.725 204.964 167.899 204.147 167.899 203.279C167.899 202.288 167.674 201.44 167.225 200.736C166.775 200.021 166.157 199.47 165.371 199.082C164.585 198.694 163.692 198.499 162.69 198.499C161.659 198.499 160.755 198.714 159.979 199.143C159.203 199.562 158.6 200.159 158.171 200.935C157.753 201.711 157.543 202.635 157.543 203.707H152.136C152.136 201.716 152.59 199.986 153.499 198.515C154.408 197.043 155.659 195.906 157.252 195.099C158.856 194.291 160.694 193.888 162.768 193.888C164.871 193.888 166.719 194.282 168.313 195.068C169.906 195.854 171.142 196.931 172.02 198.3C172.908 199.668 173.353 201.231 173.353 202.988C173.353 204.162 173.128 205.316 172.679 206.45C172.229 207.583 171.437 208.84 170.304 210.218C169.18 211.597 167.602 213.267 165.57 215.227L160.163 220.727V220.942H173.827V225.69H152.319ZM190.709 226.288C188.187 226.288 186.021 225.65 184.214 224.373C182.416 223.086 181.032 221.232 180.062 218.812C179.102 216.381 178.622 213.455 178.622 210.035C178.633 206.614 179.117 203.703 180.078 201.302C181.047 198.893 182.431 197.054 184.229 195.788C186.036 194.521 188.196 193.888 190.709 193.888C193.221 193.888 195.381 194.521 197.189 195.788C198.996 197.054 200.38 198.893 201.341 201.302C202.31 203.713 202.795 206.623 202.795 210.035C202.795 213.466 202.31 216.397 201.341 218.827C200.38 221.248 198.996 223.097 197.189 224.373C195.391 225.65 193.232 226.288 190.709 226.288ZM190.709 221.493C192.67 221.493 194.216 220.528 195.351 218.597C196.494 216.657 197.066 213.803 197.066 210.035C197.066 207.542 196.806 205.449 196.285 203.754C195.764 202.058 195.028 200.781 194.079 199.924C193.129 199.056 192.006 198.622 190.709 198.622C188.758 198.622 187.216 199.592 186.083 201.532C184.949 203.462 184.377 206.297 184.367 210.035C184.356 212.537 184.606 214.641 185.117 216.346C185.638 218.052 186.374 219.338 187.323 220.207C188.273 221.064 189.401 221.493 190.709 221.493ZM219.481 226.288C216.959 226.288 214.794 225.65 212.987 224.373C211.189 223.086 209.805 221.232 208.835 218.812C207.875 216.381 207.395 213.455 207.395 210.035C207.405 206.614 207.89 203.703 208.85 201.302C209.821 198.893 211.204 197.054 213.002 195.788C214.809 194.521 216.97 193.888 219.481 193.888C221.994 193.888 224.154 194.521 225.962 195.788C227.769 197.054 229.153 198.893 230.113 201.302C231.083 203.713 231.569 206.623 231.569 210.035C231.569 213.466 231.083 216.397 230.113 218.827C229.153 221.248 227.769 223.097 225.962 224.373C224.164 225.65 222.004 226.288 219.481 226.288ZM219.481 221.493C221.442 221.493 222.99 220.528 224.123 218.597C225.267 216.657 225.839 213.803 225.839 210.035C225.839 207.542 225.579 205.449 225.058 203.754C224.537 202.058 223.802 200.781 222.851 199.924C221.902 199.056 220.779 198.622 219.481 198.622C217.531 198.622 215.989 199.592 214.856 201.532C213.721 203.462 213.15 206.297 213.14 210.035C213.129 212.537 213.379 214.641 213.891 216.346C214.411 218.052 215.146 219.338 216.096 220.207C217.046 221.064 218.174 221.493 219.481 221.493ZM238.914 226.027C237.984 226.027 237.187 225.7 236.524 225.047C235.86 224.393 235.533 223.597 235.544 222.658C235.533 221.738 235.86 220.952 236.524 220.298C237.187 219.645 237.984 219.318 238.914 219.318C239.812 219.318 240.594 219.645 241.257 220.298C241.932 220.952 242.273 221.738 242.284 222.658C242.273 223.28 242.111 223.847 241.793 224.358C241.487 224.869 241.078 225.276 240.568 225.584C240.068 225.879 239.516 226.027 238.914 226.027ZM258.323 226.288C255.8 226.288 253.635 225.65 251.827 224.373C250.031 223.086 248.646 221.232 247.676 218.812C246.717 216.381 246.237 213.455 246.237 210.035C246.246 206.614 246.732 203.703 247.692 201.302C248.662 198.893 250.046 197.054 251.842 195.788C253.651 194.521 255.81 193.888 258.323 193.888C260.835 193.888 262.995 194.521 264.802 195.788C266.611 197.054 267.995 198.893 268.954 201.302C269.924 203.713 270.409 206.623 270.409 210.035C270.409 213.466 269.924 216.397 268.954 218.827C267.995 221.248 266.611 223.097 264.802 224.373C263.006 225.65 260.845 226.288 258.323 226.288ZM258.323 221.493C260.284 221.493 261.831 220.528 262.965 218.597C264.108 216.657 264.68 213.803 264.68 210.035C264.68 207.542 264.419 205.449 263.899 203.754C263.378 202.058 262.643 200.781 261.693 199.924C260.743 199.056 259.62 198.622 258.323 198.622C256.372 198.622 254.83 199.592 253.696 201.532C252.563 203.462 251.991 206.297 251.981 210.035C251.971 212.537 252.221 214.641 252.731 216.346C253.252 218.052 253.988 219.338 254.938 220.207C255.887 221.064 257.016 221.493 258.323 221.493ZM287.096 226.288C284.574 226.288 282.408 225.65 280.601 224.373C278.803 223.086 277.419 221.232 276.449 218.812C275.489 216.381 275.009 213.455 275.009 210.035C275.02 206.614 275.504 203.703 276.465 201.302C277.434 198.893 278.818 197.054 280.616 195.788C282.423 194.521 284.583 193.888 287.096 193.888C289.608 193.888 291.768 194.521 293.575 195.788C295.383 197.054 296.767 198.893 297.728 201.302C298.697 203.713 299.182 206.623 299.182 210.035C299.182 213.466 298.697 216.397 297.728 218.827C296.767 221.248 295.383 223.097 293.575 224.373C291.778 225.65 289.619 226.288 287.096 226.288ZM287.096 221.493C289.057 221.493 290.603 220.528 291.738 218.597C292.881 216.657 293.453 213.803 293.453 210.035C293.453 207.542 293.193 205.449 292.672 203.754C292.151 202.058 291.415 200.781 290.466 199.924C289.516 199.056 288.392 198.622 287.096 198.622C285.145 198.622 283.603 199.592 282.47 201.532C281.336 203.462 280.763 206.297 280.754 210.035C280.743 212.537 280.993 214.641 281.504 216.346C282.025 218.052 282.761 219.338 283.71 220.207C284.66 221.064 285.788 221.493 287.096 221.493Z" fill="#101828"/>
<g style="mix-blend-mode:multiply">
<path d="M282.523 248.338H74.3809C63.6599 248.338 54.9688 257.029 54.9688 267.75C54.9688 278.471 63.6599 287.162 74.3809 287.162H282.523C293.244 287.162 301.935 278.471 301.935 267.75C301.935 257.029 293.244 248.338 282.523 248.338Z" fill="#F2F4F7"/>
<g style="mix-blend-mode:multiply">
<path d="M125.068 254.809H76.5379C69.3905 254.809 63.5964 260.603 63.5964 267.75C63.5964 274.898 69.3905 280.692 76.5379 280.692H125.068C132.216 280.692 138.01 274.898 138.01 267.75C138.01 260.603 132.216 254.809 125.068 254.809Z" fill="#F2F4F7"/>
<mask id="mask0_3824_1658" style="mask-type:luminance" maskUnits="userSpaceOnUse" x="74" y="258" width="20" height="20">
<path d="M93.7933 258.044H74.3811V277.456H93.7933V258.044Z" fill="white"/>
</mask>
<g mask="url(#mask0_3824_1658)">
<path d="M93.7933 267.75C93.7933 262.389 89.4478 258.044 84.0872 258.044C78.7266 258.044 74.3811 262.389 74.3811 267.75C74.3811 273.111 78.7266 277.456 84.0872 277.456C89.4478 277.456 93.7933 273.111 93.7933 267.75Z" fill="#0AAC69"/>
<path d="M86.9772 266.965V267.533H81.1763V266.965H86.9772ZM86.9772 268.193V268.762H81.1763V268.193H86.9772ZM86.3856 264.838V270.662H85.7032L82.5297 266.089H82.4729V270.662H81.7677V264.838H82.4501L85.635 269.422H85.6919V264.838H86.3856Z" fill="white"/>
</g>
<path d="M106.782 262.652V272.064H105.477L100.693 265.161H100.605V272.064H99.1853V262.652H100.5L105.288 269.564H105.376V262.652H106.782ZM115.223 265.626C115.135 265.346 115.015 265.097 114.865 264.876C114.717 264.653 114.541 264.463 114.337 264.307C114.131 264.147 113.897 264.026 113.633 263.943C113.372 263.86 113.087 263.819 112.774 263.819C112.243 263.819 111.765 263.956 111.339 264.228C110.913 264.501 110.577 264.901 110.329 265.428C110.083 265.951 109.961 266.594 109.961 267.353C109.961 268.116 110.085 268.761 110.333 269.288C110.581 269.815 110.921 270.215 111.354 270.487C111.786 270.76 112.278 270.897 112.829 270.897C113.34 270.897 113.787 270.792 114.166 270.584C114.549 270.376 114.844 270.082 115.053 269.702C115.264 269.319 115.37 268.869 115.37 268.351L115.737 268.42H113.045V267.248H116.745V268.318C116.745 269.109 116.575 269.795 116.239 270.377C115.905 270.956 115.442 271.404 114.851 271.719C114.262 272.035 113.588 272.192 112.829 272.192C111.977 272.192 111.229 271.997 110.586 271.605C109.946 271.212 109.447 270.657 109.088 269.936C108.73 269.214 108.551 268.355 108.551 267.363C108.551 266.612 108.654 265.938 108.862 265.341C109.071 264.743 109.364 264.235 109.74 263.819C110.121 263.4 110.566 263.079 111.077 262.858C111.593 262.635 112.155 262.523 112.764 262.523C113.273 262.523 113.747 262.598 114.184 262.748C114.626 262.898 115.018 263.112 115.361 263.388C115.707 263.663 115.994 263.991 116.221 264.37C116.447 264.748 116.6 265.166 116.68 265.626H115.223ZM126.143 262.652V272.064H124.839L120.054 265.161H119.967V272.064H118.547V262.652H119.861L124.65 269.564H124.737V262.652H126.143Z" fill="#344054"/>
</g>
<path d="M151.901 273.143V265.299H154.643C155.189 265.299 155.64 265.394 155.995 265.583C156.35 265.769 156.614 266.02 156.788 266.337C156.961 266.651 157.049 267 157.049 267.382C157.049 267.72 156.988 267.998 156.868 268.217C156.751 268.437 156.595 268.611 156.4 268.738C156.21 268.866 156.001 268.96 155.777 269.022V269.098C156.016 269.113 156.258 269.198 156.501 269.351C156.743 269.504 156.946 269.724 157.109 270.01C157.273 270.295 157.355 270.646 157.355 271.059C157.355 271.453 157.265 271.806 157.086 272.12C156.907 272.434 156.626 272.683 156.24 272.866C155.855 273.051 155.353 273.143 154.735 273.143H151.901ZM152.851 272.3H154.735C155.355 272.3 155.795 272.179 156.056 271.94C156.32 271.697 156.451 271.404 156.451 271.059C156.451 270.794 156.383 270.549 156.247 270.323C156.112 270.097 155.919 269.916 155.669 269.78C155.419 269.642 155.124 269.573 154.781 269.573H152.851V272.3ZM152.851 268.746H154.612C154.898 268.746 155.156 268.69 155.386 268.577C155.619 268.465 155.802 268.307 155.938 268.103C156.076 267.898 156.145 267.659 156.145 267.382C156.145 267.037 156.024 266.745 155.785 266.506C155.544 266.263 155.163 266.142 154.643 266.142H152.851V268.746ZM160.523 273.281C160.151 273.281 159.813 273.21 159.509 273.07C159.204 272.927 158.964 272.721 158.785 272.453C158.606 272.183 158.516 271.856 158.516 271.473C158.516 271.135 158.583 270.863 158.716 270.653C158.849 270.441 159.026 270.275 159.249 270.155C159.471 270.035 159.716 269.946 159.984 269.888C160.254 269.826 160.527 269.778 160.799 269.742C161.156 269.696 161.447 269.661 161.669 269.639C161.893 269.613 162.057 269.571 162.159 269.512C162.264 269.453 162.316 269.351 162.316 269.205V269.175C162.316 268.797 162.212 268.503 162.006 268.294C161.801 268.085 161.492 267.98 161.076 267.98C160.644 267.98 160.306 268.075 160.061 268.264C159.815 268.452 159.642 268.654 159.543 268.869L158.686 268.562C158.839 268.204 159.043 267.926 159.298 267.728C159.556 267.526 159.836 267.385 160.141 267.306C160.447 267.224 160.749 267.183 161.044 267.183C161.233 267.183 161.451 267.207 161.696 267.252C161.944 267.296 162.182 267.387 162.412 267.524C162.644 267.662 162.837 267.87 162.99 268.148C163.143 268.426 163.219 268.8 163.219 269.267V273.143H162.316V272.346H162.27C162.209 272.474 162.107 272.61 161.963 272.755C161.821 272.901 161.631 273.025 161.393 273.127C161.155 273.229 160.865 273.281 160.523 273.281ZM160.661 272.468C161.019 272.468 161.32 272.398 161.565 272.258C161.813 272.117 162 271.936 162.125 271.714C162.252 271.491 162.316 271.258 162.316 271.014V270.186C162.278 270.232 162.194 270.274 162.063 270.313C161.935 270.348 161.787 270.38 161.619 270.408C161.453 270.433 161.291 270.456 161.133 270.477C160.976 270.495 160.85 270.51 160.753 270.523C160.519 270.553 160.299 270.604 160.095 270.673C159.892 270.739 159.73 270.84 159.605 270.975C159.482 271.107 159.421 271.289 159.421 271.518C159.421 271.833 159.537 272.071 159.77 272.231C160.004 272.39 160.301 272.468 160.661 272.468ZM165.773 265.299V273.143H164.87V265.299H165.773ZM169.16 273.281C168.786 273.281 168.449 273.21 168.145 273.07C167.841 272.927 167.6 272.721 167.421 272.453C167.242 272.183 167.153 271.856 167.153 271.473C167.153 271.135 167.219 270.863 167.352 270.653C167.485 270.441 167.663 270.275 167.885 270.155C168.107 270.035 168.352 269.946 168.619 269.888C168.89 269.826 169.162 269.778 169.436 269.742C169.793 269.696 170.083 269.661 170.305 269.639C170.529 269.613 170.693 269.571 170.795 269.512C170.899 269.453 170.952 269.351 170.952 269.205V269.175C170.952 268.797 170.848 268.503 170.641 268.294C170.438 268.085 170.127 267.98 169.711 267.98C169.279 267.98 168.942 268.075 168.696 268.264C168.451 268.452 168.279 268.654 168.179 268.869L167.322 268.562C167.475 268.204 167.679 267.926 167.935 267.728C168.192 267.526 168.473 267.385 168.777 267.306C169.083 267.224 169.384 267.183 169.681 267.183C169.869 267.183 170.086 267.207 170.332 267.252C170.579 267.296 170.818 267.387 171.048 267.524C171.28 267.662 171.473 267.87 171.626 268.148C171.779 268.426 171.856 268.8 171.856 269.267V273.143H170.952V272.346H170.906C170.845 272.474 170.743 272.61 170.599 272.755C170.457 272.901 170.266 273.025 170.029 273.127C169.792 273.229 169.502 273.281 169.16 273.281ZM169.298 272.468C169.655 272.468 169.957 272.398 170.201 272.258C170.449 272.117 170.635 271.936 170.76 271.714C170.888 271.491 170.952 271.258 170.952 271.014V270.186C170.913 270.232 170.829 270.274 170.7 270.313C170.571 270.348 170.424 270.38 170.255 270.408C170.089 270.433 169.926 270.456 169.769 270.477C169.613 270.495 169.486 270.51 169.389 270.523C169.154 270.553 168.935 270.604 168.73 270.673C168.529 270.739 168.366 270.84 168.241 270.975C168.118 271.107 168.056 271.289 168.056 271.518C168.056 271.833 168.173 272.071 168.405 272.231C168.64 272.39 168.937 272.468 169.298 272.468ZM174.41 269.604V273.143H173.506V267.26H174.378V268.179H174.455C174.593 267.881 174.802 267.64 175.084 267.459C175.364 267.276 175.726 267.183 176.171 267.183C176.57 267.183 176.918 267.265 177.217 267.429C177.515 267.59 177.747 267.834 177.913 268.164C178.08 268.491 178.163 268.904 178.163 269.405V273.143H177.259V269.466C177.259 269.003 177.139 268.644 176.899 268.385C176.658 268.126 176.329 267.995 175.911 267.995C175.622 267.995 175.364 268.058 175.138 268.183C174.912 268.308 174.735 268.491 174.605 268.731C174.474 268.971 174.41 269.262 174.41 269.604ZM182.204 273.265C181.652 273.265 181.178 273.135 180.779 272.874C180.381 272.614 180.075 272.255 179.86 271.799C179.645 271.341 179.539 270.82 179.539 270.232C179.539 269.634 179.648 269.107 179.868 268.651C180.09 268.19 180.398 267.832 180.794 267.574C181.193 267.313 181.658 267.183 182.188 267.183C182.603 267.183 182.975 267.26 183.307 267.414C183.639 267.567 183.911 267.78 184.122 268.057C184.335 268.333 184.466 268.654 184.517 269.022H183.613C183.544 268.753 183.391 268.516 183.154 268.309C182.919 268.1 182.603 267.995 182.204 267.995C181.852 267.995 181.542 268.087 181.277 268.271C181.014 268.452 180.808 268.709 180.66 269.041C180.515 269.37 180.442 269.757 180.442 270.202C180.442 270.656 180.514 271.051 180.657 271.389C180.803 271.725 181.006 271.987 181.27 272.174C181.535 272.36 181.847 272.453 182.204 272.453C182.439 272.453 182.652 272.412 182.843 272.33C183.035 272.248 183.197 272.131 183.329 271.978C183.462 271.825 183.557 271.641 183.613 271.427H184.517C184.466 271.774 184.34 272.087 184.138 272.365C183.939 272.641 183.675 272.86 183.345 273.024C183.018 273.185 182.638 273.265 182.204 273.265ZM188.304 273.265C187.738 273.265 187.249 273.14 186.838 272.89C186.429 272.637 186.114 272.285 185.892 271.833C185.672 271.378 185.563 270.85 185.563 270.247C185.563 269.645 185.672 269.113 185.892 268.654C186.114 268.192 186.422 267.832 186.818 267.574C187.217 267.313 187.682 267.183 188.213 267.183C188.519 267.183 188.822 267.235 189.121 267.336C189.419 267.439 189.691 267.605 189.936 267.834C190.181 268.062 190.376 268.363 190.522 268.738C190.667 269.113 190.741 269.576 190.741 270.125V270.508H186.206V269.726H189.821C189.821 269.395 189.755 269.098 189.622 268.838C189.492 268.577 189.305 268.371 189.062 268.222C188.823 268.071 188.539 267.995 188.213 267.995C187.852 267.995 187.541 268.085 187.278 268.264C187.018 268.439 186.817 268.669 186.677 268.953C186.537 269.236 186.467 269.54 186.467 269.864V270.385C186.467 270.829 186.543 271.206 186.696 271.515C186.852 271.821 187.067 272.054 187.343 272.216C187.62 272.374 187.94 272.453 188.304 272.453C188.542 272.453 188.756 272.42 188.948 272.353C189.142 272.285 189.309 272.183 189.45 272.047C189.59 271.91 189.699 271.738 189.775 271.535L190.648 271.779C190.556 272.075 190.402 272.336 190.185 272.56C189.968 272.782 189.7 272.956 189.381 273.081C189.061 273.204 188.703 273.265 188.304 273.265ZM192.773 273.204C192.585 273.204 192.423 273.136 192.287 273.001C192.152 272.865 192.084 272.704 192.084 272.515C192.084 272.325 192.152 272.163 192.287 272.028C192.423 271.893 192.585 271.825 192.773 271.825C192.963 271.825 193.125 271.893 193.26 272.028C193.396 272.163 193.464 272.325 193.464 272.515C193.464 272.64 193.431 272.754 193.368 272.859C193.306 272.963 193.223 273.048 193.119 273.112C193.016 273.173 192.902 273.204 192.773 273.204ZM192.773 268.838C192.585 268.838 192.423 268.77 192.287 268.635C192.152 268.5 192.084 268.338 192.084 268.148C192.084 267.959 192.152 267.798 192.287 267.662C192.423 267.527 192.585 267.459 192.773 267.459C192.963 267.459 193.125 267.527 193.26 267.662C193.396 267.798 193.464 267.959 193.464 268.148C193.464 268.273 193.431 268.389 193.368 268.493C193.306 268.598 193.223 268.682 193.119 268.746C193.016 268.807 192.902 268.838 192.773 268.838ZM208.373 266.671V267.666H198.216V266.671H208.373ZM208.373 268.821V269.817H198.216V268.821H208.373ZM207.337 262.946V273.143H206.142L200.586 265.137H200.487V273.143H199.252V262.946H200.447L206.023 270.972H206.123V262.946H207.337ZM213.033 273.282C212.409 273.282 211.848 273.162 211.35 272.924C210.856 272.681 210.46 272.349 210.165 271.928C209.87 271.506 209.712 271.024 209.692 270.484H211.186C211.223 270.922 211.417 271.282 211.768 271.565C212.12 271.846 212.542 271.987 213.033 271.987C213.425 271.987 213.771 271.898 214.073 271.719C214.379 271.536 214.618 271.285 214.79 270.967C214.966 270.648 215.054 270.285 215.054 269.877C215.054 269.462 214.965 269.092 214.786 268.766C214.606 268.442 214.359 268.186 214.044 267.999C213.731 267.814 213.373 267.719 212.969 267.716C212.659 267.716 212.35 267.769 212.037 267.875C211.725 267.981 211.473 268.121 211.281 268.294L209.871 268.085L210.444 262.946H216.05V264.266H211.723L211.399 267.118H211.46C211.658 266.926 211.923 266.765 212.251 266.635C212.584 266.506 212.938 266.441 213.317 266.441C213.937 266.441 214.49 266.589 214.975 266.884C215.462 267.18 215.846 267.583 216.124 268.094C216.407 268.602 216.546 269.186 216.543 269.847C216.546 270.507 216.397 271.097 216.095 271.614C215.796 272.132 215.381 272.54 214.851 272.838C214.322 273.134 213.717 273.282 213.033 273.282ZM221.911 273.312C221.124 273.309 220.452 273.102 219.894 272.69C219.337 272.278 218.911 271.679 218.615 270.892C218.32 270.106 218.172 269.158 218.172 268.049C218.172 266.944 218.32 266 218.615 265.217C218.914 264.433 219.342 263.835 219.9 263.425C220.461 263.013 221.131 262.807 221.911 262.807C222.691 262.807 223.36 263.015 223.917 263.429C224.475 263.841 224.902 264.438 225.197 265.221C225.496 266.001 225.645 266.944 225.645 268.049C225.645 269.161 225.497 270.111 225.202 270.897C224.906 271.68 224.48 272.28 223.922 272.695C223.365 273.106 222.694 273.312 221.911 273.312ZM221.911 271.982C222.601 271.982 223.141 271.646 223.529 270.972C223.92 270.298 224.117 269.324 224.117 268.049C224.117 267.203 224.027 266.487 223.848 265.904C223.672 265.316 223.418 264.871 223.086 264.569C222.758 264.264 222.365 264.112 221.911 264.112C221.224 264.112 220.685 264.45 220.293 265.126C219.901 265.804 219.704 266.779 219.7 268.049C219.7 268.899 219.789 269.618 219.965 270.205C220.144 270.789 220.397 271.233 220.726 271.535C221.055 271.833 221.45 271.982 221.911 271.982ZM228.998 271.748L228.923 272.292C228.874 272.69 228.79 273.105 228.67 273.536C228.553 273.971 228.433 274.374 228.306 274.746C228.183 275.117 228.082 275.413 228.002 275.632H226.946C226.99 275.426 227.05 275.147 227.127 274.796C227.202 274.447 227.278 274.057 227.35 273.626C227.423 273.194 227.478 272.754 227.515 272.306L227.564 271.748H228.998ZM234.261 273.312C233.474 273.309 232.801 273.102 232.244 272.69C231.686 272.278 231.26 271.679 230.965 270.892C230.669 270.106 230.522 269.158 230.522 268.049C230.522 266.944 230.669 266 230.965 265.217C231.264 264.433 231.692 263.835 232.249 263.425C232.81 263.013 233.481 262.807 234.261 262.807C235.04 262.807 235.709 263.015 236.266 263.429C236.825 263.841 237.251 264.438 237.547 265.221C237.845 266.001 237.994 266.944 237.994 268.049C237.994 269.161 237.846 270.111 237.552 270.897C237.256 271.68 236.829 272.28 236.272 272.695C235.714 273.106 235.043 273.312 234.261 273.312ZM234.261 271.982C234.951 271.982 235.49 271.646 235.878 270.972C236.271 270.298 236.466 269.324 236.466 268.049C236.466 267.203 236.376 266.487 236.197 265.904C236.022 265.316 235.767 264.871 235.436 264.569C235.107 264.264 234.716 264.112 234.261 264.112C233.574 264.112 233.034 264.45 232.643 265.126C232.251 265.804 232.053 266.779 232.05 268.049C232.05 268.899 232.138 269.618 232.314 270.205C232.493 270.789 232.747 271.233 233.075 271.535C233.404 271.833 233.799 271.982 234.261 271.982ZM243.151 262.807C243.606 262.81 244.054 262.893 244.495 263.056C244.937 263.219 245.335 263.484 245.69 263.853C246.049 264.22 246.334 264.719 246.546 265.346C246.762 265.97 246.872 266.746 246.875 267.676C246.875 268.569 246.786 269.364 246.607 270.06C246.428 270.755 246.17 271.34 245.835 271.818C245.502 272.296 245.099 272.659 244.624 272.908C244.15 273.158 243.616 273.282 243.022 273.282C242.415 273.282 241.876 273.162 241.404 272.924C240.932 272.684 240.549 272.354 240.254 271.932C239.958 271.508 239.774 271.02 239.701 270.469H241.22C241.319 270.907 241.522 271.263 241.827 271.535C242.135 271.803 242.533 271.938 243.022 271.938C243.768 271.938 244.351 271.612 244.769 270.962C245.187 270.308 245.398 269.395 245.402 268.224H245.322C245.15 268.509 244.934 268.754 244.675 268.96C244.42 269.166 244.132 269.326 243.813 269.438C243.494 269.551 243.155 269.607 242.793 269.607C242.206 269.607 241.671 269.463 241.19 269.175C240.709 268.886 240.325 268.489 240.04 267.984C239.754 267.481 239.612 266.905 239.612 266.257C239.612 265.613 239.757 265.029 240.05 264.504C240.345 263.98 240.756 263.565 241.285 263.26C241.815 262.951 242.437 262.8 243.151 262.807ZM243.157 264.101C242.767 264.101 242.418 264.198 242.105 264.39C241.797 264.58 241.553 264.836 241.374 265.162C241.195 265.483 241.105 265.842 241.105 266.237C241.105 266.632 241.192 266.991 241.364 267.312C241.54 267.632 241.778 267.885 242.08 268.074C242.387 268.26 242.735 268.353 243.127 268.353C243.419 268.353 243.691 268.297 243.943 268.184C244.195 268.071 244.415 267.915 244.605 267.716C244.794 267.513 244.942 267.284 245.048 267.029C245.154 266.773 245.208 266.505 245.208 266.222C245.208 265.847 245.117 265.498 244.938 265.177C244.763 264.855 244.52 264.596 244.211 264.399C243.903 264.201 243.551 264.101 243.157 264.101ZM252.065 262.807C252.519 262.81 252.967 262.893 253.408 263.056C253.85 263.219 254.249 263.484 254.603 263.853C254.961 264.22 255.247 264.719 255.46 265.346C255.675 265.97 255.785 266.746 255.789 267.676C255.789 268.569 255.699 269.364 255.519 270.06C255.34 270.755 255.083 271.34 254.748 271.818C254.416 272.296 254.012 272.659 253.538 272.908C253.063 273.158 252.528 273.282 251.935 273.282C251.327 273.282 250.788 273.162 250.317 272.924C249.845 272.684 249.462 272.354 249.167 271.932C248.871 271.508 248.687 271.02 248.614 270.469H250.132C250.232 270.907 250.434 271.263 250.74 271.535C251.049 271.803 251.447 271.938 251.935 271.938C252.682 271.938 253.264 271.612 253.682 270.962C254.101 270.308 254.311 269.395 254.314 268.224H254.235C254.062 268.509 253.846 268.754 253.588 268.96C253.332 269.166 253.045 269.326 252.727 269.438C252.408 269.551 252.068 269.607 251.706 269.607C251.118 269.607 250.584 269.463 250.103 269.175C249.621 268.886 249.238 268.489 248.952 267.984C248.668 267.481 248.524 266.905 248.524 266.257C248.524 265.613 248.671 265.029 248.962 264.504C249.258 263.98 249.669 263.565 250.197 263.26C250.729 262.951 251.351 262.8 252.065 262.807ZM252.069 264.101C251.681 264.101 251.33 264.198 251.019 264.39C250.71 264.58 250.466 264.836 250.286 265.162C250.107 265.483 250.018 265.842 250.018 266.237C250.018 266.632 250.104 266.991 250.277 267.312C250.452 267.632 250.692 267.885 250.994 268.074C251.299 268.26 251.647 268.353 252.039 268.353C252.331 268.353 252.604 268.297 252.856 268.184C253.108 268.071 253.329 267.915 253.519 267.716C253.707 267.513 253.855 267.284 253.961 267.029C254.067 266.773 254.12 266.505 254.12 266.222C254.12 265.847 254.031 265.498 253.852 265.177C253.676 264.855 253.433 264.596 253.125 264.399C252.816 264.201 252.464 264.101 252.069 264.101Z" fill="#344054"/>
<path d="M278.209 265.593L282.523 269.907L286.836 265.593" stroke="#344054" stroke-width="1.79743" stroke-linecap="round" stroke-linejoin="round"/>
</g>
<path d="M128.418 48.8946C128.363 48.3798 128.131 47.9789 127.722 47.692C127.318 47.4051 126.79 47.2617 126.142 47.2617C125.686 47.2617 125.295 47.3305 124.969 47.468C124.643 47.6055 124.393 47.7922 124.22 48.0281C124.047 48.2638 123.959 48.533 123.955 48.8357C123.955 49.0872 124.012 49.3053 124.125 49.4901C124.244 49.6747 124.404 49.832 124.603 49.9616C124.804 50.0875 125.026 50.1935 125.27 50.28C125.513 50.3665 125.758 50.4392 126.006 50.498L127.138 50.7811C127.594 50.8871 128.031 51.0306 128.453 51.2114C128.877 51.3922 129.257 51.6201 129.591 51.8953C129.928 52.1703 130.196 52.5025 130.392 52.8916C130.588 53.2806 130.688 53.7365 130.688 54.2593C130.688 54.9666 130.506 55.5895 130.144 56.128C129.783 56.6625 129.261 57.081 128.576 57.3836C127.897 57.6823 127.073 57.8316 126.106 57.8316C125.167 57.8316 124.352 57.6863 123.66 57.3954C122.972 57.1045 122.434 56.6802 122.045 56.1221C121.66 55.5641 121.452 54.8841 121.419 54.0823H123.571C123.603 54.5029 123.733 54.8527 123.96 55.1316C124.189 55.4107 124.485 55.6191 124.851 55.7566C125.221 55.8941 125.633 55.9629 126.089 55.9629C126.565 55.9629 126.981 55.8921 127.339 55.7507C127.7 55.6053 127.983 55.4048 128.187 55.1493C128.392 54.8899 128.496 54.5874 128.501 54.2416C128.496 53.9271 128.404 53.6677 128.222 53.4634C128.042 53.255 127.789 53.0821 127.462 52.9446C127.141 52.803 126.763 52.6773 126.331 52.5673L124.957 52.2135C123.962 51.9581 123.176 51.5711 122.598 51.0523C122.024 50.5295 121.739 49.8359 121.739 48.9713C121.739 48.2599 121.931 47.637 122.317 47.1024C122.705 46.568 123.233 46.1534 123.902 45.8586C124.57 45.5599 125.326 45.4106 126.171 45.4106C127.028 45.4106 127.779 45.5599 128.423 45.8586C129.072 46.1534 129.581 46.5641 129.95 47.0907C130.32 47.6134 130.511 48.2147 130.522 48.8946H128.418ZM136.551 57.8258C135.643 57.8258 134.859 57.6371 134.199 57.2598C133.542 56.8786 133.038 56.3402 132.684 55.6445C132.33 54.9449 132.153 54.1216 132.153 53.1745C132.153 52.2431 132.33 51.4256 132.684 50.7221C133.042 50.0148 133.541 49.4644 134.182 49.0715C134.821 48.6746 135.574 48.476 136.439 48.476C136.997 48.476 137.524 48.5665 138.019 48.7473C138.518 48.924 138.958 49.1993 139.339 49.5726C139.725 49.9459 140.027 50.4215 140.247 50.9992C140.467 51.5729 140.578 52.2568 140.578 53.0506V53.705H133.156V52.2666H138.532C138.528 51.8579 138.44 51.4943 138.267 51.1761C138.093 50.8537 137.852 50.6003 137.541 50.4155C137.235 50.2309 136.878 50.1385 136.468 50.1385C136.032 50.1385 135.65 50.2446 135.319 50.4568C134.99 50.6652 134.732 50.9402 134.546 51.2821C134.366 51.6201 134.274 51.9916 134.269 52.3963V53.6521C134.269 54.1786 134.366 54.6306 134.558 55.0079C134.751 55.3813 135.021 55.6682 135.366 55.8685C135.712 56.0651 136.118 56.1633 136.58 56.1633C136.891 56.1633 137.172 56.12 137.424 56.0336C137.675 55.9433 137.894 55.8116 138.078 55.6386C138.263 55.4657 138.402 55.2515 138.497 54.9962L140.489 55.2202C140.364 55.7467 140.124 56.2065 139.77 56.5996C139.42 56.9886 138.971 57.2912 138.426 57.5073C137.88 57.7196 137.254 57.8258 136.551 57.8258ZM144.518 52.3433V57.6489H142.384V48.5939H144.423V50.1326H144.529C144.737 49.6256 145.069 49.2228 145.525 48.924C145.984 48.6254 146.553 48.476 147.229 48.476C147.855 48.476 148.398 48.6097 148.862 48.8769C149.33 49.1441 149.691 49.5313 149.947 50.0383C150.206 50.5453 150.333 51.1603 150.33 51.8835V57.6489H148.196V52.2135C148.196 51.6083 148.038 51.1348 147.724 50.7929C147.413 50.4509 146.983 50.28 146.433 50.28C146.06 50.28 145.728 50.3625 145.437 50.5276C145.15 50.6887 144.924 50.9225 144.759 51.2291C144.598 51.5356 144.518 51.907 144.518 52.3433ZM155.859 57.8081C155.147 57.8081 154.511 57.6253 153.949 57.2598C153.387 56.8944 152.943 56.3638 152.617 55.6681C152.29 54.9725 152.127 54.1276 152.127 53.1332C152.127 52.127 152.293 51.2782 152.622 50.5866C152.957 49.8909 153.407 49.3662 153.973 49.0126C154.539 48.6549 155.17 48.476 155.865 48.476C156.396 48.476 156.832 48.5665 157.173 48.7473C157.515 48.924 157.787 49.1383 157.987 49.3898C158.188 49.6374 158.344 49.8712 158.452 50.0914H158.542V45.5756H160.682V57.6489H158.583V56.2223H158.452C158.344 56.4424 158.184 56.6762 157.976 56.9238C157.768 57.1675 157.493 57.3758 157.151 57.5488C156.809 57.7216 156.378 57.8081 155.859 57.8081ZM156.455 56.0573C156.906 56.0573 157.292 55.9354 157.61 55.6917C157.928 55.444 158.171 55.1002 158.335 54.66C158.5 54.2199 158.583 53.707 158.583 53.1215C158.583 52.5359 158.5 52.0269 158.335 51.5946C158.174 51.1623 157.934 50.8262 157.616 50.5866C157.302 50.3468 156.915 50.2269 156.455 50.2269C155.98 50.2269 155.583 50.3507 155.263 50.5983C154.945 50.846 154.706 51.1878 154.545 51.6241C154.383 52.0603 154.303 52.5595 154.303 53.1215C154.303 53.6874 154.383 54.1924 154.545 54.6365C154.71 55.0766 154.952 55.4245 155.27 55.6799C155.592 55.9315 155.987 56.0573 156.455 56.0573ZM168.718 57.6489H166.383L170.635 45.5756H173.334L177.59 57.6489H175.256L172.031 48.0516H171.936L168.718 57.6489ZM168.795 52.9152H175.161V54.6719H168.795V52.9152ZM179.085 57.6489V48.5939H181.126V50.1326H181.233C181.42 49.6138 181.733 49.209 182.17 48.9182C182.606 48.6235 183.126 48.476 183.731 48.476C184.345 48.476 184.862 48.6254 185.282 48.924C185.706 49.2188 186.005 49.6217 186.177 50.1326H186.272C186.473 49.6296 186.81 49.2287 187.286 48.93C187.766 48.6275 188.334 48.476 188.99 48.476C189.824 48.476 190.503 48.7394 191.03 49.266C191.557 49.7926 191.82 50.561 191.82 51.5711V57.6489H189.679V51.9011C189.679 51.3391 189.53 50.9285 189.232 50.6691C188.933 50.4057 188.567 50.2742 188.135 50.2742C187.62 50.2742 187.218 50.4353 186.926 50.7574C186.64 51.0759 186.497 51.4904 186.497 52.0013V57.6489H184.403V51.8128C184.403 51.3451 184.262 50.9717 183.978 50.6926C183.7 50.4136 183.335 50.2742 182.883 50.2742C182.576 50.2742 182.297 50.3528 182.046 50.5099C181.795 50.6632 181.593 50.8813 181.444 51.1642C181.294 51.4433 181.22 51.7695 181.22 52.1429V57.6489H179.085ZM197.935 57.8258C197.05 57.8258 196.285 57.6313 195.635 57.2422C194.987 56.8531 194.484 56.3088 194.126 55.6092C193.773 54.9097 193.596 54.0922 193.596 53.1569C193.596 52.2215 193.773 51.4021 194.126 50.6985C194.484 49.995 194.987 49.4487 195.635 49.0597C196.285 48.6706 197.05 48.476 197.935 48.476C198.819 48.476 199.585 48.6706 200.234 49.0597C200.882 49.4487 201.384 49.995 201.736 50.6985C202.094 51.4021 202.273 52.2215 202.273 53.1569C202.273 54.0922 202.094 54.9097 201.736 55.6092C201.384 56.3088 200.882 56.8531 200.234 57.2422C199.585 57.6313 198.819 57.8258 197.935 57.8258ZM197.945 56.1161C198.425 56.1161 198.827 55.9846 199.149 55.7212C199.47 55.454 199.711 55.0964 199.868 54.6483C200.029 54.2003 200.11 53.701 200.11 53.1509C200.11 52.5968 200.029 52.0958 199.868 51.6477C199.711 51.1957 199.47 50.836 199.149 50.5689C198.827 50.3015 198.425 50.1679 197.945 50.1679C197.456 50.1679 197.046 50.3015 196.72 50.5689C196.398 50.836 196.156 51.1957 195.996 51.6477C195.837 52.0958 195.758 52.5968 195.758 53.1509C195.758 53.701 195.837 54.2003 195.996 54.6483C196.156 55.0964 196.398 55.454 196.72 55.7212C197.046 55.9846 197.456 56.1161 197.945 56.1161ZM209.856 53.8406V48.5939H211.99V57.6489H209.921V56.0396H209.826C209.622 56.5466 209.285 56.9611 208.818 57.2835C208.355 57.6057 207.783 57.7668 207.103 57.7668C206.509 57.7668 205.984 57.6351 205.529 57.3719C205.076 57.1045 204.724 56.7175 204.468 56.2105C204.211 55.6995 204.085 55.0826 204.085 54.3594V48.5939H206.219V54.0293C206.219 54.6031 206.376 55.0589 206.691 55.3969C207.005 55.7349 207.418 55.9039 207.928 55.9039C208.243 55.9039 208.547 55.8273 208.842 55.674C209.137 55.5207 209.378 55.2928 209.567 54.9902C209.76 54.6837 209.856 54.3005 209.856 53.8406ZM216.319 52.3433V57.6489H214.185V48.5939H216.224V50.1326H216.33C216.539 49.6256 216.87 49.2228 217.326 48.924C217.786 48.6254 218.354 48.476 219.03 48.476C219.655 48.476 220.199 48.6097 220.663 48.8769C221.13 49.1441 221.492 49.5313 221.748 50.0383C222.007 50.5453 222.135 51.1603 222.131 51.8835V57.6489H219.997V52.2135C219.997 51.6083 219.84 51.1348 219.525 50.7929C219.215 50.4509 218.784 50.28 218.234 50.28C217.861 50.28 217.529 50.3625 217.238 50.5276C216.951 50.6887 216.726 50.9225 216.561 51.2291C216.399 51.5356 216.319 51.907 216.319 52.3433ZM228.823 48.5939V50.2446H223.616V48.5939H228.823ZM224.903 46.4246H227.036V54.9254C227.036 55.2123 227.079 55.4323 227.165 55.5856C227.256 55.7349 227.374 55.8371 227.519 55.8921C227.664 55.9471 227.825 55.9748 228.002 55.9748C228.136 55.9748 228.258 55.9648 228.369 55.9452C228.482 55.9256 228.568 55.9079 228.628 55.8921L228.987 57.5605C228.873 57.5998 228.711 57.643 228.498 57.6901C228.29 57.7373 228.034 57.7649 227.731 57.7726C227.197 57.7884 226.715 57.7078 226.287 57.5311C225.858 57.3502 225.518 57.0712 225.267 56.6939C225.02 56.3166 224.898 55.845 224.903 55.279V46.4246ZM239.246 48.5939V50.2446H234.041V48.5939H239.246ZM235.326 46.4246H237.46V54.9254C237.46 55.2123 237.503 55.4323 237.589 55.5856C237.68 55.7349 237.798 55.8371 237.943 55.8921C238.089 55.9471 238.249 55.9748 238.426 55.9748C238.56 55.9748 238.682 55.9648 238.792 55.9452C238.906 55.9256 238.993 55.9079 239.052 55.8921L239.411 57.5605C239.298 57.5998 239.134 57.643 238.921 57.6901C238.714 57.7373 238.459 57.7649 238.156 57.7726C237.621 57.7884 237.14 57.7078 236.712 57.5311C236.282 57.3502 235.943 57.0712 235.691 56.6939C235.443 56.3166 235.321 55.845 235.326 55.279V46.4246ZM244.884 57.8258C243.999 57.8258 243.233 57.6313 242.585 57.2422C241.936 56.8531 241.432 56.3088 241.075 55.6092C240.721 54.9097 240.544 54.0922 240.544 53.1569C240.544 52.2215 240.721 51.4021 241.075 50.6985C241.432 49.995 241.936 49.4487 242.585 49.0597C243.233 48.6706 243.999 48.476 244.884 48.476C245.767 48.476 246.534 48.6706 247.182 49.0597C247.832 49.4487 248.332 49.995 248.686 50.6985C249.044 51.4021 249.223 52.2215 249.223 53.1569C249.223 54.0922 249.044 54.9097 248.686 55.6092C248.332 56.3088 247.832 56.8531 247.182 57.2422C246.534 57.6313 245.767 57.8258 244.884 57.8258ZM244.895 56.1161C245.375 56.1161 245.775 55.9846 246.098 55.7212C246.42 55.454 246.66 55.0964 246.817 54.6483C246.977 54.2003 247.058 53.701 247.058 53.1509C247.058 52.5968 246.977 52.0958 246.817 51.6477C246.66 51.1957 246.42 50.836 246.098 50.5689C245.775 50.3015 245.375 50.1679 244.895 50.1679C244.404 50.1679 243.995 50.3015 243.67 50.5689C243.346 50.836 243.105 51.1957 242.944 51.6477C242.787 52.0958 242.708 52.5968 242.708 53.1509C242.708 53.701 242.787 54.2003 242.944 54.6483C243.105 55.0964 243.346 55.454 243.67 55.7212C243.995 55.9846 244.404 56.1161 244.895 56.1161Z" fill="#101828"/>
<path d="M59.9648 76.74C73.7173 76.74 84.8659 65.5914 84.8659 51.8389C84.8659 38.0864 73.7173 26.9379 59.9648 26.9379C46.2122 26.9379 35.0637 38.0864 35.0637 51.8389C35.0637 65.5914 46.2122 76.74 59.9648 76.74Z" fill="#F7F7F7"/>
<path d="M62.4564 58.4124L57.0445 53.0006C56.4054 52.3614 56.4054 51.3156 57.0445 50.6764L62.4564 45.2646" stroke="#080B30" stroke-width="1.61768" stroke-miterlimit="10" stroke-linecap="round" stroke-linejoin="round"/>
</g>
</g>
</g>
<defs>
<clipPath id="clip0_3824_1658">
<rect width="355.89" height="339.7" fill="white" transform="translate(0.649902 0.300049)"/>
</clipPath>
<clipPath id="clip1_3824_1658">
<rect width="355.89" height="339.7" fill="white" transform="translate(0.649902 0.300049)"/>
</clipPath>
<clipPath id="clip2_3824_1658">
<rect width="355.89" height="339.713" fill="white" transform="translate(0.649902 0.293457)"/>
</clipPath>
</defs>
</svg>
