<svg width="167" height="137" viewBox="0 0 167 137" fill="none" xmlns="http://www.w3.org/2000/svg">
<path d="M25.9842 1.68106L95.4479 9.74286C100.485 10.3274 102.25 11.0635 103.977 12.2619C105.685 13.4364 107.001 15.0976 107.753 17.0296C108.524 18.9848 108.836 20.8726 108.252 25.9086L100.19 95.3723C99.6051 100.409 98.8691 102.174 97.6707 103.901C96.4961 105.609 94.8349 106.925 92.9029 107.677C90.9478 108.448 89.0599 108.76 84.024 108.176L14.5602 100.114C9.52343 99.5295 7.75814 98.7935 6.03153 97.5951C4.32312 96.4205 3.00742 94.7593 2.25537 92.8273C1.48426 90.8722 1.17209 88.9852 1.75665 83.9484L9.81846 14.4847C10.403 9.44783 11.139 7.68341 12.3375 5.95594C13.512 4.24752 15.1732 2.93183 17.1052 2.17978C19.0604 1.40867 20.9473 1.09649 25.9842 1.68106Z" fill="white"/>
<path d="M41.0259 11.1379L43.9028 11.4718L43.5689 14.3488L40.692 14.0149L41.0259 11.1379ZM46.7798 11.8057L49.6567 12.1396L49.3228 15.0166L46.4459 14.6827L46.7798 11.8057ZM55.4114 12.8075L58.2884 13.1414L57.9545 16.0183L55.0776 15.6844L55.4114 12.8075ZM58.2884 13.1414L61.1662 13.4754L60.8323 16.3523L57.9545 16.0183L58.2884 13.1414ZM61.1662 13.4754L64.0431 13.8093L63.7092 16.6862L60.8323 16.3523L61.1662 13.4754ZM69.7979 14.4772L72.6748 14.811L72.3409 17.688L69.464 17.3541L69.7979 14.4772ZM72.6748 14.811L75.5526 15.145L75.2187 18.022L72.3409 17.688L72.6748 14.811ZM75.5526 15.145L78.4296 15.4789L78.0957 18.3559L75.2187 18.022L75.5526 15.145ZM40.692 14.0149L43.5689 14.3488L43.235 17.2257L40.3581 16.8918L40.692 14.0149ZM49.3228 15.0166L52.2006 15.3505L51.8667 18.2275L48.9898 17.8936L49.3228 15.0166ZM52.2006 15.3505L55.0776 15.6844L54.7437 18.5614L51.8667 18.2275L52.2006 15.3505Z" fill="#7436F5"/>
<path d="M55.0777 15.6844L57.9546 16.0183L57.6208 18.8953L54.7438 18.5614L55.0777 15.6844ZM63.7103 16.6863L66.5872 17.0202L66.2533 19.8972L63.3764 19.5633L63.7103 16.6863ZM66.5872 17.0202L69.4641 17.3541L69.1302 20.231L66.2533 19.8972L66.5872 17.0202ZM69.4641 17.3541L72.3411 17.688L72.0072 20.5649L69.1302 20.231L69.4641 17.3541ZM43.2352 17.2257L46.1121 17.5596L45.7782 20.4366L42.9013 20.1027L43.2352 17.2257ZM46.1121 17.5596L48.9891 17.8935L48.6552 20.7704L45.7782 20.4366L46.1121 17.5596ZM48.9891 17.8935L51.8669 18.2275L51.533 21.1044L48.6552 20.7704L48.9891 17.8935ZM51.8669 18.2275L54.7438 18.5614L54.4099 21.4383L51.533 21.1044L51.8669 18.2275ZM63.3764 19.5633L66.2533 19.8972L65.9194 22.7741L63.0425 22.4402L63.3764 19.5633ZM74.885 20.8989L77.7619 21.2328L77.4281 24.1098L74.5511 23.7759L74.885 20.8989ZM40.0243 19.7696L42.9013 20.1027L42.5673 22.9805L39.6904 22.6466L40.0243 19.7696ZM45.7782 20.4366L48.6552 20.7704L48.3212 23.6483L45.4442 23.3144L45.7782 20.4366ZM48.6559 20.7714L51.533 21.1044L51.199 23.9822L48.3212 23.6483L48.6559 20.7714ZM57.2876 21.7732L60.1646 22.1071L59.8307 24.984L56.9537 24.6501L57.2876 21.7732ZM60.1646 22.1071L63.0415 22.441L62.7076 25.3179L59.8307 24.984L60.1646 22.1071ZM65.9194 22.7741L68.7963 23.1089L68.4624 25.9858L65.5854 25.6519L65.9194 22.7741ZM71.6741 23.4428L74.5511 23.7759L74.2171 26.6537L71.3402 26.3198L71.6741 23.4428ZM42.5673 22.9805L45.4442 23.3144L45.1104 26.1913L42.2334 25.8574L42.5673 22.9805ZM48.3212 23.6483L51.199 23.9822L50.8651 26.8592L47.9882 26.5253L48.3212 23.6483ZM51.199 23.9822L54.0759 24.3161L53.742 27.1931L50.8651 26.8592L51.199 23.9822ZM56.9537 24.6501L59.8307 24.984L59.4968 27.861L56.6198 27.5271L56.9537 24.6501ZM62.7076 25.3179L65.5854 25.6519L65.2515 28.5288L62.3746 28.195L62.7076 25.3179ZM71.3402 26.3198L74.2171 26.6537L73.8832 29.5306L71.0063 29.1967L71.3402 26.3198ZM74.2171 26.6537L77.0941 26.9876L76.7602 29.8645L73.8832 29.5306L74.2171 26.6537ZM47.9882 26.5253L50.8651 26.8592L50.5311 29.737L47.6542 29.4031L47.9882 26.5253ZM53.742 27.1931L56.6189 27.5278L56.285 30.4048L53.408 30.0709L53.742 27.1931ZM59.4968 27.861L62.3736 28.1957L62.0397 31.0727L59.1628 30.7388L59.4968 27.861ZM62.3746 28.195L65.2515 28.5288L64.9175 31.4066L62.0397 31.0727L62.3746 28.195ZM65.2515 28.5288L68.1284 28.8636L67.7945 31.7405L64.9175 31.4066L65.2515 28.5288ZM68.1284 28.8636L71.0053 29.1975L70.6714 32.0744L67.7945 31.7405L68.1284 28.8636ZM71.0063 29.1967L73.8832 29.5306L73.5492 32.4084L70.6714 32.0744L71.0063 29.1967ZM73.8832 29.5306L76.7602 29.8645L76.4262 32.7423L73.5492 32.4084L73.8832 29.5306ZM39.0225 28.4013L41.8994 28.7352L41.5655 31.6122L38.6886 31.2783L39.0225 28.4013ZM44.7764 29.0691L47.6542 29.4031L47.3194 32.2799L44.4425 31.946L44.7764 29.0691ZM50.5311 29.737L53.408 30.0709L53.0742 32.9478L50.1972 32.6139L50.5311 29.737ZM56.285 30.4048L59.1628 30.7388L58.8289 33.6157L55.952 33.2818L56.285 30.4048ZM62.0397 31.0727L64.9175 31.4066L64.5837 34.2836L61.7067 33.9497L62.0397 31.0727ZM67.7945 31.7405L70.6714 32.0744L70.3375 34.9514L67.4606 34.6175L67.7945 31.7405ZM73.5492 32.4084L76.4262 32.7423L76.0923 35.6193L73.2153 35.2854L73.5492 32.4084ZM38.6886 31.2783L41.5655 31.6122L41.2316 34.4891L38.3547 34.1552L38.6886 31.2783Z" fill="#7436F5"/>
<path d="M41.5655 31.6123L44.4424 31.9461L44.1085 34.8231L41.2316 34.4892L41.5655 31.6123ZM44.4424 31.9461L47.3194 32.28L46.9855 35.157L44.1085 34.8231L44.4424 31.9461ZM58.8288 33.6158L61.7058 33.9497L61.3719 36.8266L58.495 36.4927L58.8288 33.6158ZM61.7058 33.9497L64.5836 34.2837L64.2497 37.1606L61.3719 36.8266L61.7058 33.9497ZM64.5836 34.2837L67.4605 34.6176L67.1266 37.4945L64.2497 37.1606L64.5836 34.2837ZM67.4605 34.6176L70.3375 34.9515L70.0036 37.8284L67.1266 37.4945L67.4605 34.6176ZM15.3364 31.4847L18.2134 31.8186L17.8795 34.6956L15.0025 34.3617L15.3364 31.4847ZM21.0903 32.1525L23.9672 32.4864L23.6333 35.3634L20.7564 35.0295L21.0903 32.1525ZM23.9672 32.4864L26.845 32.8204L26.5112 35.6973L23.6333 35.3634L23.9672 32.4864ZM29.7229 33.1544L32.5998 33.4883L32.2659 36.3652L29.389 36.0313L29.7229 33.1544ZM32.5998 33.4883L35.4767 33.8222L35.1428 36.6991L32.2659 36.3652L32.5998 33.4883ZM35.4767 33.8222L38.3537 34.1561L38.0198 37.033L35.1428 36.6991L35.4767 33.8222ZM44.1085 34.8231L46.9855 35.157L46.6515 38.0348L43.7745 37.7009L44.1085 34.8231ZM46.9862 35.1579L49.8632 35.4918L49.5293 38.3688L46.6515 38.0348L46.9862 35.1579ZM52.7401 35.8257L55.617 36.1596L55.2832 39.0366L52.4062 38.7027L52.7401 35.8257ZM58.495 36.4927L61.3719 36.8266L61.0379 39.7044L58.161 39.3706L58.495 36.4927ZM64.2497 37.1606L67.1266 37.4945L66.7927 40.3723L63.9157 40.0384L64.2497 37.1606ZM67.1266 37.4945L70.0036 37.8284L69.6696 40.7062L66.7927 40.3723L67.1266 37.4945ZM78.636 38.8312L81.513 39.165L81.1791 42.042L78.3022 41.7081L78.636 38.8312ZM87.2677 39.8329L90.1447 40.1668L89.8108 43.0438L86.9338 42.7099L87.2677 39.8329ZM93.0225 40.5008L95.8994 40.8347L95.5655 43.7116L92.6886 43.3778L93.0225 40.5008ZM95.8994 40.8347L98.7764 41.1686L98.4425 44.0455L95.5655 43.7116L95.8994 40.8347Z" fill="#7436F5"/>
<path d="M20.7563 35.0293L23.6333 35.3632L23.2994 38.2401L20.4225 37.9062L20.7563 35.0293ZM29.3889 36.0312L32.2658 36.3651L31.932 39.242L29.055 38.9081L29.3889 36.0312ZM35.1428 36.699L38.0197 37.0328L37.6858 39.9098L34.8089 39.5759L35.1428 36.699ZM38.0197 37.0328L40.8975 37.3668L40.5636 40.2438L37.6858 39.9098L38.0197 37.0328Z" fill="#7436F5"/>
<path d="M40.8975 37.3669L43.7744 37.7008L43.4405 40.5777L40.5636 40.2438L40.8975 37.3669ZM43.7744 37.7008L46.6514 38.0347L46.3175 40.9116L43.4405 40.5777L43.7744 37.7008ZM52.4061 38.7026L55.2831 39.0365L54.9492 41.9134L52.0722 41.5795L52.4061 38.7026ZM55.2831 39.0365L58.1609 39.3704L57.827 42.2474L54.9492 41.9134L55.2831 39.0365ZM58.1609 39.3704L61.0378 39.7043L60.7039 42.5813L57.827 42.2474L58.1609 39.3704ZM69.6704 40.7062L72.5473 41.0401L72.2134 43.917L69.3365 43.5831L69.6704 40.7062ZM72.5473 41.0401L75.4243 41.374L75.0904 44.2509L72.2134 43.917L72.5473 41.0401ZM75.4243 41.374L78.3012 41.7079L77.9673 44.5848L75.0904 44.2509L75.4243 41.374ZM78.3012 41.7079L81.179 42.0419L80.8451 44.9188L77.9673 44.5848L78.3012 41.7079ZM81.179 42.0419L84.0559 42.3758L83.7221 45.2527L80.8451 44.9188L81.179 42.0419ZM84.0559 42.3758L86.9329 42.7097L86.599 45.5866L83.7221 45.2527L84.0559 42.3758ZM95.5654 43.7115L98.4424 44.0454L98.1085 46.9224L95.2315 46.5885L95.5654 43.7115ZM14.6686 37.2385L17.5455 37.5724L17.2116 40.4493L14.3347 40.1155L14.6686 37.2385ZM20.4224 37.9063L23.2994 38.2402L22.9655 41.1171L20.0885 40.7832L20.4224 37.9063ZM23.2994 38.2402L26.1772 38.5742L25.8433 41.4511L22.9655 41.1171L23.2994 38.2402ZM31.9319 39.2421L34.8089 39.5759L34.475 42.4529L31.598 42.119L31.9319 39.2421ZM40.5636 40.2438L43.4405 40.5777L43.1067 43.4547L40.2297 43.1208L40.5636 40.2438ZM43.4405 40.5777L46.3175 40.9116L45.9836 43.7886L43.1067 43.4547L43.4405 40.5777ZM46.3175 40.9116L49.1953 41.2456L48.8614 44.1225L45.9836 43.7886L46.3175 40.9116ZM52.0722 41.5795L54.9492 41.9134L54.6153 44.7903L51.7383 44.4564L52.0722 41.5795ZM60.7039 42.5813L63.5817 42.9153L63.2478 45.7922L60.3709 45.4583L60.7039 42.5813ZM66.4587 43.2492L69.3365 43.5831L69.0017 46.46L66.1248 46.1261L66.4587 43.2492ZM75.0904 44.2509L77.9673 44.5848L77.6334 47.4618L74.7565 47.1279L75.0904 44.2509ZM83.7221 45.2527L86.599 45.5866L86.2651 48.4635L83.3882 48.1296L83.7221 45.2527ZM89.4768 45.9206L92.3537 46.2545L92.0198 49.1314L89.1429 48.7975L89.4768 45.9206ZM92.3537 46.2545L95.2315 46.5885L94.8977 49.4654L92.0198 49.1314L92.3537 46.2545ZM14.3347 40.1155L17.2116 40.4493L16.8776 43.3272L14.0007 42.9933L14.3347 40.1155ZM17.2116 40.4493L20.0885 40.7832L19.7545 43.661L16.8776 43.3272L17.2116 40.4493ZM22.9662 41.1181L25.8433 41.4511L25.5093 44.3289L22.6324 43.995L22.9662 41.1181ZM25.8433 41.4511L28.7201 41.7859L28.3862 44.6628L25.5093 44.3289L25.8433 41.4511ZM40.2297 43.1208L43.1067 43.4547L42.7727 46.3325L39.8957 45.9986L40.2297 43.1208ZM60.3709 45.4583L63.2478 45.7922L62.9139 48.67L60.0369 48.3361L60.3709 45.4583ZM66.1248 46.1261L69.0017 46.46L68.6677 49.3378L65.7908 49.0039L66.1248 46.1261ZM71.8794 46.7948L74.7565 47.1279L74.4225 50.0057L71.5455 49.6718L71.8794 46.7948ZM74.7565 47.1279L77.6334 47.4618L77.2994 50.3396L74.4225 50.0057L74.7565 47.1279ZM77.6342 47.4627L80.5111 47.7966L80.1772 50.6736L77.2994 50.3396L77.6342 47.4627ZM83.3882 48.1296L86.2651 48.4635L85.9311 51.3413L83.0542 51.0075L83.3882 48.1296ZM94.8977 49.4654L97.7745 49.8002L97.4406 52.6771L94.5637 52.3432L94.8977 49.4654ZM14.0007 42.9933L16.8776 43.3272L16.5437 46.2041L13.6668 45.8702L14.0007 42.9933ZM19.7545 43.661L22.6324 43.995L22.2976 46.8719L19.4207 46.538L19.7545 43.661ZM25.5093 44.3289L28.3862 44.6628L28.0523 47.5398L25.1754 47.2059L25.5093 44.3289ZM28.3862 44.6628L31.264 44.9968L30.9302 47.8737L28.0523 47.5398L28.3862 44.6628ZM31.264 44.9968L34.141 45.3307L33.8071 48.2076L30.9302 47.8737L31.264 44.9968ZM34.141 45.3307L37.0179 45.6646L36.684 48.5415L33.8071 48.2076L34.141 45.3307ZM37.0179 45.6646L39.8957 45.9986L39.5618 48.8755L36.684 48.5415L37.0179 45.6646ZM42.7727 46.3325L45.6496 46.6664L45.3157 49.5433L42.4388 49.2094L42.7727 46.3325ZM48.5274 47.0004L51.4044 47.3342L51.0705 50.2112L48.1935 49.8773L48.5274 47.0004ZM54.2822 47.6682L57.1591 48.0021L56.8252 50.8791L53.9483 50.5452L54.2822 47.6682ZM57.1591 48.0021L60.0369 48.3361L59.7022 51.213L56.8252 50.8791L57.1591 48.0021ZM62.9139 48.67L65.7908 49.0039L65.4569 51.8808L62.58 51.547L62.9139 48.67ZM68.6677 49.3378L71.5455 49.6718L71.2116 52.5487L68.3347 52.2148L68.6677 49.3378ZM85.9311 51.3413L88.8089 51.6753L88.475 54.5523L85.5981 54.2184L85.9311 51.3413Z" fill="#7436F5"/>
<path d="M88.809 51.6753L91.6859 52.0092L91.352 54.8862L88.4751 54.5523L88.809 51.6753ZM16.5438 46.2041L19.4207 46.538L19.0868 49.4149L16.2099 49.081L16.5438 46.2041ZM19.4207 46.538L22.2977 46.8719L21.9638 49.7488L19.0868 49.4149L19.4207 46.538ZM45.3167 49.5434L48.1936 49.8773L47.8597 52.7542L44.9828 52.4203L45.3167 49.5434ZM53.9484 50.5452L56.8253 50.8791L56.4914 53.756L53.6145 53.4221L53.9484 50.5452ZM59.7031 51.2131L62.58 51.5469L62.2462 54.4239L59.3692 54.09L59.7031 51.2131ZM68.3348 52.2148L71.2117 52.5487L70.8778 55.4257L68.0009 55.0918L68.3348 52.2148ZM74.0887 52.8826L76.9656 53.2165L76.6317 56.0934L73.7548 55.7596L74.0887 52.8826ZM76.9656 53.2165L79.8434 53.5505L79.5095 56.4274L76.6317 56.0934L76.9656 53.2165Z" fill="#7436F5"/>
<path d="M88.475 54.5522L91.3519 54.8861L91.018 57.763L88.1411 57.4291L88.475 54.5522ZM91.3519 54.8861L94.2297 55.2201L93.8959 58.097L91.018 57.763L91.3519 54.8861ZM94.2297 55.2201L97.1067 55.554L96.7728 58.4309L93.8959 58.097L94.2297 55.2201ZM13.3328 48.7479L16.2097 49.0818L15.8758 51.9588L12.9989 51.6249L13.3328 48.7479ZM19.0866 49.4157L21.9636 49.7496L21.6297 52.6265L18.7527 52.2926L19.0866 49.4157ZM30.5961 50.7515L33.4731 51.0854L33.1392 53.9623L30.2622 53.6284L30.5961 50.7515ZM39.2278 51.7532L42.1048 52.0871L41.7709 54.9641L38.8939 54.6302L39.2278 51.7532ZM47.8595 52.755L50.7364 53.0889L50.4026 55.9659L47.5256 55.632L47.8595 52.755Z" fill="#7436F5"/>
<path d="M50.7365 53.089L53.6134 53.4229L53.2795 56.2999L50.4026 55.966L50.7365 53.089ZM56.4912 53.7569L59.3681 54.0908L59.0343 56.9678L56.1573 56.6339L56.4912 53.7569ZM59.3681 54.0908L62.246 54.4248L61.9121 57.3017L59.0343 56.9678L59.3681 54.0908ZM62.246 54.4248L65.1229 54.7587L64.789 57.6356L61.9121 57.3017L62.246 54.4248ZM65.1229 54.7587L67.9998 55.0926L67.6659 57.9695L64.789 57.6356L65.1229 54.7587ZM67.9998 55.0926L70.8776 55.4266L70.5437 58.3035L67.6659 57.9695L67.9998 55.0926ZM70.8776 55.4266L73.7546 55.7605L73.4207 58.6374L70.5437 58.3035L70.8776 55.4266ZM73.7546 55.7605L76.6315 56.0944L76.2976 58.9713L73.4207 58.6374L73.7546 55.7605ZM76.6315 56.0944L79.5093 56.4284L79.1754 59.3053L76.2976 58.9713L76.6315 56.0944ZM79.5093 56.4284L82.3863 56.7622L82.0524 59.6392L79.1754 59.3053L79.5093 56.4284ZM82.3863 56.7622L85.2632 57.0961L84.9293 59.9731L82.0524 59.6392L82.3863 56.7622ZM88.141 57.4301L91.018 57.764L90.6841 60.641L87.8071 60.3071L88.141 57.4301ZM91.018 57.764L93.8958 58.098L93.5619 60.9749L90.6841 60.641L91.018 57.764ZM93.8958 58.098L96.7727 58.4319L96.4388 61.3088L93.5619 60.9749L93.8958 58.098ZM18.7528 52.2928L21.6297 52.6267L21.2958 55.5036L18.4189 55.1697L18.7528 52.2928ZM21.6297 52.6267L24.5075 52.9607L24.1736 55.8376L21.2958 55.5036L21.6297 52.6267ZM24.5075 52.9607L27.3844 53.2945L27.0505 56.1715L24.1736 55.8376L24.5075 52.9607ZM33.1392 53.9624L36.0161 54.2963L35.6822 57.1733L32.8053 56.8394L33.1392 53.9624ZM36.0161 54.2963L38.8939 54.6303L38.56 57.5073L35.6822 57.1733L36.0161 54.2963ZM41.7709 54.9642L44.6478 55.2981L44.3139 58.175L41.437 57.8411L41.7709 54.9642ZM53.2795 56.2999L56.1573 56.6339L55.8234 59.5108L52.9465 59.1769L53.2795 56.2999ZM59.0343 56.9678L61.9121 57.3017L61.5782 60.1787L58.7012 59.8448L59.0343 56.9678ZM64.789 57.6356L67.6659 57.9695L67.332 60.8465L64.4551 60.5126L64.789 57.6356ZM67.6659 57.9695L70.5437 58.3035L70.2099 61.1805L67.332 60.8465L67.6659 57.9695ZM73.4207 58.6374L76.2976 58.9713L75.9637 61.8482L73.0868 61.5143L73.4207 58.6374ZM82.0524 59.6392L84.9293 59.9731L84.5954 62.85L81.7185 62.5161L82.0524 59.6392ZM90.6841 60.641L93.5619 60.9749L93.228 63.8519L90.351 63.518L90.6841 60.641ZM12.6649 54.5028L15.5418 54.8367L15.2079 57.7136L12.331 57.3797L12.6649 54.5028ZM15.5418 54.8367L18.4189 55.1697L18.0849 58.0475L15.2079 57.7136L15.5418 54.8367ZM29.9283 56.5063L32.8053 56.8394L32.4713 59.7172L29.5944 59.3833L29.9283 56.5063ZM32.8053 56.8394L35.6822 57.1733L35.3482 60.0511L32.4713 59.7172L32.8053 56.8394ZM35.683 57.1742L38.56 57.5073L38.2261 60.3851L35.3482 60.0511L35.683 57.1742Z" fill="#7436F5"/>
<path d="M38.56 57.508L41.437 57.8419L41.1031 60.7189L38.2261 60.385L38.56 57.508ZM41.437 57.8419L44.3139 58.1758L43.98 61.0528L41.1031 60.7189L41.437 57.8419ZM44.3139 58.1758L47.1917 58.5098L46.8578 61.3867L43.98 61.0528L44.3139 58.1758ZM47.1917 58.5098L50.0686 58.8437L49.7348 61.7206L46.8578 61.3867L47.1917 58.5098ZM52.9465 59.1777L55.8234 59.5116L55.4895 62.3885L52.6126 62.0546L52.9465 59.1777ZM55.8234 59.5116L58.7003 59.8455L58.3664 62.7224L55.4895 62.3885L55.8234 59.5116ZM58.7003 59.8455L61.5781 60.1795L61.2443 63.0564L58.3664 62.7224L58.7003 59.8455ZM64.4551 60.5134L67.332 60.8473L66.9981 63.7242L64.1212 63.3903L64.4551 60.5134ZM70.2098 61.1812L73.0868 61.5151L72.7529 64.3921L69.8759 64.0582L70.2098 61.1812ZM73.0868 61.5151L75.9637 61.849L75.6298 64.726L72.7529 64.3921L73.0868 61.5151ZM78.8415 62.183L81.7185 62.5169L81.3846 65.3938L78.5076 65.06L78.8415 62.183ZM81.7185 62.5169L84.5954 62.8508L84.2615 65.7277L81.3846 65.3938L81.7185 62.5169ZM84.5954 62.8508L87.4732 63.1848L87.1393 66.0617L84.2615 65.7277L84.5954 62.8508ZM90.351 63.5188L93.228 63.8527L92.8941 66.7296L90.0171 66.3957L90.351 63.5188ZM23.8397 58.7153L26.7166 59.0492L26.3827 61.9261L23.5058 61.5923L23.8397 58.7153ZM26.7166 59.0492L29.5944 59.3832L29.2605 62.2601L26.3827 61.9261L26.7166 59.0492ZM35.3492 60.0511L38.2261 60.385L37.8922 63.2619L35.0153 62.928L35.3492 60.0511Z" fill="#7436F5"/>
<path d="M38.2261 60.385L41.103 60.7189L40.7691 63.5958L37.8922 63.2619L38.2261 60.385ZM52.6125 62.0547L55.4894 62.3886L55.1556 65.2655L52.2786 64.9316L52.6125 62.0547ZM58.3673 62.7226L61.2442 63.0564L60.9103 65.9334L58.0334 65.5995L58.3673 62.7226ZM61.2442 63.0564L64.1211 63.3903L63.7872 66.2673L60.9103 65.9334L61.2442 63.0564ZM69.8759 64.0582L72.7528 64.3921L72.4189 67.269L69.542 66.9352L69.8759 64.0582ZM78.5076 65.06L81.3845 65.3939L81.0506 68.2708L78.1737 67.9369L78.5076 65.06ZM84.2623 65.7279L87.1393 66.0618L86.8054 68.9387L83.9284 68.6048L84.2623 65.7279Z" fill="#7436F5"/>
<path d="M87.1393 66.0617L90.0162 66.3956L89.6824 69.2725L86.8054 68.9387L87.1393 66.0617ZM90.0162 66.3956L92.8941 66.7296L92.5602 69.6065L89.6824 69.2725L90.0162 66.3956ZM11.9972 60.2566L14.8741 60.5905L14.5402 63.4674L11.6633 63.1335L11.9972 60.2566ZM17.751 60.9244L20.628 61.2582L20.2941 64.1352L17.4172 63.8013L17.751 60.9244ZM20.628 61.2582L23.5058 61.5922L23.1719 64.4692L20.2941 64.1352L20.628 61.2582ZM23.5058 61.5922L26.3827 61.9261L26.0488 64.8031L23.1719 64.4692L23.5058 61.5922ZM29.2605 62.2601L32.1375 62.594L31.8036 65.471L28.9266 65.1371L29.2605 62.2601ZM40.7692 63.5958L43.6461 63.9297L43.3122 66.8066L40.4353 66.4727L40.7692 63.5958ZM49.4009 64.5976L52.2778 64.9315L51.9439 67.8084L49.067 67.4745L49.4009 64.5976ZM52.2778 64.9315L55.1556 65.2654L54.8217 68.1424L51.9439 67.8084L52.2778 64.9315ZM55.1556 65.2654L58.0325 65.5993L57.6987 68.4763L54.8217 68.1424L55.1556 65.2654ZM58.0325 65.5993L60.9104 65.9333L60.5765 68.8103L57.6987 68.4763L58.0325 65.5993ZM72.419 67.269L75.2959 67.6029L74.962 70.4798L72.0851 70.1459L72.419 67.269ZM78.1737 67.9369L81.0507 68.2708L80.7168 71.1477L77.8398 70.8138L78.1737 67.9369ZM86.8054 68.9387L89.6824 69.2725L89.3485 72.1495L86.4715 71.8156L86.8054 68.9387ZM20.2949 64.1362L23.1719 64.4692L22.8379 67.347L19.961 67.0131L20.2949 64.1362ZM26.0496 64.804L28.9266 65.1371L28.5927 68.0149L25.7157 67.681L26.0496 64.804ZM40.4353 66.4727L43.3122 66.8066L42.9782 69.6844L40.1013 69.3505L40.4353 66.4727ZM43.313 66.8076L46.1899 67.1415L45.856 70.0184L42.9782 69.6844L43.313 66.8076ZM49.067 67.4745L51.9439 67.8084L51.6099 70.6862L48.733 70.3523L49.067 67.4745ZM51.9447 67.8094L54.8217 68.1424L54.4877 71.0202L51.6099 70.6862L51.9447 67.8094ZM60.5765 68.8103L63.4533 69.145L63.1194 72.022L60.2425 71.6881L60.5765 68.8103ZM66.3311 69.479L69.208 69.8129L68.8742 72.6899L65.9972 72.356L66.3311 69.479ZM72.0851 70.1459L74.962 70.4798L74.628 73.3576L71.7511 73.0237L72.0851 70.1459ZM80.7168 71.1477L83.5936 71.4825L83.2597 74.3594L80.3828 74.0255L80.7168 71.1477ZM86.4715 71.8156L89.3485 72.1495L89.0145 75.0273L86.1375 74.6934L86.4715 71.8156ZM14.2062 66.3452L17.0832 66.6791L16.7493 69.5561L13.8723 69.2222L14.2062 66.3452ZM28.5927 68.0149L31.4696 68.3488L31.1357 71.2257L28.2588 70.8918L28.5927 68.0149ZM31.4696 68.3488L34.3465 68.6827L34.0126 71.5596L31.1357 71.2257L31.4696 68.3488ZM34.3465 68.6827L37.2243 69.0166L36.8905 71.8936L34.0126 71.5596L34.3465 68.6827Z" fill="#7436F5"/>
<path d="M37.2244 69.0166L40.1013 69.3505L39.7674 72.2274L36.8905 71.8935L37.2244 69.0166ZM40.1013 69.3505L42.9782 69.6844L42.6444 72.5613L39.7674 72.2274L40.1013 69.3505ZM45.8561 70.0184L48.733 70.3523L48.3991 73.2292L45.5222 72.8953L45.8561 70.0184Z" fill="#7436F5"/>
<path d="M48.7329 70.3523L51.6099 70.6862L51.276 73.5631L48.399 73.2292L48.7329 70.3523ZM51.6099 70.6862L54.4877 71.0202L54.1538 73.8971L51.276 73.5631L51.6099 70.6862ZM57.3655 71.3542L60.2424 71.6881L59.9085 74.565L57.0316 74.2311L57.3655 71.3542ZM60.2424 71.6881L63.1193 72.022L62.7855 74.8989L59.9085 74.565L60.2424 71.6881ZM63.1193 72.022L65.9963 72.3558L65.6624 75.2328L62.7855 74.8989L63.1193 72.022ZM68.8741 72.6898L71.751 73.0237L71.4171 75.9007L68.5402 75.5668L68.8741 72.6898ZM71.751 73.0237L74.628 73.3576L74.2941 76.2346L71.4171 75.9007L71.751 73.0237ZM74.628 73.3576L77.5058 73.6916L77.1719 76.5686L74.2941 76.2346L74.628 73.3576ZM77.5058 73.6916L80.3827 74.0255L80.0488 76.9024L77.1719 76.5686L77.5058 73.6916ZM80.3827 74.0255L83.2597 74.3594L82.9258 77.2363L80.0488 76.9024L80.3827 74.0255ZM83.2597 74.3594L86.1375 74.6934L85.8036 77.5703L82.9258 77.2363L83.2597 74.3594Z" fill="#7436F5"/>
<path d="M86.1375 74.6935L89.0145 75.0274L88.6806 77.9043L85.8036 77.5705L86.1375 74.6935ZM34.0135 71.5598L36.8905 71.8937L36.5566 74.7706L33.6796 74.4367L34.0135 71.5598ZM54.1538 73.8972L57.0308 74.2311L56.6969 77.1081L53.8199 76.7742L54.1538 73.8972ZM57.0308 74.2311L59.9086 74.5651L59.5747 77.4421L56.6969 77.1081L57.0308 74.2311ZM59.9086 74.5651L62.7855 74.899L62.4516 77.776L59.5747 77.4421L59.9086 74.5651ZM62.7855 74.899L65.6625 75.2329L65.3286 78.1098L62.4516 77.776L62.7855 74.899ZM68.5403 75.5669L71.4172 75.9008L71.0833 78.7777L68.2064 78.4438L68.5403 75.5669ZM80.0489 76.9026L82.9258 77.2365L82.5919 80.1134L79.715 79.7795L80.0489 76.9026ZM82.9258 77.2365L85.8036 77.5705L85.4698 80.4474L82.5919 80.1134L82.9258 77.2365Z" fill="#7436F5"/>
<path d="M85.8038 77.5705L88.6807 77.9044L88.3468 80.7813L85.4699 80.4474L85.8038 77.5705ZM88.6807 77.9044L91.5585 78.2383L91.2247 81.1153L88.3468 80.7813L88.6807 77.9044ZM91.5585 78.2383L94.4355 78.5722L94.1016 81.4492L91.2247 81.1153L91.5585 78.2383ZM33.6797 74.4376L36.5566 74.7715L36.2227 77.6484L33.3458 77.3146L33.6797 74.4376Z" fill="#7436F5"/>
<path d="M36.5564 74.7714L39.4333 75.1053L39.0994 77.9822L36.2225 77.6483L36.5564 74.7714ZM39.4333 75.1053L42.3103 75.4392L41.9764 78.3161L39.0994 77.9822L39.4333 75.1053ZM45.1881 75.7732L48.065 76.1071L47.7311 78.984L44.8542 78.6501L45.1881 75.7732ZM50.9428 76.441L53.8198 76.7749L53.4859 79.6519L50.6089 79.318L50.9428 76.441ZM53.8198 76.7749L56.6967 77.1088L56.3628 79.9858L53.4859 79.6519L53.8198 76.7749ZM62.4514 77.7767L65.3284 78.1106L64.9945 80.9875L62.1176 80.6537L62.4514 77.7767ZM65.3284 78.1106L68.2062 78.4446L67.8723 81.3215L64.9945 80.9875L65.3284 78.1106ZM68.2062 78.4446L71.0831 78.7785L70.7492 81.6554L67.8723 81.3215L68.2062 78.4446ZM73.9609 79.1125L76.8379 79.4464L76.504 82.3233L73.6271 81.9894L73.9609 79.1125ZM79.7148 79.7803L82.5918 80.1142L82.2579 82.9911L79.3809 82.6572L79.7148 79.7803ZM82.5918 80.1142L85.4696 80.4481L85.1357 83.3251L82.2579 82.9911L82.5918 80.1142ZM88.3474 80.7821L91.2243 81.116L90.8904 83.993L88.0135 83.6591L88.3474 80.7821ZM33.3456 77.3144L36.2225 77.6483L35.8886 80.5253L33.0117 80.1914L33.3456 77.3144ZM39.0994 77.9822L41.9764 78.3161L41.6425 81.1931L38.7655 80.8592L39.0994 77.9822ZM41.9764 78.3161L44.8542 78.6501L44.5203 81.527L41.6425 81.1931L41.9764 78.3161ZM47.7311 78.984L50.6089 79.318L50.2742 82.1948L47.3972 81.8609L47.7311 78.984ZM50.6089 79.318L53.4859 79.6519L53.152 82.5288L50.2742 82.1948L50.6089 79.318ZM53.4859 79.6519L56.3628 79.9858L56.0289 82.8627L53.152 82.5288L53.4859 79.6519ZM62.1176 80.6537L64.9945 80.9875L64.6606 83.8645L61.7837 83.5306L62.1176 80.6537ZM64.9945 80.9875L67.8723 81.3215L67.5384 84.1985L64.6606 83.8645L64.9945 80.9875ZM67.8723 81.3215L70.7492 81.6554L70.4154 84.5324L67.5384 84.1985L67.8723 81.3215ZM79.3809 82.6572L82.2579 82.9911L81.924 85.868L79.047 85.5341L79.3809 82.6572ZM82.2579 82.9911L85.1357 83.3251L84.8018 86.202L81.924 85.868L82.2579 82.9911ZM38.7655 80.8592L41.6425 81.1931L41.3086 84.07L38.4316 83.7361L38.7655 80.8592ZM41.6425 81.1931L44.5203 81.527L44.1864 84.404L41.3086 84.07L41.6425 81.1931ZM44.5203 81.527L47.3972 81.8609L47.0633 84.7379L44.1864 84.404L44.5203 81.527ZM58.9067 83.1967L61.7837 83.5306L61.4498 86.4075L58.5728 86.0736L58.9067 83.1967ZM67.5384 84.1985L70.4154 84.5324L70.0815 87.4093L67.2045 87.0754L67.5384 84.1985ZM70.4154 84.5324L73.2923 84.8663L72.9584 87.7432L70.0815 87.4093L70.4154 84.5324ZM73.2923 84.8663L76.1701 85.2003L75.8362 88.0772L72.9584 87.7432L73.2923 84.8663ZM76.1701 85.2003L79.047 85.5341L78.7132 88.4111L75.8362 88.0772L76.1701 85.2003ZM79.047 85.5341L81.924 85.868L81.5901 88.745L78.7132 88.4111L79.047 85.5341ZM84.8018 86.202L87.6787 86.5359L87.3448 89.4129L84.4679 89.079L84.8018 86.202ZM90.5565 86.8699L93.4335 87.2038L93.0996 90.0807L90.2226 89.7468L90.5565 86.8699ZM32.6777 83.0692L35.5546 83.4031L35.2207 86.28L32.3438 85.9461L32.6777 83.0692Z" fill="#7436F5"/>
<path d="M35.5547 83.4031L38.4316 83.737L38.0977 86.6139L35.2208 86.28L35.5547 83.4031ZM38.4316 83.737L41.3086 84.0709L40.9747 86.9478L38.0977 86.6139L38.4316 83.737ZM41.3086 84.0709L44.1864 84.4049L43.8525 87.2818L40.9747 86.9478L41.3086 84.0709ZM44.1864 84.4049L47.0633 84.7387L46.7294 87.6157L43.8525 87.2818L44.1864 84.4049Z" fill="#7436F5"/>
<path d="M47.0633 84.7389L49.9402 85.0728L49.6064 87.9497L46.7294 87.6158L47.0633 84.7389ZM58.5728 86.0747L61.4497 86.4085L61.1158 89.2855L58.2389 88.9516L58.5728 86.0747ZM67.2045 87.0764L70.0814 87.4103L69.7475 90.2873L66.8706 89.9534L67.2045 87.0764ZM70.0814 87.4103L72.9584 87.7442L72.6245 90.6212L69.7475 90.2873L70.0814 87.4103ZM75.8362 88.0782L78.7131 88.4121L78.3792 91.289L75.5023 90.9551L75.8362 88.0782ZM78.7131 88.4121L81.5901 88.746L81.2562 91.6229L78.3792 91.289L78.7131 88.4121ZM81.5901 88.746L84.4679 89.08L84.134 91.9569L81.2562 91.6229L81.5901 88.746ZM87.3457 89.414L90.2226 89.7479L89.8887 92.6248L87.0118 92.2909L87.3457 89.414ZM32.3438 85.9463L35.2208 86.2802L34.8869 89.1571L32.01 88.8232L32.3438 85.9463Z" fill="#7436F5"/>
<path d="M35.2209 86.28L38.0979 86.6139L37.764 89.4909L34.8871 89.157L35.2209 86.28ZM46.7296 87.6157L49.6065 87.9496L49.2726 90.8265L46.3957 90.4926L46.7296 87.6157ZM55.3621 88.6176L58.2391 88.9515L57.9052 91.8284L55.0282 91.4945L55.3621 88.6176ZM63.9938 89.6193L66.8708 89.9532L66.5369 92.8302L63.6599 92.4963L63.9938 89.6193ZM69.7477 90.2871L72.6246 90.621L72.2907 93.498L69.4138 93.1641L69.7477 90.2871ZM75.5024 90.955L78.3794 91.2889L78.0455 94.1658L75.1686 93.832L75.5024 90.955ZM84.1341 91.9568L87.0111 92.2907L86.6772 95.1676L83.8002 94.8337L84.1341 91.9568ZM89.8889 92.6247L92.7658 92.9586L92.4319 95.8355L89.555 95.5016L89.8889 92.6247ZM43.5186 90.1596L46.3957 90.4926L46.0617 93.3704L43.1848 93.0366L43.5186 90.1596Z" fill="#7436F5"/>
<path d="M46.3956 90.4935L49.2725 90.8274L48.9386 93.7044L46.0617 93.3705L46.3956 90.4935ZM52.1503 91.1614L55.0273 91.4953L54.6934 94.3722L51.8164 94.0384L52.1503 91.1614ZM55.0273 91.4953L57.9051 91.8293L57.5712 94.7062L54.6934 94.3722L55.0273 91.4953ZM63.6598 92.4972L66.5368 92.8311L66.2029 95.708L63.3259 95.3741L63.6598 92.4972ZM66.5368 92.8311L69.4137 93.165L69.0798 96.0419L66.2029 95.708L66.5368 92.8311ZM69.4137 93.165L72.2906 93.4989L71.9568 96.3758L69.0798 96.0419L69.4137 93.165ZM78.0454 94.1667L80.9223 94.5006L80.5884 97.3776L77.7115 97.0437L78.0454 94.1667ZM80.9223 94.5006L83.8001 94.8346L83.4662 97.7116L80.5884 97.3776L80.9223 94.5006ZM86.6779 95.1686L89.5549 95.5025L89.221 98.3794L86.3441 98.0456L86.6779 95.1686ZM31.6761 91.7009L34.5531 92.0348L34.2192 94.9117L31.3422 94.5778L31.6761 91.7009ZM46.0617 93.3705L48.9386 93.7044L48.6047 96.5813L45.7278 96.2474L46.0617 93.3705ZM60.4481 95.0401L63.3259 95.3741L62.9912 98.251L60.1142 97.9171L60.4481 95.0401ZM63.3259 95.3741L66.2029 95.708L65.869 98.5849L62.9912 98.251L63.3259 95.3741ZM66.2029 95.708L69.0798 96.0419L68.7459 98.9188L65.869 98.5849L66.2029 95.708ZM74.8346 96.7098L77.7115 97.0437L77.3776 99.9206L74.5007 99.5867L74.8346 96.7098ZM80.5884 97.3776L83.4662 97.7116L83.1324 100.588L80.2554 100.255L80.5884 97.3776ZM86.3441 98.0456L89.221 98.3794L88.8871 101.256L86.0102 100.922L86.3441 98.0456Z" fill="#7436F5"/>
<path d="M31.2721 10.0076L24.8837 9.26617C21.7703 8.90484 18.8945 10.6561 17.7243 13.369C17.4638 13.9732 17.2935 14.6123 17.2188 15.2659L16.4599 21.8046C16.0248 25.5542 18.7563 28.9622 22.5468 29.4021L28.9351 30.1436C32.7256 30.5835 36.1651 27.8917 36.6002 24.1421L37.3592 17.6025C37.7943 13.8538 35.0626 10.4466 31.273 10.0068L31.2721 10.0076ZM33.5798 23.7924C33.338 25.8758 31.4116 27.3699 29.2848 27.1231L22.8982 26.3819C20.7713 26.135 19.2392 24.2395 19.481 22.1561L20.24 15.6165C20.3156 14.9655 20.5553 14.3723 20.9147 13.8714C21.2622 13.3887 21.7167 12.9928 22.2425 12.7148C22.9449 12.3431 23.7439 12.1941 24.5331 12.2874L30.9214 13.0288C33.0474 13.2755 34.5804 15.1703 34.3388 17.2528L33.5798 23.7924Z" fill="#7436F5"/>
<path d="M94.5716 17.354L88.1833 16.6126C85.0699 16.2513 82.1941 18.0025 81.0239 20.7155C80.7634 21.3196 80.5931 21.9587 80.5184 22.6123L79.7595 29.1511C79.3243 32.9007 82.0559 36.3087 85.8463 36.7486L92.2347 37.49C96.0251 37.9299 99.4646 35.2381 99.8998 31.4885L100.659 24.9489C101.094 21.2002 98.3622 17.7931 94.5726 17.3533L94.5716 17.354ZM96.8793 31.1388C96.6375 33.2222 94.7112 34.7164 92.5844 34.4695L86.1977 33.7283C84.0709 33.4815 82.5388 31.586 82.7806 29.5026L83.5396 22.963C83.6151 22.312 83.8549 21.7188 84.2143 21.2179C84.5618 20.7351 85.0162 20.3393 85.5421 20.0612C86.2445 19.6896 87.0434 19.5405 87.8326 19.6338L94.221 20.3752C96.347 20.622 97.88 22.5167 97.6383 24.5992L96.8793 31.1388Z" fill="#7436F5"/>
<path d="M23.9255 73.3073L17.5371 72.5658C14.4238 72.2045 11.5479 73.9558 10.3778 76.6687C10.1173 77.2728 9.94693 77.9119 9.87221 78.5656L9.11324 85.1052C8.67807 88.8548 11.4096 92.2628 15.2001 92.7027L21.5884 93.4441C25.3789 93.884 28.8184 91.1922 29.2536 87.4426L30.0125 80.903C30.4476 77.1543 27.7159 73.7472 23.9264 73.3074L23.9255 73.3073ZM26.2332 87.0921C25.9914 89.1755 24.0651 90.6696 21.9382 90.4228L15.5516 89.6816C13.4247 89.4347 11.8927 87.5392 12.1345 85.4558L12.8934 78.9162C12.969 78.2652 13.2087 77.672 13.5681 77.1711C13.9156 76.6883 14.3701 76.2925 14.8959 76.0145C15.5984 75.6428 16.3973 75.4937 17.1865 75.5871L23.5748 76.3285C25.7008 76.5752 27.2339 78.47 26.9922 80.5525L26.2332 87.0921Z" fill="#7436F5"/>
<path d="M24.4546 23.794C23.1517 23.6428 22.2128 22.4812 22.3607 21.2062L22.8256 17.201C22.8718 16.803 23.0196 16.4396 23.2385 16.1329C23.4499 15.8368 23.7299 15.5945 24.0518 15.4248C24.4657 15.2051 24.9523 15.1039 25.4546 15.1622L29.3676 15.6163C30.6688 15.7673 31.6078 16.928 31.46 18.2022L30.995 22.2082C30.8471 23.4833 29.6661 24.3989 28.3659 24.248L24.4529 23.7938L24.4546 23.794ZM87.7534 31.1404C86.4505 30.9891 85.5115 29.8275 85.6595 28.5525L86.1243 24.5473C86.1705 24.1493 86.3184 23.7859 86.5372 23.4792C86.7486 23.1831 87.0287 22.9408 87.3505 22.7711C87.7645 22.5514 88.251 22.4502 88.7534 22.5085L92.6664 22.9626C93.9675 23.1136 94.9066 24.2744 94.7587 25.5486L94.2938 29.5545C94.1458 30.8296 92.9649 31.7452 91.6646 31.5943L87.7534 31.1404ZM17.1082 87.0937C15.8053 86.9425 14.8664 85.7808 15.0143 84.5058L15.4792 80.5007C15.5254 80.1026 15.6732 79.7392 15.8921 79.4325C16.1035 79.1364 16.3835 78.8941 16.7054 78.7244C17.1193 78.5047 17.6059 78.4035 18.1082 78.4618L22.0212 78.9159C23.3224 79.0669 24.2614 80.2277 24.1136 81.5019L23.6486 85.5078C23.5006 86.7829 22.3197 87.6985 21.0194 87.5476L17.1065 87.0935L17.1082 87.0937Z" fill="#7436F5"/>
<path d="M164.343 102.705C161.573 93.9546 154.717 81.2671 139.403 79.9546C124.09 78.6421 126.277 93.5171 134.153 93.5171C147.279 93.5171 131.09 74.2671 112.714 65.9546" stroke="#FFAB1C" stroke-width="3.5" stroke-linecap="round"/>
<path d="M119.716 63.4539L111.964 63.957L112.467 71.7095" stroke="#FFAB1C" stroke-width="3.5" stroke-linecap="round" stroke-linejoin="round"/>
<path d="M56.8186 131.3C54.0606 131.3 52.7866 130.18 52.7866 128.108V127.926H54.8446V128.066C54.8446 129.102 55.2226 129.396 56.9166 129.396C58.1066 129.396 58.4006 129.158 58.4006 128.528C58.4006 127.898 58.2606 127.674 56.9446 127.45L55.2926 127.156C53.5006 126.848 52.7446 125.938 52.7446 124.482C52.7446 123.054 53.7946 121.64 56.4826 121.64C59.1566 121.64 60.2766 123.026 60.2766 124.888V125H58.2046V124.846C58.2046 123.866 57.7986 123.544 56.4126 123.544C55.2086 123.544 54.8306 123.81 54.8306 124.398C54.8306 125 55.0826 125.14 56.1746 125.35L57.8406 125.672C59.8146 126.05 60.4866 127.086 60.4866 128.458C60.4866 129.956 59.4786 131.3 56.8186 131.3ZM64.6902 131.3C62.3662 131.3 61.1202 129.886 61.1202 127.66C61.1202 125.406 62.4502 123.978 64.8022 123.978C66.6782 123.978 68.0502 125.126 68.0502 126.862V127.03H65.9502V126.918C65.9502 126.12 65.5022 125.854 64.6342 125.854C63.6262 125.854 63.1922 126.33 63.1922 127.646C63.1922 128.948 63.6262 129.424 64.6342 129.424C65.5022 129.424 65.9502 129.158 65.9502 128.36V128.248H68.0502V128.416C68.0502 130.152 66.6362 131.3 64.6902 131.3ZM71.0018 131.3C69.7558 131.3 68.7898 130.642 68.7898 129.368C68.7898 128.276 69.5738 127.604 71.0298 127.38L73.4378 127.016V126.792C73.4378 125.966 72.9898 125.812 72.1638 125.812C71.3098 125.812 70.9738 126.05 70.9738 126.764V126.918H68.9718V126.764C68.9718 125.084 70.2738 123.978 72.2618 123.978C74.3338 123.978 75.4258 125.112 75.4258 126.988V131.16H73.4798V130.208H73.3958C73.0178 130.726 72.3038 131.3 71.0018 131.3ZM70.7918 129.2C70.7918 129.578 71.0858 129.704 71.7018 129.704C72.5558 129.704 73.4378 129.48 73.4378 128.388L71.4218 128.696C70.9878 128.766 70.7918 128.906 70.7918 129.2ZM78.757 131.16H76.671V124.118H78.617V125.35H78.701C79.079 124.552 79.835 123.978 81.067 123.978C82.901 123.978 83.685 125.196 83.685 126.694V131.16H81.585V127.114C81.585 126.134 81.263 125.784 80.199 125.784C79.191 125.784 78.757 126.106 78.757 127.17V131.16ZM90.8292 131.188C88.9952 131.188 88.1132 130.516 88.1132 128.85V125.854H86.9932V124.118H88.1692L88.5612 122.48H90.2132V124.118H92.2012V125.854H90.2132V128.612C90.2132 129.228 90.4232 129.298 91.3332 129.298H92.2012V131.048C91.8652 131.118 91.3192 131.188 90.8292 131.188ZM96.3416 131.3C94.0736 131.3 92.7296 129.872 92.7296 127.646C92.7296 125.406 94.0736 123.978 96.3416 123.978C98.5956 123.978 99.9116 125.406 99.9116 127.646C99.9116 129.872 98.5956 131.3 96.3416 131.3ZM96.3416 129.452C97.4756 129.452 97.8676 129.004 97.8676 127.646C97.8676 126.274 97.4756 125.826 96.3416 125.826C95.1936 125.826 94.8016 126.274 94.8016 127.646C94.8016 129.004 95.1936 129.452 96.3416 129.452ZM107.216 131.16H103.632V121.78H107.216C110.226 121.78 112.074 123.53 112.074 126.47C112.074 129.41 110.226 131.16 107.216 131.16ZM107.188 123.67H105.732V129.27H107.188C109.092 129.27 109.82 128.696 109.82 126.47C109.82 124.244 109.092 123.67 107.188 123.67ZM116.467 131.3C114.199 131.3 112.855 129.872 112.855 127.646C112.855 125.406 114.199 123.978 116.467 123.978C118.721 123.978 120.037 125.406 120.037 127.646C120.037 129.872 118.721 131.3 116.467 131.3ZM116.467 129.452C117.601 129.452 117.993 129.004 117.993 127.646C117.993 126.274 117.601 125.826 116.467 125.826C115.319 125.826 114.927 126.274 114.927 127.646C114.927 129.004 115.319 129.452 116.467 129.452ZM124.558 131.16H121.814L120.176 124.118H122.486L122.948 127.366L123.214 129.48H123.368L123.76 127.366L124.614 124.118H127.288L128.156 127.38L128.534 129.48H128.674L128.926 127.38L129.416 124.118H131.628L129.99 131.16H127.246L126.336 127.814L125.986 125.966H125.832L125.482 127.814L124.558 131.16ZM134.361 131.16H132.275V124.118H134.221V125.35H134.305C134.683 124.552 135.439 123.978 136.671 123.978C138.505 123.978 139.289 125.196 139.289 126.694V131.16H137.189V127.114C137.189 126.134 136.867 125.784 135.803 125.784C134.795 125.784 134.361 126.106 134.361 127.17V131.16ZM142.605 131.16H140.519V121.78H142.605V131.16ZM147.187 131.3C144.919 131.3 143.575 129.872 143.575 127.646C143.575 125.406 144.919 123.978 147.187 123.978C149.441 123.978 150.757 125.406 150.757 127.646C150.757 129.872 149.441 131.3 147.187 131.3ZM147.187 129.452C148.321 129.452 148.713 129.004 148.713 127.646C148.713 126.274 148.321 125.826 147.187 125.826C146.039 125.826 145.647 126.274 145.647 127.646C145.647 129.004 146.039 129.452 147.187 129.452ZM153.717 131.3C152.471 131.3 151.505 130.642 151.505 129.368C151.505 128.276 152.289 127.604 153.745 127.38L156.153 127.016V126.792C156.153 125.966 155.705 125.812 154.879 125.812C154.025 125.812 153.689 126.05 153.689 126.764V126.918H151.687V126.764C151.687 125.084 152.989 123.978 154.977 123.978C157.049 123.978 158.141 125.112 158.141 126.988V131.16H156.195V130.208H156.111C155.733 130.726 155.019 131.3 153.717 131.3ZM153.507 129.2C153.507 129.578 153.801 129.704 154.417 129.704C155.271 129.704 156.153 129.48 156.153 128.388L154.137 128.696C153.703 128.766 153.507 128.906 153.507 129.2ZM162.145 131.3C160.157 131.3 159.093 129.858 159.093 127.646C159.093 125.42 160.227 123.978 162.145 123.978C163.223 123.978 163.867 124.454 164.189 125.042H164.273V121.78H166.359V131.16H164.413V130.124H164.343C163.979 130.88 163.181 131.3 162.145 131.3ZM161.179 127.646C161.179 128.92 161.515 129.508 162.733 129.508C163.727 129.508 164.273 129.158 164.273 128.206V127.072C164.273 126.12 163.727 125.77 162.733 125.77C161.515 125.77 161.179 126.358 161.179 127.646Z" fill="#F4EFFF"/>
</svg>
