<svg width="322" height="349" viewBox="0 0 322 349" fill="none" xmlns="http://www.w3.org/2000/svg">
<g clip-path="url(#clip0_3824_1693)">
<rect width="321.504" height="697" rx="32.723" fill="white"/>
<path d="M163.206 399.002C198.1 399.002 226.388 370.714 226.388 335.82C226.388 300.926 198.1 272.638 163.206 272.638C128.312 272.638 100.024 300.926 100.024 335.82C100.024 370.714 128.312 399.002 163.206 399.002Z" fill="#15AB52"/>
<path fill-rule="evenodd" clip-rule="evenodd" d="M194.094 305.453C196.908 308.555 196.674 313.349 193.573 316.163C185.706 323.299 180.342 329.218 175.906 336.143C171.44 343.113 167.707 351.426 163.474 363.585C162.609 366.07 160.518 367.928 157.95 368.496C155.381 369.063 152.702 368.259 150.871 366.371L132.49 347.416C129.575 344.41 129.649 339.61 132.655 336.695C135.661 333.78 140.461 333.854 143.376 336.86L153.413 347.211C156.404 339.855 159.5 333.641 163.138 327.962C168.544 319.525 174.938 312.594 183.385 304.932C186.486 302.118 191.281 302.352 194.094 305.453Z" fill="white"/>
<rect width="321.504" height="138.535" transform="translate(0 68.7183)" fill="white"/>
<path d="M85.7811 112.897H82.9538V95.3572H90.4932C92.4479 95.3572 93.9837 95.8197 95.1006 96.7447C96.235 97.6697 96.8022 98.9524 96.8022 100.593C96.8022 102.041 96.3746 103.185 95.5195 104.022C94.6818 104.86 93.4863 105.322 91.933 105.41V105.619C93.05 105.986 93.9488 106.788 94.6294 108.028L97.2473 112.897H93.975L91.488 108.368C91.0517 107.548 90.5805 106.972 90.0744 106.64C89.5857 106.309 88.844 106.143 87.8492 106.143H85.7811V112.897ZM85.7811 97.8965V103.813H90.8335C91.9679 103.813 92.7707 103.586 93.242 103.132C93.7306 102.678 93.975 101.919 93.975 100.855C93.975 99.8076 93.7306 99.0571 93.242 98.6034C92.7707 98.1321 91.9679 97.8965 90.8335 97.8965H85.7811ZM104.255 113.159C102.178 113.159 100.608 112.556 99.5432 111.352C98.4786 110.131 97.9463 108.473 97.9463 106.378C97.9463 104.354 98.5135 102.722 99.6479 101.483C100.782 100.244 102.309 99.6243 104.229 99.6243C106.009 99.6243 107.449 100.13 108.549 101.143C109.648 102.155 110.198 103.534 110.198 105.279C110.198 105.942 110.145 106.535 110.041 107.059H100.59C100.643 108.298 100.939 109.206 101.48 109.782C102.039 110.357 102.973 110.645 104.281 110.645C106.288 110.645 107.292 110.008 107.292 108.734V108.525H110.093V108.761C110.093 110.087 109.561 111.152 108.496 111.954C107.432 112.757 106.018 113.159 104.255 113.159ZM104.177 102.007C102.99 102.007 102.117 102.277 101.559 102.818C101.018 103.342 100.704 104.127 100.616 105.174H107.501C107.554 104.092 107.292 103.298 106.716 102.792C106.158 102.268 105.311 102.007 104.177 102.007ZM117.608 113.159C115.828 113.159 114.458 112.556 113.498 111.352C112.538 110.148 112.058 108.499 112.058 106.405C112.058 104.31 112.547 102.661 113.524 101.457C114.501 100.235 115.898 99.6243 117.713 99.6243C119.964 99.6243 121.421 100.427 122.084 102.033H122.189V99.8861H124.781V117.426H121.98V110.881H121.901C121.587 111.527 121.055 112.068 120.304 112.504C119.571 112.94 118.673 113.159 117.608 113.159ZM114.885 106.405C114.885 107.975 115.156 109.092 115.697 109.755C116.255 110.419 117.163 110.75 118.419 110.75C120.793 110.75 121.98 109.686 121.98 107.556V105.226C121.98 103.097 120.793 102.033 118.419 102.033C117.145 102.033 116.238 102.364 115.697 103.028C115.156 103.691 114.885 104.816 114.885 106.405ZM132.406 113.159C130.783 113.159 129.552 112.679 128.715 111.719C127.894 110.759 127.484 109.494 127.484 107.923V99.8861H130.311V107.425C130.311 108.595 130.556 109.441 131.044 109.965C131.533 110.471 132.336 110.724 133.453 110.724C134.587 110.724 135.434 110.453 135.992 109.912C136.568 109.354 136.856 108.455 136.856 107.216V99.8861H139.683V112.897H137.065V110.305H136.961C136.158 112.207 134.64 113.159 132.406 113.159ZM148.201 113.159C146.124 113.159 144.554 112.556 143.489 111.352C142.425 110.131 141.892 108.473 141.892 106.378C141.892 104.354 142.459 102.722 143.594 101.483C144.728 100.244 146.255 99.6243 148.175 99.6243C149.955 99.6243 151.395 100.13 152.495 101.143C153.594 102.155 154.144 103.534 154.144 105.279C154.144 105.942 154.091 106.535 153.987 107.059H144.536C144.589 108.298 144.885 109.206 145.426 109.782C145.985 110.357 146.919 110.645 148.227 110.645C150.234 110.645 151.238 110.008 151.238 108.734V108.525H154.039V108.761C154.039 110.087 153.507 111.152 152.442 111.954C151.378 112.757 149.964 113.159 148.201 113.159ZM148.123 102.007C146.936 102.007 146.063 102.277 145.505 102.818C144.964 103.342 144.65 104.127 144.562 105.174H151.447C151.5 104.092 151.238 103.298 150.662 102.792C150.104 102.268 149.257 102.007 148.123 102.007ZM161.999 113.159C158.142 113.159 156.213 111.605 156.213 108.499V108.446H158.936V108.918C158.936 109.651 159.145 110.157 159.564 110.436C160.001 110.715 160.83 110.855 162.051 110.855C163.046 110.855 163.709 110.75 164.041 110.541C164.372 110.314 164.538 109.939 164.538 109.415C164.538 108.909 164.364 108.542 164.015 108.316C163.666 108.089 162.994 107.888 161.999 107.713L159.983 107.373C158.744 107.146 157.802 106.736 157.156 106.143C156.51 105.549 156.187 104.685 156.187 103.551C156.187 102.347 156.659 101.396 157.601 100.698C158.543 99.9821 159.852 99.6243 161.528 99.6243C163.116 99.6243 164.407 100.017 165.402 100.802C166.397 101.57 166.894 102.67 166.894 104.101V104.336H164.198V104.022C164.198 103.342 164.006 102.827 163.622 102.478C163.255 102.129 162.531 101.954 161.449 101.954C160.472 101.954 159.8 102.076 159.433 102.321C159.067 102.565 158.884 102.958 158.884 103.499C158.884 103.987 159.032 104.336 159.329 104.546C159.643 104.755 160.262 104.956 161.187 105.148L163.386 105.567C164.678 105.829 165.638 106.265 166.266 106.876C166.894 107.469 167.208 108.289 167.208 109.336C167.208 110.541 166.746 111.483 165.821 112.164C164.913 112.827 163.639 113.159 161.999 113.159ZM174.781 112.897C173.28 112.897 172.163 112.591 171.43 111.981C170.714 111.352 170.357 110.323 170.357 108.891V102.242H168.184V99.8861H170.409L171.011 96.6661H173.184V99.8861H177.111V102.242H173.184V108.761C173.184 109.424 173.341 109.86 173.655 110.069C173.987 110.261 174.606 110.357 175.514 110.357H177.111V112.661C176.447 112.818 175.671 112.897 174.781 112.897ZM189.456 113.159C185.599 113.159 183.67 111.605 183.67 108.499V108.446H186.393V108.918C186.393 109.651 186.602 110.157 187.021 110.436C187.457 110.715 188.286 110.855 189.508 110.855C190.503 110.855 191.166 110.75 191.497 110.541C191.829 110.314 191.995 109.939 191.995 109.415C191.995 108.909 191.82 108.542 191.471 108.316C191.122 108.089 190.45 107.888 189.456 107.713L187.44 107.373C186.201 107.146 185.258 106.736 184.613 106.143C183.967 105.549 183.644 104.685 183.644 103.551C183.644 102.347 184.115 101.396 185.058 100.698C186 99.9821 187.309 99.6243 188.984 99.6243C190.573 99.6243 191.864 100.017 192.859 100.802C193.854 101.57 194.351 102.67 194.351 104.101V104.336H191.655V104.022C191.655 103.342 191.463 102.827 191.079 102.478C190.712 102.129 189.988 101.954 188.906 101.954C187.928 101.954 187.257 102.076 186.89 102.321C186.524 102.565 186.34 102.958 186.34 103.499C186.34 103.987 186.489 104.336 186.785 104.546C187.1 104.755 187.719 104.956 188.644 105.148L190.843 105.567C192.134 105.829 193.094 106.265 193.723 106.876C194.351 107.469 194.665 108.289 194.665 109.336C194.665 110.541 194.203 111.483 193.278 112.164C192.37 112.827 191.096 113.159 189.456 113.159ZM202.731 113.159C200.654 113.159 199.084 112.556 198.019 111.352C196.954 110.131 196.422 108.473 196.422 106.378C196.422 104.354 196.989 102.722 198.124 101.483C199.258 100.244 200.785 99.6243 202.705 99.6243C204.485 99.6243 205.925 100.13 207.024 101.143C208.124 102.155 208.674 103.534 208.674 105.279C208.674 105.942 208.621 106.535 208.517 107.059H199.066C199.118 108.298 199.415 109.206 199.956 109.782C200.515 110.357 201.448 110.645 202.757 110.645C204.764 110.645 205.768 110.008 205.768 108.734V108.525H208.569V108.761C208.569 110.087 208.037 111.152 206.972 111.954C205.907 112.757 204.494 113.159 202.731 113.159ZM202.653 102.007C201.466 102.007 200.593 102.277 200.035 102.818C199.494 103.342 199.18 104.127 199.092 105.174H205.977C206.03 104.092 205.768 103.298 205.192 102.792C204.633 102.268 203.787 102.007 202.653 102.007ZM213.757 112.897H210.93V99.8861H213.521V102.321H213.626C214.411 100.523 215.921 99.6243 218.155 99.6243C219.778 99.6243 221 100.087 221.82 101.012C222.64 101.937 223.05 103.176 223.05 104.729V112.897H220.223V105.357C220.223 104.171 219.996 103.324 219.542 102.818C219.089 102.312 218.277 102.059 217.108 102.059C215.938 102.059 215.083 102.312 214.542 102.818C214.019 103.324 213.757 104.179 213.757 105.384V112.897ZM231.049 112.897C229.548 112.897 228.431 112.591 227.698 111.981C226.983 111.352 226.625 110.323 226.625 108.891V102.242H224.452V99.8861H226.677L227.279 96.6661H229.452V99.8861H233.379V102.242H229.452V108.761C229.452 109.424 229.609 109.86 229.923 110.069C230.255 110.261 230.874 110.357 231.782 110.357H233.379V112.661C232.716 112.818 231.939 112.897 231.049 112.897ZM238.355 107.138H235.606C235.606 106.247 235.536 104.528 235.396 101.98C235.257 99.4149 235.187 97.818 235.187 97.1897V95.3572H238.773V97.1897C238.773 97.818 238.704 99.4149 238.564 101.98C238.424 104.546 238.355 106.265 238.355 107.138ZM238.59 112.897H235.396V109.022H238.59V112.897Z" fill="#333333"/>
<rect x="89.5276" y="136.351" width="40.9038" height="40.9038" rx="20.4519" fill="#FFD018" fill-opacity="0.05"/>
<path d="M109.969 167.53C116.084 167.53 121.131 162.483 121.131 156.379C121.131 150.274 116.073 145.227 109.958 145.227C103.854 145.227 98.8169 150.274 98.8169 156.379C98.8169 162.483 103.864 167.53 109.969 167.53ZM106.712 155.322C106.043 155.322 105.493 154.728 105.493 153.909C105.493 153.068 106.043 152.485 106.712 152.485C107.37 152.485 107.93 153.068 107.93 153.909C107.93 154.728 107.37 155.322 106.712 155.322ZM113.269 155.322C112.6 155.322 112.061 154.728 112.061 153.909C112.061 153.068 112.6 152.485 113.269 152.485C113.927 152.485 114.499 153.068 114.499 153.909C114.499 154.728 113.927 155.322 113.269 155.322ZM106.011 159.549C106.011 159.28 106.28 159.15 106.539 159.269C107.359 159.7 108.319 160.196 109.958 160.196C111.608 160.196 112.568 159.69 113.388 159.269C113.636 159.15 113.916 159.28 113.916 159.549C113.916 160.304 112.331 161.879 109.958 161.879C107.596 161.879 106.011 160.304 106.011 159.549Z" fill="#FFD018"/>
<path d="M138.854 143.531H137.617V135.857H143.057V136.968H138.854V139.339H142.886V140.461H138.854V143.531ZM146.055 143.645C145.344 143.645 144.806 143.435 144.44 143.015C144.081 142.595 143.901 142.042 143.901 141.354V137.838H145.138V141.137C145.138 141.648 145.245 142.019 145.459 142.248C145.673 142.469 146.024 142.58 146.513 142.58C147.009 142.58 147.379 142.462 147.624 142.225C147.876 141.981 148.002 141.587 148.002 141.045V137.838H149.238V143.531H148.093V142.397H148.047C147.696 143.229 147.032 143.645 146.055 143.645ZM151.693 143.531H150.456V137.838H151.59V138.903H151.636C151.98 138.117 152.64 137.724 153.617 137.724C154.327 137.724 154.862 137.926 155.221 138.331C155.58 138.736 155.759 139.278 155.759 139.957V143.531H154.522V140.232C154.522 139.713 154.423 139.343 154.224 139.121C154.026 138.9 153.671 138.789 153.159 138.789C152.648 138.789 152.274 138.9 152.037 139.121C151.808 139.343 151.693 139.717 151.693 140.243V143.531ZM159.2 143.645C158.398 143.645 157.78 143.382 157.345 142.855C156.91 142.32 156.692 141.595 156.692 140.679C156.692 139.77 156.906 139.052 157.333 138.526C157.761 137.991 158.36 137.724 159.131 137.724C159.605 137.724 159.998 137.819 160.311 138.01C160.632 138.201 160.861 138.438 160.998 138.72H161.033V135.857H162.258V143.531H161.124V142.591H161.079C160.781 143.294 160.155 143.645 159.2 143.645ZM158.284 139.213C158.047 139.495 157.929 139.984 157.929 140.679C157.929 141.374 158.047 141.866 158.284 142.156C158.521 142.446 158.918 142.591 159.475 142.591C160.513 142.591 161.033 142.126 161.033 141.194V140.175C161.033 139.243 160.513 138.778 159.475 138.778C158.925 138.778 158.528 138.923 158.284 139.213ZM166.905 143.531H165.668V135.857H168.967C169.822 135.857 170.494 136.059 170.982 136.464C171.479 136.869 171.727 137.43 171.727 138.148C171.727 138.781 171.54 139.281 171.166 139.648C170.799 140.014 170.276 140.217 169.597 140.255V140.347C170.085 140.507 170.479 140.858 170.776 141.4L171.922 143.531H170.49L169.402 141.549C169.211 141.19 169.005 140.938 168.783 140.793C168.57 140.648 168.245 140.576 167.81 140.576H166.905V143.531ZM166.905 136.968V139.556H169.116C169.612 139.556 169.963 139.457 170.169 139.259C170.383 139.06 170.49 138.728 170.49 138.262C170.49 137.804 170.383 137.476 170.169 137.277C169.963 137.071 169.612 136.968 169.116 136.968H166.905ZM174.988 143.645C174.079 143.645 173.392 143.382 172.926 142.855C172.46 142.32 172.227 141.595 172.227 140.679C172.227 139.793 172.476 139.079 172.972 138.537C173.468 137.995 174.136 137.724 174.976 137.724C175.755 137.724 176.385 137.945 176.866 138.388C177.347 138.831 177.587 139.434 177.587 140.198C177.587 140.488 177.565 140.747 177.519 140.976H173.384C173.407 141.519 173.537 141.916 173.774 142.168C174.018 142.42 174.426 142.546 174.999 142.546C175.877 142.546 176.316 142.267 176.316 141.709V141.618H177.542V141.721C177.542 142.301 177.309 142.767 176.843 143.118C176.377 143.469 175.759 143.645 174.988 143.645ZM174.953 138.766C174.434 138.766 174.052 138.884 173.808 139.121C173.571 139.35 173.434 139.694 173.396 140.152H176.408C176.431 139.678 176.316 139.331 176.064 139.11C175.82 138.881 175.45 138.766 174.953 138.766ZM180.829 143.645C180.051 143.645 179.451 143.382 179.031 142.855C178.611 142.328 178.401 141.606 178.401 140.69C178.401 139.774 178.615 139.052 179.043 138.526C179.47 137.991 180.081 137.724 180.875 137.724C181.86 137.724 182.498 138.075 182.788 138.778H182.834V137.838H183.968V145.512H182.742V142.649H182.708C182.57 142.931 182.337 143.168 182.009 143.359C181.688 143.55 181.295 143.645 180.829 143.645ZM179.638 140.69C179.638 141.377 179.757 141.866 179.993 142.156C180.238 142.446 180.635 142.591 181.184 142.591C182.223 142.591 182.742 142.126 182.742 141.194V140.175C182.742 139.243 182.223 138.778 181.184 138.778C180.627 138.778 180.23 138.923 179.993 139.213C179.757 139.503 179.638 139.995 179.638 140.69ZM187.303 143.645C186.593 143.645 186.055 143.435 185.689 143.015C185.33 142.595 185.15 142.042 185.15 141.354V137.838H186.387V141.137C186.387 141.648 186.494 142.019 186.708 142.248C186.922 142.469 187.273 142.58 187.762 142.58C188.258 142.58 188.628 142.462 188.872 142.225C189.124 141.981 189.25 141.587 189.25 141.045V137.838H190.487V143.531H189.342V142.397H189.296C188.945 143.229 188.281 143.645 187.303 143.645ZM194.214 143.645C193.305 143.645 192.618 143.382 192.152 142.855C191.687 142.32 191.454 141.595 191.454 140.679C191.454 139.793 191.702 139.079 192.198 138.537C192.695 137.995 193.363 137.724 194.203 137.724C194.981 137.724 195.611 137.945 196.092 138.388C196.573 138.831 196.814 139.434 196.814 140.198C196.814 140.488 196.791 140.747 196.745 140.976H192.611C192.633 141.519 192.763 141.916 193 142.168C193.244 142.42 193.653 142.546 194.225 142.546C195.103 142.546 195.543 142.267 195.543 141.709V141.618H196.768V141.721C196.768 142.301 196.535 142.767 196.069 143.118C195.604 143.469 194.985 143.645 194.214 143.645ZM194.18 138.766C193.66 138.766 193.279 138.884 193.034 139.121C192.798 139.35 192.66 139.694 192.622 140.152H195.634C195.657 139.678 195.543 139.331 195.291 139.11C195.046 138.881 194.676 138.766 194.18 138.766ZM200.25 143.645C198.563 143.645 197.719 142.966 197.719 141.606V141.583H198.91V141.79C198.91 142.11 199.002 142.332 199.185 142.454C199.376 142.576 199.739 142.637 200.273 142.637C200.709 142.637 200.999 142.591 201.144 142.5C201.289 142.4 201.361 142.236 201.361 142.007C201.361 141.786 201.285 141.625 201.132 141.526C200.98 141.427 200.686 141.339 200.25 141.263L199.369 141.114C198.826 141.015 198.414 140.835 198.132 140.576C197.849 140.316 197.708 139.938 197.708 139.442C197.708 138.915 197.914 138.499 198.326 138.193C198.739 137.88 199.311 137.724 200.044 137.724C200.739 137.724 201.304 137.896 201.739 138.239C202.175 138.575 202.392 139.056 202.392 139.682V139.785H201.213V139.648C201.213 139.35 201.129 139.125 200.961 138.972C200.8 138.819 200.483 138.743 200.01 138.743C199.582 138.743 199.288 138.797 199.128 138.903C198.968 139.01 198.888 139.182 198.888 139.419C198.888 139.633 198.952 139.785 199.082 139.877C199.22 139.969 199.491 140.056 199.895 140.14L200.857 140.324C201.422 140.438 201.842 140.629 202.117 140.896C202.392 141.156 202.53 141.515 202.53 141.973C202.53 142.5 202.327 142.912 201.923 143.21C201.526 143.5 200.968 143.645 200.25 143.645ZM205.842 143.531C205.186 143.531 204.697 143.397 204.377 143.13C204.063 142.855 203.907 142.404 203.907 141.778V138.869H202.956V137.838H203.93L204.193 136.43H205.144V137.838H206.862V138.869H205.144V141.721C205.144 142.011 205.213 142.202 205.35 142.294C205.495 142.378 205.766 142.42 206.163 142.42H206.862V143.427C206.572 143.496 206.232 143.531 205.842 143.531ZM212.263 143.645C210.575 143.645 209.732 142.966 209.732 141.606V141.583H210.923V141.79C210.923 142.11 211.014 142.332 211.198 142.454C211.388 142.576 211.751 142.637 212.286 142.637C212.721 142.637 213.011 142.591 213.156 142.5C213.301 142.4 213.374 142.236 213.374 142.007C213.374 141.786 213.297 141.625 213.145 141.526C212.992 141.427 212.698 141.339 212.263 141.263L211.381 141.114C210.839 141.015 210.426 140.835 210.144 140.576C209.861 140.316 209.72 139.938 209.72 139.442C209.72 138.915 209.926 138.499 210.339 138.193C210.751 137.88 211.324 137.724 212.057 137.724C212.751 137.724 213.316 137.896 213.752 138.239C214.187 138.575 214.404 139.056 214.404 139.682V139.785H213.225V139.648C213.225 139.35 213.141 139.125 212.973 138.972C212.812 138.819 212.496 138.743 212.022 138.743C211.595 138.743 211.301 138.797 211.14 138.903C210.98 139.01 210.9 139.182 210.9 139.419C210.9 139.633 210.965 139.785 211.095 139.877C211.232 139.969 211.503 140.056 211.908 140.14L212.87 140.324C213.435 140.438 213.855 140.629 214.13 140.896C214.404 141.156 214.542 141.515 214.542 141.973C214.542 142.5 214.34 142.912 213.935 143.21C213.538 143.5 212.98 143.645 212.263 143.645ZM218.071 143.645C217.162 143.645 216.475 143.382 216.009 142.855C215.543 142.32 215.311 141.595 215.311 140.679C215.311 139.793 215.559 139.079 216.055 138.537C216.551 137.995 217.219 137.724 218.059 137.724C218.838 137.724 219.468 137.945 219.949 138.388C220.43 138.831 220.671 139.434 220.671 140.198C220.671 140.488 220.648 140.747 220.602 140.976H216.467C216.49 141.519 216.62 141.916 216.857 142.168C217.101 142.42 217.51 142.546 218.082 142.546C218.96 142.546 219.399 142.267 219.399 141.709V141.618H220.625V141.721C220.625 142.301 220.392 142.767 219.926 143.118C219.46 143.469 218.842 143.645 218.071 143.645ZM218.036 138.766C217.517 138.766 217.135 138.884 216.891 139.121C216.654 139.35 216.517 139.694 216.479 140.152H219.491C219.514 139.678 219.399 139.331 219.147 139.11C218.903 138.881 218.533 138.766 218.036 138.766ZM222.895 143.531H221.658V137.838H222.791V138.903H222.837C223.181 138.117 223.841 137.724 224.819 137.724C225.529 137.724 226.063 137.926 226.422 138.331C226.781 138.736 226.96 139.278 226.96 139.957V143.531H225.723V140.232C225.723 139.713 225.624 139.343 225.426 139.121C225.227 138.9 224.872 138.789 224.361 138.789C223.849 138.789 223.475 138.9 223.238 139.121C223.009 139.343 222.895 139.717 222.895 140.243V143.531ZM230.46 143.531C229.803 143.531 229.315 143.397 228.994 143.13C228.681 142.855 228.524 142.404 228.524 141.778V138.869H227.574V137.838H228.547L228.811 136.43H229.761V137.838H231.479V138.869H229.761V141.721C229.761 142.011 229.83 142.202 229.967 142.294C230.112 142.378 230.383 142.42 230.781 142.42H231.479V143.427C231.189 143.496 230.849 143.531 230.46 143.531Z" fill="#333333"/>
<path d="M139.965 160.803C139.308 160.803 138.82 160.669 138.499 160.402C138.186 160.127 138.03 159.677 138.03 159.051V156.141H137.079V155.111H138.052L138.316 153.702H139.266V155.111H140.984V156.141H139.266V158.993C139.266 159.283 139.335 159.474 139.473 159.566C139.618 159.65 139.889 159.692 140.286 159.692H140.984V160.7C140.694 160.768 140.354 160.803 139.965 160.803ZM144.232 160.917C143.361 160.917 142.67 160.646 142.159 160.104C141.647 159.562 141.391 158.844 141.391 157.951C141.391 157.065 141.647 156.351 142.159 155.809C142.67 155.267 143.361 154.996 144.232 154.996C145.095 154.996 145.774 155.267 146.27 155.809C146.774 156.344 147.026 157.058 147.026 157.951C147.026 158.844 146.774 159.562 146.27 160.104C145.774 160.646 145.095 160.917 144.232 160.917ZM142.972 159.383C143.224 159.673 143.644 159.818 144.232 159.818C144.82 159.818 145.232 159.673 145.469 159.383C145.713 159.085 145.835 158.608 145.835 157.951C145.835 157.302 145.713 156.832 145.469 156.542C145.224 156.245 144.812 156.096 144.232 156.096C143.644 156.096 143.224 156.245 142.972 156.542C142.728 156.832 142.605 157.302 142.605 157.951C142.605 158.608 142.728 159.085 142.972 159.383ZM153.464 160.803H152.239V154.24H149.627V153.129H156.075V154.24H153.464V160.803ZM158.682 160.917C157.812 160.917 157.121 160.646 156.609 160.104C156.098 159.562 155.842 158.844 155.842 157.951C155.842 157.065 156.098 156.351 156.609 155.809C157.121 155.267 157.812 154.996 158.682 154.996C159.545 154.996 160.225 155.267 160.721 155.809C161.225 156.344 161.477 157.058 161.477 157.951C161.477 158.844 161.225 159.562 160.721 160.104C160.225 160.646 159.545 160.917 158.682 160.917ZM157.422 159.383C157.674 159.673 158.094 159.818 158.682 159.818C159.27 159.818 159.683 159.673 159.919 159.383C160.164 159.085 160.286 158.608 160.286 157.951C160.286 157.302 160.164 156.832 159.919 156.542C159.675 156.245 159.263 156.096 158.682 156.096C158.094 156.096 157.674 156.245 157.422 156.542C157.178 156.832 157.056 157.302 157.056 157.951C157.056 158.608 157.178 159.085 157.422 159.383ZM163.65 160.803H162.413V153.129H163.65V160.803ZM166.981 160.917C166.271 160.917 165.733 160.707 165.366 160.287C165.007 159.867 164.828 159.314 164.828 158.627V155.111H166.065V158.409C166.065 158.921 166.172 159.291 166.385 159.52C166.599 159.742 166.95 159.852 167.439 159.852C167.935 159.852 168.306 159.734 168.55 159.497C168.802 159.253 168.928 158.86 168.928 158.318V155.111H170.165V160.803H169.02V159.669H168.974C168.623 160.501 167.958 160.917 166.981 160.917ZM174.332 160.803H173.037L176.027 153.129H177.802L180.791 160.803H179.451L178.672 158.81H175.11L174.332 160.803ZM176.347 155.672L175.546 157.699H178.237L177.435 155.672L176.943 154.252H176.851L176.347 155.672ZM182.652 160.803H181.415V155.076H182.549V155.981H182.606C182.729 155.691 182.923 155.454 183.191 155.271C183.465 155.088 183.801 154.996 184.198 154.996C184.763 154.996 185.18 155.176 185.447 155.534C185.714 155.893 185.848 156.359 185.848 156.932V157.31H184.611V157.081C184.611 156.699 184.542 156.432 184.405 156.279C184.275 156.126 184.03 156.05 183.672 156.05C183.297 156.05 183.034 156.13 182.881 156.29C182.729 156.443 182.652 156.71 182.652 157.092V160.803ZM188.062 160.917C187.535 160.917 187.1 160.784 186.756 160.516C186.42 160.249 186.252 159.875 186.252 159.394C186.252 158.501 186.886 157.966 188.154 157.791L190.146 157.493V157.184C190.146 156.771 190.047 156.485 189.849 156.325C189.65 156.164 189.322 156.084 188.864 156.084C188.413 156.084 188.089 156.164 187.89 156.325C187.699 156.485 187.604 156.752 187.604 157.126V157.298H186.413V157.184C186.413 156.542 186.642 156.019 187.1 155.615C187.566 155.202 188.177 154.996 188.932 154.996C189.704 154.996 190.295 155.21 190.708 155.637C191.12 156.057 191.326 156.626 191.326 157.344V160.803H190.181V159.909H190.124C189.711 160.581 189.024 160.917 188.062 160.917ZM187.455 159.302C187.455 159.524 187.531 159.684 187.684 159.784C187.844 159.883 188.104 159.932 188.463 159.932C188.936 159.932 189.333 159.822 189.654 159.6C189.982 159.371 190.146 158.993 190.146 158.466V158.363L188.337 158.638C188.009 158.684 187.779 158.757 187.65 158.856C187.52 158.947 187.455 159.096 187.455 159.302ZM193.644 160.803H192.511V153.129H193.747V156.015H193.77C193.908 155.733 194.141 155.492 194.469 155.294C194.805 155.095 195.21 154.996 195.683 154.996C196.454 154.996 197.046 155.26 197.458 155.786C197.871 156.313 198.077 157.035 198.077 157.951C198.077 158.867 197.863 159.593 197.435 160.127C197.008 160.654 196.401 160.917 195.614 160.917C194.622 160.917 193.98 160.566 193.69 159.864H193.644V160.803ZM193.747 158.466C193.747 159.398 194.263 159.864 195.294 159.864C195.851 159.864 196.248 159.719 196.485 159.428C196.729 159.138 196.851 158.646 196.851 157.951C196.851 157.264 196.729 156.775 196.485 156.485C196.24 156.195 195.843 156.05 195.294 156.05C194.263 156.05 193.747 156.516 193.747 157.447V158.466ZM200.611 160.917C200.084 160.917 199.649 160.784 199.305 160.516C198.97 160.249 198.802 159.875 198.802 159.394C198.802 158.501 199.435 157.966 200.703 157.791L202.696 157.493V157.184C202.696 156.771 202.596 156.485 202.398 156.325C202.199 156.164 201.871 156.084 201.413 156.084C200.962 156.084 200.638 156.164 200.439 156.325C200.248 156.485 200.153 156.752 200.153 157.126V157.298H198.962V157.184C198.962 156.542 199.191 156.019 199.649 155.615C200.115 155.202 200.726 154.996 201.482 154.996C202.253 154.996 202.844 155.21 203.257 155.637C203.669 156.057 203.875 156.626 203.875 157.344V160.803H202.73V159.909H202.673C202.26 160.581 201.573 160.917 200.611 160.917ZM200.004 159.302C200.004 159.524 200.08 159.684 200.233 159.784C200.394 159.883 200.653 159.932 201.012 159.932C201.485 159.932 201.882 159.822 202.203 159.6C202.531 159.371 202.696 158.993 202.696 158.466V158.363L200.886 158.638C200.558 158.684 200.329 158.757 200.199 158.856C200.069 158.947 200.004 159.096 200.004 159.302Z" fill="#1E1E1E" fill-opacity="0.5"/>
<path d="M138.854 178.075H137.617V170.402H138.946L141.855 174.8L142.668 176.025H142.76V170.402H143.997V178.075H142.668L139.77 173.746L138.934 172.497H138.854V178.075ZM149.9 178.075H148.663V172.234H147.048V171.352H147.346C147.712 171.352 148.006 171.28 148.228 171.135C148.457 170.989 148.652 170.745 148.812 170.402H149.9V178.075ZM151.613 179.427H151.2V178.613H151.578C151.685 178.613 151.762 178.594 151.807 178.556C151.853 178.518 151.876 178.438 151.876 178.316V178.075H151.177V176.3H152.747V178.293C152.747 179.049 152.369 179.427 151.613 179.427ZM159.472 177.125C158.884 177.835 158.074 178.19 157.044 178.19C156.013 178.19 155.204 177.838 154.616 177.136C154.028 176.426 153.734 175.46 153.734 174.238C153.734 173.017 154.028 172.055 154.616 171.352C155.204 170.642 156.013 170.287 157.044 170.287C158.074 170.287 158.884 170.642 159.472 171.352C160.067 172.062 160.365 173.024 160.365 174.238C160.365 175.452 160.067 176.414 159.472 177.125ZM155.52 176.369C155.841 176.789 156.349 176.999 157.044 176.999C157.738 176.999 158.246 176.789 158.567 176.369C158.888 175.941 159.048 175.231 159.048 174.238C159.048 173.246 158.888 172.539 158.567 172.12C158.246 171.692 157.738 171.478 157.044 171.478C156.349 171.478 155.841 171.692 155.52 172.12C155.207 172.539 155.051 173.246 155.051 174.238C155.051 175.231 155.207 175.941 155.52 176.369ZM167.513 177.125C166.926 177.835 166.116 178.19 165.085 178.19C164.055 178.19 163.245 177.838 162.657 177.136C162.069 176.426 161.775 175.46 161.775 174.238C161.775 173.017 162.069 172.055 162.657 171.352C163.245 170.642 164.055 170.287 165.085 170.287C166.116 170.287 166.926 170.642 167.513 171.352C168.109 172.062 168.407 173.024 168.407 174.238C168.407 175.452 168.109 176.414 167.513 177.125ZM163.562 176.369C163.883 176.789 164.391 176.999 165.085 176.999C165.78 176.999 166.288 176.789 166.609 176.369C166.929 175.941 167.09 175.231 167.09 174.238C167.09 173.246 166.929 172.539 166.609 172.12C166.288 171.692 165.78 171.478 165.085 171.478C164.391 171.478 163.883 171.692 163.562 172.12C163.249 172.539 163.093 173.246 163.093 174.238C163.093 175.231 163.249 175.941 163.562 176.369ZM175.555 177.125C174.967 177.835 174.158 178.19 173.127 178.19C172.096 178.19 171.287 177.838 170.699 177.136C170.111 176.426 169.817 175.46 169.817 174.238C169.817 173.017 170.111 172.055 170.699 171.352C171.287 170.642 172.096 170.287 173.127 170.287C174.158 170.287 174.967 170.642 175.555 171.352C176.151 172.062 176.449 173.024 176.449 174.238C176.449 175.452 176.151 176.414 175.555 177.125ZM171.604 176.369C171.925 176.789 172.432 176.999 173.127 176.999C173.822 176.999 174.33 176.789 174.65 176.369C174.971 175.941 175.131 175.231 175.131 174.238C175.131 173.246 174.971 172.539 174.65 172.12C174.33 171.692 173.822 171.478 173.127 171.478C172.432 171.478 171.925 171.692 171.604 172.12C171.291 172.539 171.134 173.246 171.134 174.238C171.134 175.231 171.291 175.941 171.604 176.369ZM178.986 178.075H177.417V176.3H178.986V178.075ZM185.711 177.125C185.123 177.835 184.314 178.19 183.283 178.19C182.252 178.19 181.443 177.838 180.855 177.136C180.267 176.426 179.973 175.46 179.973 174.238C179.973 173.017 180.267 172.055 180.855 171.352C181.443 170.642 182.252 170.287 183.283 170.287C184.314 170.287 185.123 170.642 185.711 171.352C186.306 172.062 186.604 173.024 186.604 174.238C186.604 175.452 186.306 176.414 185.711 177.125ZM181.759 176.369C182.08 176.789 182.588 176.999 183.283 176.999C183.978 176.999 184.485 176.789 184.806 176.369C185.127 175.941 185.287 175.231 185.287 174.238C185.287 173.246 185.127 172.539 184.806 172.12C184.485 171.692 183.978 171.478 183.283 171.478C182.588 171.478 182.08 171.692 181.759 172.12C181.446 172.539 181.29 173.246 181.29 174.238C181.29 175.231 181.446 175.941 181.759 176.369ZM193.753 177.125C193.165 177.835 192.355 178.19 191.324 178.19C190.294 178.19 189.484 177.838 188.896 177.136C188.309 176.426 188.015 175.46 188.015 174.238C188.015 173.017 188.309 172.055 188.896 171.352C189.484 170.642 190.294 170.287 191.324 170.287C192.355 170.287 193.165 170.642 193.753 171.352C194.348 172.062 194.646 173.024 194.646 174.238C194.646 175.452 194.348 176.414 193.753 177.125ZM189.801 176.369C190.122 176.789 190.63 176.999 191.324 176.999C192.019 176.999 192.527 176.789 192.848 176.369C193.168 175.941 193.329 175.231 193.329 174.238C193.329 173.246 193.168 172.539 192.848 172.12C192.527 171.692 192.019 171.478 191.324 171.478C190.63 171.478 190.122 171.692 189.801 172.12C189.488 172.539 189.332 173.246 189.332 174.238C189.332 175.231 189.488 175.941 189.801 176.369Z" fill="#1E1E1E" fill-opacity="0.5"/>
<path d="M24.4312 29.3456C23.4644 29.3456 22.6416 29.0843 21.9629 28.5619C21.2842 28.0345 20.8667 27.3363 20.7104 26.4671H22.5928C22.7148 26.8675 22.9395 27.1849 23.2666 27.4193C23.5986 27.6488 23.9917 27.7635 24.4458 27.7635C25.2173 27.7635 25.8203 27.4242 26.2549 26.7455C26.6895 26.0619 26.9067 25.1146 26.9067 23.9037H26.8408H26.8042H26.7822C26.5332 24.4066 26.1694 24.7972 25.6909 25.0755C25.2124 25.349 24.6631 25.4857 24.043 25.4857C23.0371 25.4857 22.2046 25.1537 21.5454 24.4896C20.8911 23.8255 20.564 22.9857 20.564 21.9701C20.564 20.8861 20.9302 19.9974 21.6626 19.304C22.3999 18.6058 23.3423 18.2567 24.4897 18.2567C25.2612 18.2567 25.9448 18.4349 26.5405 18.7914C27.1362 19.1478 27.6123 19.6654 27.9688 20.3441C28.4668 21.2279 28.7158 22.3412 28.7158 23.6839C28.7158 25.4613 28.3374 26.8504 27.5806 27.8514C26.8237 28.8475 25.7739 29.3456 24.4312 29.3456ZM23.0029 23.4056C23.3936 23.7914 23.8916 23.9842 24.4971 23.9842C25.1025 23.9842 25.603 23.7914 25.9985 23.4056C26.394 23.0199 26.5918 22.5316 26.5918 21.9408C26.5918 21.3451 26.3916 20.8446 25.9912 20.4393C25.5908 20.034 25.0952 19.8314 24.5044 19.8314C23.9136 19.8314 23.418 20.0316 23.0176 20.432C22.6172 20.8275 22.417 21.3206 22.417 21.9115C22.417 22.5169 22.6123 23.015 23.0029 23.4056ZM31.7137 27.9686C31.3719 27.9686 31.0911 27.8587 30.8714 27.639C30.6517 27.4193 30.5418 27.1434 30.5418 26.8114C30.5418 26.4745 30.6517 26.1986 30.8714 25.9837C31.0911 25.764 31.3719 25.6541 31.7137 25.6541C32.0604 25.6541 32.3411 25.764 32.556 25.9837C32.7757 26.1986 32.8856 26.4745 32.8856 26.8114C32.8856 27.1434 32.7757 27.4193 32.556 27.639C32.3411 27.8587 32.0604 27.9686 31.7137 27.9686ZM31.7137 22.4754C31.3719 22.4754 31.0911 22.368 30.8714 22.1532C30.6517 21.9334 30.5418 21.6576 30.5418 21.3255C30.5418 20.9886 30.6517 20.7127 30.8714 20.4979C31.0911 20.2782 31.3719 20.1683 31.7137 20.1683C32.0604 20.1683 32.3411 20.2782 32.556 20.4979C32.7757 20.7127 32.8856 20.9886 32.8856 21.3255C32.8856 21.6576 32.7757 21.9334 32.556 22.1532C32.3411 22.368 32.0604 22.4754 31.7137 22.4754ZM39.8678 29.0892V27.119H34.7042V25.4344C35.5636 23.8524 36.9992 21.5477 39.0109 18.5204H41.6769V25.5223H43.1051V27.119H41.6769V29.0892H39.8678ZM36.4547 25.4564V25.5663H39.8971V20.0584H39.7946C38.652 21.7479 37.5387 23.5472 36.4547 25.4564ZM47.1137 29.0892V20.4247H46.9892L44.3598 22.2704V20.4539L47.1211 18.5204H49.0034V29.0892H47.1137Z" fill="#333333"/>
<path fill-rule="evenodd" clip-rule="evenodd" d="M262.602 17.6626H261.784C261.332 17.6626 260.966 18.0288 260.966 18.4806V25.5706C260.966 26.0224 261.332 26.3887 261.784 26.3887H262.602C263.054 26.3887 263.42 26.0224 263.42 25.5706V18.4806C263.42 18.0288 263.054 17.6626 262.602 17.6626ZM257.966 19.5714H258.784C259.236 19.5714 259.602 19.9377 259.602 20.3895V25.5706C259.602 26.0224 259.236 26.3887 258.784 26.3887H257.966C257.515 26.3887 257.148 26.0224 257.148 25.5706V20.3895C257.148 19.9377 257.515 19.5714 257.966 19.5714ZM254.967 21.4803H254.149C253.697 21.4803 253.331 21.8465 253.331 22.2983V25.5706C253.331 26.0224 253.697 26.3887 254.149 26.3887H254.967C255.419 26.3887 255.785 26.0224 255.785 25.5706V22.2983C255.785 21.8465 255.419 21.4803 254.967 21.4803ZM251.149 23.1164H250.331C249.879 23.1164 249.513 23.4827 249.513 23.9345V25.5706C249.513 26.0224 249.879 26.3887 250.331 26.3887H251.149C251.601 26.3887 251.967 26.0224 251.967 25.5706V23.9345C251.967 23.4827 251.601 23.1164 251.149 23.1164Z" fill="#333333"/>
<path fill-rule="evenodd" clip-rule="evenodd" d="M278.096 21.4712C276.783 20.2222 275.039 19.5257 273.226 19.5256C271.413 19.5256 269.67 20.2221 268.356 21.4712C268.257 21.5678 268.099 21.5666 268.001 21.4685L267.055 20.5141C267.006 20.4644 266.979 20.3971 266.979 20.3271C266.979 20.2571 267.008 20.1901 267.058 20.1411C270.506 16.8364 275.946 16.8364 279.394 20.1411C279.444 20.1902 279.473 20.2571 279.473 20.3271C279.473 20.3971 279.446 20.4644 279.397 20.5141L278.451 21.4685C278.353 21.5665 278.195 21.5677 278.096 21.4712ZM273.226 22.6307C274.222 22.6307 275.183 23.0009 275.921 23.6694C276.021 23.7643 276.178 23.7622 276.275 23.6648L277.22 22.7104C277.27 22.6603 277.297 22.5924 277.297 22.5218C277.296 22.4512 277.267 22.3839 277.216 22.3349C274.968 20.2435 271.486 20.2435 269.238 22.3349C269.187 22.3839 269.158 22.4513 269.158 22.5219C269.157 22.5925 269.185 22.6604 269.235 22.7104L270.179 23.6648C270.276 23.7622 270.434 23.7643 270.533 23.6694C271.271 23.0013 272.231 22.6311 273.226 22.6307ZM275.042 24.9085C275.092 24.8589 275.12 24.7907 275.119 24.7199C275.117 24.6492 275.086 24.5821 275.034 24.5347C273.99 23.6521 272.462 23.6521 271.419 24.5347C271.366 24.5821 271.335 24.6491 271.334 24.7199C271.332 24.7907 271.36 24.8589 271.411 24.9085L273.045 26.5575C273.093 26.606 273.158 26.6332 273.226 26.6332C273.294 26.6332 273.36 26.606 273.408 26.5575L275.042 24.9085Z" fill="#333333"/>
<g clip-path="url(#clip1_3824_1693)">
<path opacity="0.35" d="M282.645 19.026C282.645 18.0471 283.438 17.2535 284.417 17.2535H298.052C299.031 17.2535 299.824 18.0471 299.824 19.026V23.9345C299.824 24.9134 299.031 25.707 298.052 25.707H284.417C283.438 25.707 282.645 24.9134 282.645 23.9345V19.026Z" stroke="#333333" stroke-width="0.818075"/>
<path opacity="0.4" d="M301.052 19.8441V23.1164C301.71 22.8393 302.138 22.1946 302.138 21.4803C302.138 20.766 301.71 20.1213 301.052 19.8441Z" fill="#333333"/>
<path d="M283.872 19.5714C283.872 18.969 284.36 18.4807 284.963 18.4807H297.507C298.109 18.4807 298.597 18.969 298.597 19.5714V23.3891C298.597 23.9915 298.109 24.4799 297.507 24.4799H284.963C284.36 24.4799 283.872 23.9915 283.872 23.3891V19.5714Z" fill="#333333"/>
</g>
</g>
<rect x="4.09038" y="4.09038" width="313.323" height="688.819" rx="28.6326" stroke="#333333" stroke-width="8.18075"/>
<defs>
<clipPath id="clip0_3824_1693">
<rect width="321.504" height="697" rx="32.723" fill="white"/>
</clipPath>
<clipPath id="clip1_3824_1693">
<rect width="20.4519" height="13.0892" fill="white" transform="translate(281.418 15.2083)"/>
</clipPath>
</defs>
</svg>
