<svg width="953" height="415" viewBox="0 0 953 415" fill="none" xmlns="http://www.w3.org/2000/svg">
<path fill-rule="evenodd" clip-rule="evenodd" d="M66.8419 0C29.9262 0 0 28.2565 0 63.1127C0 97.9689 29.9262 126.225 66.8419 126.225H234.716C271.632 126.225 301.558 97.9689 301.558 63.1127C301.558 28.2565 271.632 0 234.716 0H66.8419ZM40.6138 63.1127C40.6138 49.4355 52.3566 38.3479 66.8419 38.3479H234.716C249.201 38.3479 260.944 49.4355 260.944 63.1127C260.944 76.7899 249.201 87.8775 234.716 87.8775H66.8419C52.3566 87.8775 40.6138 76.7899 40.6138 63.1127Z" fill="white" fill-opacity="0.1"/>
<path fill-rule="evenodd" clip-rule="evenodd" d="M112.118 207.5C112.118 172.644 142.044 144.387 178.96 144.387H346.834C383.749 144.387 413.675 172.644 413.675 207.5C413.675 242.356 383.749 270.613 346.834 270.613H178.96C142.044 270.613 112.118 242.356 112.118 207.5ZM178.96 182.735C164.474 182.735 152.731 193.823 152.731 207.5C152.731 221.177 164.474 232.265 178.96 232.265H346.834C361.319 232.265 373.062 221.177 373.062 207.5C373.062 193.823 361.319 182.735 346.834 182.735H178.96Z" fill="white" fill-opacity="0.1"/>
<path fill-rule="evenodd" clip-rule="evenodd" d="M76.5072 288.775C39.5915 288.775 9.66531 317.031 9.66531 351.887C9.66531 386.743 39.5915 415 76.5072 415H244.381C281.297 415 311.223 386.743 311.223 351.887C311.223 317.031 281.297 288.775 244.381 288.775H76.5072ZM50.2792 351.887C50.2792 338.21 62.0219 327.123 76.5072 327.123H244.381C258.867 327.123 270.609 338.21 270.609 351.887C270.609 365.565 258.867 376.652 244.381 376.652H76.5072C62.0219 376.652 50.2792 365.565 50.2792 351.887Z" fill="white" fill-opacity="0.1"/>
<path fill-rule="evenodd" clip-rule="evenodd" d="M718.284 288.775C681.368 288.775 651.442 317.031 651.442 351.887C651.442 386.743 681.368 415 718.284 415H886.158C923.074 415 953 386.743 953 351.887C953 317.031 923.074 288.775 886.158 288.775H718.284ZM692.056 351.887C692.056 338.21 703.799 327.123 718.284 327.123H886.158C900.643 327.123 912.386 338.21 912.386 351.887C912.386 365.565 900.643 376.652 886.158 376.652H718.284C703.799 376.652 692.056 365.565 692.056 351.887Z" fill="white" fill-opacity="0.1"/>
<path fill-rule="evenodd" clip-rule="evenodd" d="M330.554 351.887C330.554 317.031 360.48 288.775 397.396 288.775H565.27C602.185 288.775 632.112 317.031 632.112 351.887C632.112 386.743 602.185 415 565.27 415H397.396C360.48 415 330.554 386.743 330.554 351.887ZM397.396 327.123C382.91 327.123 371.168 338.21 371.168 351.887C371.168 365.565 382.91 376.652 397.396 376.652H565.27C579.755 376.652 591.498 365.565 591.498 351.887C591.498 338.21 579.755 327.123 565.27 327.123H397.396Z" fill="white" fill-opacity="0.1"/>
<path fill-rule="evenodd" clip-rule="evenodd" d="M499.848 144.387C462.932 144.387 433.006 172.644 433.006 207.5C433.006 242.356 462.932 270.613 499.848 270.613H667.722C704.638 270.613 734.564 242.356 734.564 207.5C734.564 172.644 704.638 144.387 667.722 144.387H499.848ZM473.62 207.5C473.62 193.823 485.363 182.735 499.848 182.735H667.722C682.207 182.735 693.95 193.823 693.95 207.5C693.95 221.177 682.207 232.265 667.722 232.265H499.848C485.363 232.265 473.62 221.177 473.62 207.5Z" fill="white" fill-opacity="0.1"/>
<path fill-rule="evenodd" clip-rule="evenodd" d="M320.888 63.1127C320.888 28.2565 350.815 0 387.73 0H555.604C592.52 0 622.446 28.2565 622.446 63.1127C622.446 97.9689 592.52 126.225 555.604 126.225H387.73C350.815 126.225 320.888 97.9689 320.888 63.1127ZM387.73 38.3479C373.245 38.3479 361.502 49.4355 361.502 63.1127C361.502 76.7899 373.245 87.8775 387.73 87.8775H555.604C570.09 87.8775 581.832 76.7899 581.832 63.1127C581.832 49.4355 570.09 38.3479 555.604 38.3479H387.73Z" fill="white" fill-opacity="0.1"/>
<path fill-rule="evenodd" clip-rule="evenodd" d="M708.619 0C671.703 0 641.777 28.2565 641.777 63.1127C641.777 97.9689 671.703 126.225 708.619 126.225H876.493C913.409 126.225 943.335 97.9689 943.335 63.1127C943.335 28.2565 913.409 0 876.493 0H708.619ZM682.391 63.1127C682.391 49.4355 694.133 38.3479 708.619 38.3479H876.493C890.978 38.3479 902.721 49.4355 902.721 63.1127C902.721 76.7899 890.978 87.8775 876.493 87.8775H708.619C694.133 87.8775 682.391 76.7899 682.391 63.1127Z" fill="white" fill-opacity="0.1"/>
</svg>
